G04 #@! TF.GenerationSoftware,KiCad,Pcbnew,5.0.2-bee76a0~70~ubuntu16.04.1*
G04 #@! TF.CreationDate,2019-01-06T13:47:42-08:00*
G04 #@! TF.ProjectId,fpif,66706966-2e6b-4696-9361-645f70636258,rev?*
G04 #@! TF.SameCoordinates,Original*
G04 #@! TF.FileFunction,Copper,L2,Bot*
G04 #@! TF.FilePolarity,Positive*
%FSLAX46Y46*%
G04 Gerber Fmt 4.6, Leading zero omitted, Abs format (unit mm)*
G04 Created by KiCad (PCBNEW 5.0.2-bee76a0~70~ubuntu16.04.1) date Sun 06 Jan 2019 01:47:42 PM PST*
%MOMM*%
%LPD*%
G01*
G04 APERTURE LIST*
G04 #@! TA.AperFunction,ComponentPad*
%ADD10O,1.727200X2.032000*%
G04 #@! TD*
G04 #@! TA.AperFunction,ComponentPad*
%ADD11C,4.064000*%
G04 #@! TD*
G04 #@! TA.AperFunction,ComponentPad*
%ADD12R,1.727200X2.032000*%
G04 #@! TD*
G04 #@! TA.AperFunction,ComponentPad*
%ADD13R,1.700000X1.700000*%
G04 #@! TD*
G04 #@! TA.AperFunction,ComponentPad*
%ADD14O,1.700000X1.700000*%
G04 #@! TD*
G04 #@! TA.AperFunction,ComponentPad*
%ADD15R,2.400000X1.600000*%
G04 #@! TD*
G04 #@! TA.AperFunction,ComponentPad*
%ADD16O,2.400000X1.600000*%
G04 #@! TD*
G04 #@! TA.AperFunction,ViaPad*
%ADD17C,0.600000*%
G04 #@! TD*
G04 #@! TA.AperFunction,Conductor*
%ADD18C,0.800000*%
G04 #@! TD*
G04 #@! TA.AperFunction,Conductor*
%ADD19C,0.250000*%
G04 #@! TD*
G04 #@! TA.AperFunction,Conductor*
%ADD20C,0.254000*%
G04 #@! TD*
G04 APERTURE END LIST*
D10*
G04 #@! TO.P,P1,1*
G04 #@! TO.N,N/C*
X138938000Y-123825000D03*
G04 #@! TO.P,P1,2*
X141478000Y-123825000D03*
G04 #@! TO.P,P1,3*
X144018000Y-123825000D03*
G04 #@! TO.P,P1,4*
G04 #@! TO.N,+3V3*
X146558000Y-123825000D03*
G04 #@! TO.P,P1,5*
G04 #@! TO.N,+5V*
X149098000Y-123825000D03*
G04 #@! TO.P,P1,6*
G04 #@! TO.N,GND*
X151638000Y-123825000D03*
G04 #@! TO.P,P1,7*
X154178000Y-123825000D03*
G04 #@! TO.P,P1,8*
G04 #@! TO.N,N/C*
X156718000Y-123825000D03*
G04 #@! TD*
G04 #@! TO.P,P2,1*
G04 #@! TO.N,N/C*
X161798000Y-123825000D03*
G04 #@! TO.P,P2,2*
X164338000Y-123825000D03*
G04 #@! TO.P,P2,3*
X166878000Y-123825000D03*
G04 #@! TO.P,P2,4*
X169418000Y-123825000D03*
G04 #@! TO.P,P2,5*
X171958000Y-123825000D03*
G04 #@! TO.P,P2,6*
X174498000Y-123825000D03*
G04 #@! TD*
G04 #@! TO.P,P3,1*
G04 #@! TO.N,N/C*
X129794000Y-75565000D03*
G04 #@! TO.P,P3,2*
X132334000Y-75565000D03*
G04 #@! TO.P,P3,3*
X134874000Y-75565000D03*
G04 #@! TO.P,P3,4*
G04 #@! TO.N,GND*
X137414000Y-75565000D03*
G04 #@! TO.P,P3,5*
G04 #@! TO.N,N/C*
X139954000Y-75565000D03*
G04 #@! TO.P,P3,6*
X142494000Y-75565000D03*
G04 #@! TO.P,P3,7*
X145034000Y-75565000D03*
G04 #@! TO.P,P3,8*
X147574000Y-75565000D03*
G04 #@! TO.P,P3,9*
X150114000Y-75565000D03*
G04 #@! TO.P,P3,10*
X152654000Y-75565000D03*
G04 #@! TD*
G04 #@! TO.P,P4,1*
G04 #@! TO.N,N/C*
X156718000Y-75565000D03*
G04 #@! TO.P,P4,2*
X159258000Y-75565000D03*
G04 #@! TO.P,P4,3*
X161798000Y-75565000D03*
G04 #@! TO.P,P4,4*
X164338000Y-75565000D03*
G04 #@! TO.P,P4,5*
X166878000Y-75565000D03*
G04 #@! TO.P,P4,6*
X169418000Y-75565000D03*
G04 #@! TO.P,P4,7*
X171958000Y-75565000D03*
G04 #@! TO.P,P4,8*
X174498000Y-75565000D03*
G04 #@! TD*
D11*
G04 #@! TO.P,P5,1*
G04 #@! TO.N,N/C*
X124968000Y-123825000D03*
G04 #@! TD*
G04 #@! TO.P,P6,1*
G04 #@! TO.N,N/C*
X177038000Y-118745000D03*
G04 #@! TD*
G04 #@! TO.P,P7,1*
G04 #@! TO.N,N/C*
X126238000Y-75565000D03*
G04 #@! TD*
G04 #@! TO.P,P8,1*
G04 #@! TO.N,N/C*
X177038000Y-90805000D03*
G04 #@! TD*
D12*
G04 #@! TO.P,P14,1*
G04 #@! TO.N,N/C*
X129794000Y-73025000D03*
D10*
G04 #@! TO.P,P14,2*
G04 #@! TO.N,GND*
X132334000Y-73025000D03*
G04 #@! TO.P,P14,3*
G04 #@! TO.N,N/C*
X134874000Y-73025000D03*
G04 #@! TO.P,P14,4*
X137414000Y-73025000D03*
G04 #@! TO.P,P14,5*
X139954000Y-73025000D03*
G04 #@! TO.P,P14,6*
X142494000Y-73025000D03*
G04 #@! TO.P,P14,7*
X145034000Y-73025000D03*
G04 #@! TO.P,P14,8*
X147574000Y-73025000D03*
G04 #@! TO.P,P14,9*
X150114000Y-73025000D03*
G04 #@! TO.P,P14,10*
X152654000Y-73025000D03*
G04 #@! TD*
D12*
G04 #@! TO.P,P15,1*
G04 #@! TO.N,N/C*
X156718000Y-73025000D03*
D10*
G04 #@! TO.P,P15,2*
G04 #@! TO.N,/uart2_txd*
X159258000Y-73025000D03*
G04 #@! TO.P,P15,3*
G04 #@! TO.N,/uart2_cts*
X161798000Y-73025000D03*
G04 #@! TO.P,P15,4*
G04 #@! TO.N,/uart2_rts*
X164338000Y-73025000D03*
G04 #@! TO.P,P15,5*
G04 #@! TO.N,N/C*
X166878000Y-73025000D03*
G04 #@! TO.P,P15,6*
G04 #@! TO.N,/uart2_txd*
X169418000Y-73025000D03*
G04 #@! TO.P,P15,7*
G04 #@! TO.N,/uart2_cts*
X171958000Y-73025000D03*
G04 #@! TO.P,P15,8*
G04 #@! TO.N,/uart2_rts*
X174498000Y-73025000D03*
G04 #@! TD*
D13*
G04 #@! TO.P,DEBUG1,1*
G04 #@! TO.N,GND*
X184150000Y-37465000D03*
D14*
G04 #@! TO.P,DEBUG1,2*
G04 #@! TO.N,N/C*
X181610000Y-37465000D03*
G04 #@! TO.P,DEBUG1,3*
X179070000Y-37465000D03*
G04 #@! TO.P,DEBUG1,4*
G04 #@! TO.N,/debug_rx*
X176530000Y-37465000D03*
G04 #@! TO.P,DEBUG1,5*
G04 #@! TO.N,/debug_tx*
X173990000Y-37465000D03*
G04 #@! TO.P,DEBUG1,6*
G04 #@! TO.N,N/C*
X171450000Y-37465000D03*
G04 #@! TD*
D13*
G04 #@! TO.P,P13,1*
G04 #@! TO.N,+5V*
X132588000Y-112649000D03*
D14*
G04 #@! TO.P,P13,2*
G04 #@! TO.N,+3V3*
X130048000Y-112649000D03*
G04 #@! TO.P,P13,3*
G04 #@! TO.N,N/C*
X132588000Y-110109000D03*
G04 #@! TO.P,P13,4*
X130048000Y-110109000D03*
G04 #@! TO.P,P13,5*
G04 #@! TO.N,/i2c_sda*
X132588000Y-107569000D03*
G04 #@! TO.P,P13,6*
G04 #@! TO.N,/i2c_scl*
X130048000Y-107569000D03*
G04 #@! TO.P,P13,7*
G04 #@! TO.N,/enca_clk*
X132588000Y-105029000D03*
G04 #@! TO.P,P13,8*
G04 #@! TO.N,N/C*
X130048000Y-105029000D03*
G04 #@! TO.P,P13,9*
G04 #@! TO.N,/enca_dat*
X132588000Y-102489000D03*
G04 #@! TO.P,P13,10*
G04 #@! TO.N,N/C*
X130048000Y-102489000D03*
G04 #@! TO.P,P13,11*
G04 #@! TO.N,/enca_sw*
X132588000Y-99949000D03*
G04 #@! TO.P,P13,12*
G04 #@! TO.N,N/C*
X130048000Y-99949000D03*
G04 #@! TO.P,P13,13*
G04 #@! TO.N,/encb_clk*
X132588000Y-97409000D03*
G04 #@! TO.P,P13,14*
G04 #@! TO.N,/tune_cha*
X130048000Y-97409000D03*
G04 #@! TO.P,P13,15*
G04 #@! TO.N,/encb_dat*
X132588000Y-94869000D03*
G04 #@! TO.P,P13,16*
G04 #@! TO.N,/tune_chb*
X130048000Y-94869000D03*
G04 #@! TO.P,P13,17*
G04 #@! TO.N,/encb_sw*
X132588000Y-92329000D03*
G04 #@! TO.P,P13,18*
G04 #@! TO.N,/encc_clk*
X130048000Y-92329000D03*
G04 #@! TO.P,P13,19*
G04 #@! TO.N,/encc_dat*
X132588000Y-89789000D03*
G04 #@! TO.P,P13,20*
G04 #@! TO.N,/encc_sw*
X130048000Y-89789000D03*
G04 #@! TO.P,P13,21*
G04 #@! TO.N,/button_b_int*
X132588000Y-87249000D03*
G04 #@! TO.P,P13,22*
G04 #@! TO.N,/button_a_int*
X130048000Y-87249000D03*
G04 #@! TO.P,P13,23*
G04 #@! TO.N,GND*
X132588000Y-84709000D03*
G04 #@! TO.P,P13,24*
X130048000Y-84709000D03*
G04 #@! TO.P,P13,25*
G04 #@! TO.N,N/C*
X132588000Y-82169000D03*
G04 #@! TO.P,P13,26*
X130048000Y-82169000D03*
G04 #@! TD*
G04 #@! TO.P,PIN0,29*
G04 #@! TO.N,+5V*
X191120000Y-65000000D03*
G04 #@! TO.P,PIN0,28*
G04 #@! TO.N,GND*
X188580000Y-65000000D03*
G04 #@! TO.P,PIN0,27*
G04 #@! TO.N,N/C*
X186040000Y-65000000D03*
G04 #@! TO.P,PIN0,26*
X183500000Y-65000000D03*
G04 #@! TO.P,PIN0,25*
X180960000Y-65000000D03*
G04 #@! TO.P,PIN0,24*
X178420000Y-65000000D03*
G04 #@! TO.P,PIN0,23*
X175880000Y-65000000D03*
G04 #@! TO.P,PIN0,22*
X173340000Y-65000000D03*
G04 #@! TO.P,PIN0,21*
X170800000Y-65000000D03*
G04 #@! TO.P,PIN0,20*
G04 #@! TO.N,/button_b_int*
X168260000Y-65000000D03*
G04 #@! TO.P,PIN0,19*
G04 #@! TO.N,/button_a_int*
X165720000Y-65000000D03*
G04 #@! TO.P,PIN0,18*
G04 #@! TO.N,/encc_sw*
X163180000Y-65000000D03*
G04 #@! TO.P,PIN0,17*
G04 #@! TO.N,/encb_sw*
X160640000Y-65000000D03*
G04 #@! TO.P,PIN0,16*
G04 #@! TO.N,/enca_sw*
X158100000Y-65000000D03*
G04 #@! TO.P,PIN0,15*
G04 #@! TO.N,/encc_dat*
X155560000Y-65000000D03*
G04 #@! TO.P,PIN0,14*
G04 #@! TO.N,/tune_cha*
X153020000Y-65000000D03*
G04 #@! TO.P,PIN0,13*
G04 #@! TO.N,/relay_on_n*
X150480000Y-65000000D03*
G04 #@! TO.P,PIN0,12*
G04 #@! TO.N,N/C*
X147940000Y-65000000D03*
G04 #@! TO.P,PIN0,11*
X145400000Y-65000000D03*
G04 #@! TO.P,PIN0,10*
X142860000Y-65000000D03*
G04 #@! TO.P,PIN0,9*
X140320000Y-65000000D03*
G04 #@! TO.P,PIN0,8*
G04 #@! TO.N,/i2c_sda*
X137780000Y-65000000D03*
G04 #@! TO.P,PIN0,7*
G04 #@! TO.N,/i2c_scl*
X135240000Y-65000000D03*
G04 #@! TO.P,PIN0,6*
G04 #@! TO.N,N/C*
X132700000Y-65000000D03*
G04 #@! TO.P,PIN0,5*
X130160000Y-65000000D03*
G04 #@! TO.P,PIN0,4*
X127620000Y-65000000D03*
G04 #@! TO.P,PIN0,3*
G04 #@! TO.N,/pre_rdo_tx*
X125080000Y-65000000D03*
G04 #@! TO.P,PIN0,2*
G04 #@! TO.N,/pre_rdo_rx*
X122540000Y-65000000D03*
D13*
G04 #@! TO.P,PIN0,1*
G04 #@! TO.N,N/C*
X120000000Y-65000000D03*
G04 #@! TD*
G04 #@! TO.P,POUT0,1*
G04 #@! TO.N,+5V*
X120000000Y-44900000D03*
D14*
G04 #@! TO.P,POUT0,2*
G04 #@! TO.N,GND*
X122540000Y-44900000D03*
G04 #@! TO.P,POUT0,3*
G04 #@! TO.N,/encc_clk*
X125080000Y-44900000D03*
G04 #@! TO.P,POUT0,4*
G04 #@! TO.N,/tune_chb*
X127620000Y-44900000D03*
G04 #@! TO.P,POUT0,5*
G04 #@! TO.N,N/C*
X130160000Y-44900000D03*
G04 #@! TO.P,POUT0,6*
X132700000Y-44900000D03*
G04 #@! TO.P,POUT0,7*
G04 #@! TO.N,/encb_dat*
X135240000Y-44900000D03*
G04 #@! TO.P,POUT0,8*
G04 #@! TO.N,/enca_dat*
X137780000Y-44900000D03*
G04 #@! TO.P,POUT0,9*
G04 #@! TO.N,/encb_clk*
X140320000Y-44900000D03*
G04 #@! TO.P,POUT0,10*
G04 #@! TO.N,/enca_clk*
X142860000Y-44900000D03*
G04 #@! TO.P,POUT0,11*
G04 #@! TO.N,N/C*
X145400000Y-44900000D03*
G04 #@! TO.P,POUT0,12*
X147940000Y-44900000D03*
G04 #@! TO.P,POUT0,13*
X150480000Y-44900000D03*
G04 #@! TO.P,POUT0,14*
X153020000Y-44900000D03*
G04 #@! TO.P,POUT0,15*
X155560000Y-44900000D03*
G04 #@! TO.P,POUT0,16*
X158100000Y-44900000D03*
G04 #@! TO.P,POUT0,17*
X160640000Y-44900000D03*
G04 #@! TO.P,POUT0,18*
X163180000Y-44900000D03*
G04 #@! TO.P,POUT0,19*
X165720000Y-44900000D03*
G04 #@! TO.P,POUT0,20*
X168260000Y-44900000D03*
G04 #@! TO.P,POUT0,21*
X170800000Y-44900000D03*
G04 #@! TO.P,POUT0,22*
X173340000Y-44900000D03*
G04 #@! TO.P,POUT0,23*
X175880000Y-44900000D03*
G04 #@! TO.P,POUT0,24*
X178420000Y-44900000D03*
G04 #@! TO.P,POUT0,25*
X180960000Y-44900000D03*
G04 #@! TO.P,POUT0,26*
G04 #@! TO.N,/pre_dbg_tx*
X183500000Y-44900000D03*
G04 #@! TO.P,POUT0,27*
G04 #@! TO.N,/pre_dbg_rx*
X186040000Y-44900000D03*
G04 #@! TO.P,POUT0,28*
G04 #@! TO.N,N/C*
X188580000Y-44900000D03*
G04 #@! TO.P,POUT0,29*
G04 #@! TO.N,GND*
X191120000Y-44900000D03*
G04 #@! TD*
G04 #@! TO.P,RADIO1,6*
G04 #@! TO.N,N/C*
X129794000Y-37465000D03*
G04 #@! TO.P,RADIO1,5*
G04 #@! TO.N,/radio_tx*
X132334000Y-37465000D03*
G04 #@! TO.P,RADIO1,4*
G04 #@! TO.N,/radio_rx*
X134874000Y-37465000D03*
G04 #@! TO.P,RADIO1,3*
G04 #@! TO.N,N/C*
X137414000Y-37465000D03*
G04 #@! TO.P,RADIO1,2*
X139954000Y-37465000D03*
D13*
G04 #@! TO.P,RADIO1,1*
G04 #@! TO.N,GND*
X142494000Y-37465000D03*
G04 #@! TD*
D15*
G04 #@! TO.P,U1,1*
G04 #@! TO.N,/relay_on_n*
X138430000Y-88519000D03*
D16*
G04 #@! TO.P,U1,9*
G04 #@! TO.N,+5V*
X146050000Y-106299000D03*
G04 #@! TO.P,U1,2*
G04 #@! TO.N,Net-(R2-Pad2)*
X138430000Y-91059000D03*
G04 #@! TO.P,U1,10*
G04 #@! TO.N,N/C*
X146050000Y-103759000D03*
G04 #@! TO.P,U1,3*
G04 #@! TO.N,Net-(R3-Pad2)*
X138430000Y-93599000D03*
G04 #@! TO.P,U1,11*
G04 #@! TO.N,Net-(U1-Pad11)*
X146050000Y-101219000D03*
G04 #@! TO.P,U1,4*
G04 #@! TO.N,Net-(R3-Pad2)*
X138430000Y-96139000D03*
G04 #@! TO.P,U1,12*
G04 #@! TO.N,Net-(U1-Pad12)*
X146050000Y-98679000D03*
G04 #@! TO.P,U1,5*
G04 #@! TO.N,Net-(R3-Pad2)*
X138430000Y-98679000D03*
G04 #@! TO.P,U1,13*
G04 #@! TO.N,Net-(U1-Pad13)*
X146050000Y-96139000D03*
G04 #@! TO.P,U1,6*
G04 #@! TO.N,Net-(R3-Pad2)*
X138430000Y-101219000D03*
G04 #@! TO.P,U1,14*
G04 #@! TO.N,Net-(U1-Pad14)*
X146050000Y-93599000D03*
G04 #@! TO.P,U1,7*
G04 #@! TO.N,N/C*
X138430000Y-103759000D03*
G04 #@! TO.P,U1,15*
G04 #@! TO.N,Net-(R3-Pad2)*
X146050000Y-91059000D03*
G04 #@! TO.P,U1,8*
G04 #@! TO.N,GND*
X138430000Y-106299000D03*
G04 #@! TO.P,U1,16*
G04 #@! TO.N,Net-(R2-Pad2)*
X146050000Y-88519000D03*
G04 #@! TD*
D15*
G04 #@! TO.P,U2,1*
G04 #@! TO.N,Net-(R4-Pad1)*
X159512000Y-86487000D03*
D16*
G04 #@! TO.P,U2,5*
G04 #@! TO.N,/debug_tx*
X167132000Y-94107000D03*
G04 #@! TO.P,U2,2*
G04 #@! TO.N,Net-(U1-Pad14)*
X159512000Y-89027000D03*
G04 #@! TO.P,U2,6*
G04 #@! TO.N,/pre_dbg_tx*
X167132000Y-91567000D03*
G04 #@! TO.P,U2,3*
G04 #@! TO.N,Net-(R5-Pad1)*
X159512000Y-91567000D03*
G04 #@! TO.P,U2,7*
G04 #@! TO.N,/debug_rx*
X167132000Y-89027000D03*
G04 #@! TO.P,U2,4*
G04 #@! TO.N,Net-(U1-Pad13)*
X159512000Y-94107000D03*
G04 #@! TO.P,U2,8*
G04 #@! TO.N,/pre_dbg_rx*
X167132000Y-86487000D03*
G04 #@! TD*
G04 #@! TO.P,U3,8*
G04 #@! TO.N,/pre_rdo_rx*
X167132000Y-105283000D03*
G04 #@! TO.P,U3,4*
G04 #@! TO.N,Net-(U1-Pad11)*
X159512000Y-112903000D03*
G04 #@! TO.P,U3,7*
G04 #@! TO.N,/radio_rx*
X167132000Y-107823000D03*
G04 #@! TO.P,U3,3*
G04 #@! TO.N,Net-(R7-Pad1)*
X159512000Y-110363000D03*
G04 #@! TO.P,U3,6*
G04 #@! TO.N,/pre_rdo_tx*
X167132000Y-110363000D03*
G04 #@! TO.P,U3,2*
G04 #@! TO.N,Net-(U1-Pad12)*
X159512000Y-107823000D03*
G04 #@! TO.P,U3,5*
G04 #@! TO.N,/radio_tx*
X167132000Y-112903000D03*
D15*
G04 #@! TO.P,U3,1*
G04 #@! TO.N,Net-(R6-Pad1)*
X159512000Y-105283000D03*
G04 #@! TD*
D17*
G04 #@! TO.N,GND*
X122428000Y-49149000D03*
X192024000Y-50927000D03*
X192278000Y-55753000D03*
X152400000Y-96647000D03*
X163830000Y-100965000D03*
X146812000Y-112649000D03*
X145034000Y-117729000D03*
X156464000Y-120777000D03*
X162560000Y-80391000D03*
X138924809Y-120282189D03*
G04 #@! TO.N,/i2c_scl*
X131826000Y-78359000D03*
G04 #@! TO.N,/enca_dat*
X122863000Y-101314000D03*
G04 #@! TO.N,/tune_cha*
X153639000Y-69863900D03*
G04 #@! TO.N,/pre_rdo_tx*
X142562000Y-63243200D03*
G04 #@! TO.N,/pre_rdo_rx*
X128657000Y-111312000D03*
G04 #@! TD*
D18*
G04 #@! TO.N,+3V3*
X130048000Y-112649000D02*
X130048000Y-114099300D01*
X130048000Y-114099300D02*
X136832300Y-114099300D01*
X136832300Y-114099300D02*
X146558000Y-123825000D01*
D19*
G04 #@! TO.N,/encb_sw*
X160640000Y-65000000D02*
X159465000Y-65000000D01*
X159465000Y-65000000D02*
X159465000Y-64632700D01*
X159465000Y-64632700D02*
X158649000Y-63817400D01*
X158649000Y-63817400D02*
X157600000Y-63817400D01*
X157600000Y-63817400D02*
X156830000Y-64587200D01*
X156830000Y-64587200D02*
X156830000Y-65402500D01*
X156830000Y-65402500D02*
X150993000Y-71239200D01*
X150993000Y-71239200D02*
X150053000Y-71239200D01*
X150053000Y-71239200D02*
X148844000Y-72448100D01*
X148844000Y-72448100D02*
X148844000Y-76186000D01*
X148844000Y-76186000D02*
X137745000Y-87284600D01*
X137745000Y-87284600D02*
X137194000Y-87284600D01*
X137194000Y-87284600D02*
X133324000Y-91153700D01*
X133324000Y-91153700D02*
X132588000Y-91153700D01*
X132588000Y-91153700D02*
X132588000Y-92329000D01*
G04 #@! TO.N,/i2c_scl*
X131526001Y-78059001D02*
X131826000Y-78359000D01*
X132678992Y-76906010D02*
X131526001Y-78059001D01*
X132826338Y-76906010D02*
X132678992Y-76906010D01*
X133522610Y-76209738D02*
X132826338Y-76906010D01*
X135240000Y-65000000D02*
X133604000Y-66636000D01*
X133604000Y-66636000D02*
X133604000Y-75981002D01*
X133604000Y-75981002D02*
X133522610Y-76062392D01*
X133522610Y-76062392D02*
X133522610Y-76209738D01*
G04 #@! TO.N,/button_b_int*
X168260000Y-65000000D02*
X167085000Y-65000000D01*
X167085000Y-65000000D02*
X167085000Y-64632700D01*
X167085000Y-64632700D02*
X165336000Y-62883900D01*
X165336000Y-62883900D02*
X148381000Y-62883900D01*
X148381000Y-62883900D02*
X146587000Y-64677400D01*
X146587000Y-64677400D02*
X146587000Y-67061900D01*
X146587000Y-67061900D02*
X141224000Y-72425000D01*
X141224000Y-72425000D02*
X141224000Y-77805000D01*
X141224000Y-77805000D02*
X132955000Y-86073700D01*
X132955000Y-86073700D02*
X132588000Y-86073700D01*
X132588000Y-86073700D02*
X132588000Y-87249000D01*
G04 #@! TO.N,/button_a_int*
X165720000Y-65000000D02*
X164545000Y-65000000D01*
X164545000Y-65000000D02*
X164545000Y-64632700D01*
X164545000Y-64632700D02*
X163246000Y-63334300D01*
X163246000Y-63334300D02*
X153022000Y-63334300D01*
X153022000Y-63334300D02*
X151684000Y-64672600D01*
X151684000Y-64672600D02*
X151684000Y-65517900D01*
X151684000Y-65517900D02*
X145936000Y-71266200D01*
X145936000Y-71266200D02*
X144850000Y-71266200D01*
X144850000Y-71266200D02*
X143764000Y-72352100D01*
X143764000Y-72352100D02*
X143764000Y-77746600D01*
X143764000Y-77746600D02*
X133086000Y-88424300D01*
X133086000Y-88424300D02*
X132031000Y-88424300D01*
X132031000Y-88424300D02*
X131223000Y-87616400D01*
X131223000Y-87616400D02*
X131223000Y-87249000D01*
X131223000Y-87249000D02*
X130048000Y-87249000D01*
G04 #@! TO.N,/encc_sw*
X163180000Y-65000000D02*
X162005000Y-65000000D01*
X162005000Y-65000000D02*
X162005000Y-65392500D01*
X162005000Y-65392500D02*
X155529000Y-71868200D01*
X155529000Y-71868200D02*
X155529000Y-83635700D01*
X155529000Y-83635700D02*
X146836000Y-92329000D01*
X146836000Y-92329000D02*
X145263000Y-92329000D01*
X145263000Y-92329000D02*
X140183000Y-97409000D01*
X140183000Y-97409000D02*
X137080000Y-97409000D01*
X137080000Y-97409000D02*
X133355000Y-101134000D01*
X133355000Y-101134000D02*
X132089000Y-101134000D01*
X132089000Y-101134000D02*
X131223000Y-100269000D01*
X131223000Y-100269000D02*
X131223000Y-99423400D01*
X131223000Y-99423400D02*
X130479000Y-98679000D01*
X130479000Y-98679000D02*
X129575000Y-98679000D01*
X129575000Y-98679000D02*
X128873000Y-97976400D01*
X128873000Y-97976400D02*
X128873000Y-91772200D01*
X128873000Y-91772200D02*
X129681000Y-90964300D01*
X129681000Y-90964300D02*
X130048000Y-90964300D01*
X130048000Y-90964300D02*
X130048000Y-89789000D01*
G04 #@! TO.N,/encc_dat*
X155560000Y-65000000D02*
X154385000Y-65000000D01*
X154385000Y-65000000D02*
X154385000Y-65367400D01*
X154385000Y-65367400D02*
X153577000Y-66175300D01*
X153577000Y-66175300D02*
X152588000Y-66175300D01*
X152588000Y-66175300D02*
X146304000Y-72459100D01*
X146304000Y-72459100D02*
X146304000Y-77248300D01*
X146304000Y-77248300D02*
X133763000Y-89789000D01*
X133763000Y-89789000D02*
X132588000Y-89789000D01*
G04 #@! TO.N,/enca_dat*
X132588000Y-102489000D02*
X131413000Y-102489000D01*
X131413000Y-102489000D02*
X131413000Y-102122000D01*
X131413000Y-102122000D02*
X130605000Y-101314000D01*
X130605000Y-101314000D02*
X122863000Y-101314000D01*
G04 #@! TO.N,/enca_sw*
X158100000Y-65000000D02*
X158100000Y-66175300D01*
X158100000Y-66175300D02*
X154704000Y-69571300D01*
X154704000Y-69571300D02*
X154704000Y-81915500D01*
X154704000Y-81915500D02*
X146910000Y-89709200D01*
X146910000Y-89709200D02*
X142715000Y-89709200D01*
X142715000Y-89709200D02*
X140095000Y-92329000D01*
X140095000Y-92329000D02*
X137696000Y-92329000D01*
X137696000Y-92329000D02*
X133763000Y-96261200D01*
X133763000Y-96261200D02*
X133763000Y-97965800D01*
X133763000Y-97965800D02*
X132955000Y-98773700D01*
X132955000Y-98773700D02*
X132588000Y-98773700D01*
X132588000Y-98773700D02*
X132588000Y-99949000D01*
G04 #@! TO.N,/tune_cha*
X153639000Y-69863900D02*
X151384000Y-72119100D01*
X151384000Y-72119100D02*
X151384000Y-78035200D01*
X151384000Y-78035200D02*
X139645000Y-89774600D01*
X139645000Y-89774600D02*
X137672000Y-89774600D01*
X137672000Y-89774600D02*
X135109000Y-92337200D01*
X135109000Y-92337200D02*
X135109000Y-94019700D01*
X135109000Y-94019700D02*
X132895000Y-96233700D01*
X132895000Y-96233700D02*
X132031000Y-96233700D01*
X132031000Y-96233700D02*
X131223000Y-97041600D01*
X131223000Y-97041600D02*
X131223000Y-97409000D01*
X131223000Y-97409000D02*
X130048000Y-97409000D01*
G04 #@! TO.N,/uart2_txd*
X169418000Y-73025000D02*
X168229000Y-73025000D01*
X168229000Y-73025000D02*
X168229000Y-72504900D01*
X168229000Y-72504900D02*
X167407000Y-71682900D01*
X167407000Y-71682900D02*
X161269000Y-71682900D01*
X161269000Y-71682900D02*
X160447000Y-72504900D01*
X160447000Y-72504900D02*
X160447000Y-73025000D01*
X160447000Y-73025000D02*
X159258000Y-73025000D01*
G04 #@! TO.N,/uart2_cts*
X171958000Y-73025000D02*
X170769000Y-73025000D01*
X170769000Y-73025000D02*
X170769000Y-72504900D01*
X170769000Y-72504900D02*
X169479000Y-71214600D01*
X169479000Y-71214600D02*
X159196000Y-71214600D01*
X159196000Y-71214600D02*
X158043000Y-72368000D01*
X158043000Y-72368000D02*
X158043000Y-76259800D01*
X158043000Y-76259800D02*
X158697000Y-76913400D01*
X158697000Y-76913400D02*
X159751000Y-76913400D01*
X159751000Y-76913400D02*
X160447000Y-76217400D01*
X160447000Y-76217400D02*
X160447000Y-74376000D01*
X160447000Y-74376000D02*
X161798000Y-73025000D01*
G04 #@! TO.N,/uart2_rts*
X174498000Y-73025000D02*
X173309000Y-73025000D01*
X173309000Y-73025000D02*
X173309000Y-76058700D01*
X173309000Y-76058700D02*
X172461000Y-76906600D01*
X172461000Y-76906600D02*
X166311000Y-76906600D01*
X166311000Y-76906600D02*
X165527000Y-76122600D01*
X165527000Y-76122600D02*
X165527000Y-73025000D01*
X165527000Y-73025000D02*
X164338000Y-73025000D01*
G04 #@! TO.N,/pre_rdo_tx*
X125080000Y-65000000D02*
X126255000Y-65000000D01*
X126255000Y-65000000D02*
X126255000Y-64632700D01*
X126255000Y-64632700D02*
X127645000Y-63243200D01*
X127645000Y-63243200D02*
X142562000Y-63243200D01*
G04 #@! TO.N,/pre_rdo_rx*
X167132000Y-105283000D02*
X165607000Y-105283000D01*
X165607000Y-105283000D02*
X165607000Y-110405000D01*
X165607000Y-110405000D02*
X158943000Y-117068000D01*
X158943000Y-117068000D02*
X156556000Y-117068000D01*
X156556000Y-117068000D02*
X150368000Y-123256000D01*
X150368000Y-123256000D02*
X150368000Y-124450000D01*
X150368000Y-124450000D02*
X149610000Y-125208000D01*
X149610000Y-125208000D02*
X143505000Y-125208000D01*
X143505000Y-125208000D02*
X142748000Y-124451000D01*
X142748000Y-124451000D02*
X142748000Y-123222000D01*
X142748000Y-123222000D02*
X136051000Y-116524000D01*
X136051000Y-116524000D02*
X131426000Y-116524000D01*
X131426000Y-116524000D02*
X128657000Y-113755000D01*
X128657000Y-113755000D02*
X128657000Y-111312000D01*
G04 #@! TO.N,Net-(R2-Pad2)*
X138430000Y-91059000D02*
X139955000Y-91059000D01*
X139955000Y-91059000D02*
X142495000Y-88519000D01*
X142495000Y-88519000D02*
X146050000Y-88519000D01*
G04 #@! TO.N,Net-(R3-Pad2)*
X146050000Y-91059000D02*
X142495000Y-91059000D01*
X142495000Y-91059000D02*
X139955000Y-93599000D01*
X139955000Y-93599000D02*
X138430000Y-93599000D01*
G04 #@! TO.N,Net-(U1-Pad11)*
X159512000Y-112903000D02*
X157987000Y-112903000D01*
X157987000Y-112903000D02*
X147575000Y-102492000D01*
X147575000Y-102492000D02*
X147575000Y-101219000D01*
X147575000Y-101219000D02*
X146050000Y-101219000D01*
G04 #@! TO.N,Net-(U1-Pad12)*
X159512000Y-107823000D02*
X157987000Y-107823000D01*
X157987000Y-107823000D02*
X148843000Y-98679000D01*
X148843000Y-98679000D02*
X146050000Y-98679000D01*
G04 #@! TO.N,Net-(U1-Pad13)*
X159512000Y-94107000D02*
X149607000Y-94107000D01*
X149607000Y-94107000D02*
X147575000Y-96139000D01*
X147575000Y-96139000D02*
X146050000Y-96139000D01*
G04 #@! TO.N,Net-(U1-Pad14)*
X159512000Y-89027000D02*
X152147000Y-89027000D01*
X152147000Y-89027000D02*
X147575000Y-93599000D01*
X147575000Y-93599000D02*
X146050000Y-93599000D01*
G04 #@! TD*
D20*
G04 #@! TO.N,GND*
G36*
X195290000Y-69092447D02*
X182449024Y-69290000D01*
X180069925Y-69290000D01*
X180000000Y-69276091D01*
X179930074Y-69290000D01*
X179722972Y-69331195D01*
X179721832Y-69331957D01*
X179068046Y-69342015D01*
X179019600Y-69352429D01*
X178978827Y-69380589D01*
X178951934Y-69422210D01*
X178943000Y-69469000D01*
X178943000Y-88938292D01*
X178548734Y-88544026D01*
X177568499Y-88138000D01*
X176507501Y-88138000D01*
X175527266Y-88544026D01*
X174777026Y-89294266D01*
X174371000Y-90274501D01*
X174371000Y-91335499D01*
X174777026Y-92315734D01*
X175527266Y-93065974D01*
X176507501Y-93472000D01*
X177568499Y-93472000D01*
X178548734Y-93065974D01*
X178943000Y-92671708D01*
X178943000Y-116878292D01*
X178548734Y-116484026D01*
X177568499Y-116078000D01*
X176507501Y-116078000D01*
X175527266Y-116484026D01*
X174777026Y-117234266D01*
X174371000Y-118214501D01*
X174371000Y-119275499D01*
X174777026Y-120255734D01*
X175527266Y-121005974D01*
X176507501Y-121412000D01*
X177568499Y-121412000D01*
X178548734Y-121005974D01*
X178943000Y-120611708D01*
X178943000Y-126290000D01*
X127542555Y-126290000D01*
X126018727Y-126276515D01*
X126478734Y-126085974D01*
X127228974Y-125335734D01*
X127635000Y-124355499D01*
X127635000Y-123294501D01*
X127228974Y-122314266D01*
X126478734Y-121564026D01*
X125498499Y-121158000D01*
X124437501Y-121158000D01*
X123457266Y-121564026D01*
X122707026Y-122314266D01*
X122301000Y-123294501D01*
X122301000Y-124355499D01*
X122707026Y-125335734D01*
X123457266Y-126085974D01*
X123871396Y-126257512D01*
X121793000Y-126239119D01*
X121793000Y-69215000D01*
X121783333Y-69166399D01*
X121755803Y-69125197D01*
X121714601Y-69097667D01*
X121666000Y-69088000D01*
X113710000Y-69088000D01*
X113710000Y-64150000D01*
X118502560Y-64150000D01*
X118502560Y-65850000D01*
X118551843Y-66097765D01*
X118692191Y-66307809D01*
X118902235Y-66448157D01*
X119150000Y-66497440D01*
X120850000Y-66497440D01*
X121097765Y-66448157D01*
X121307809Y-66307809D01*
X121448157Y-66097765D01*
X121457184Y-66052381D01*
X121469375Y-66070625D01*
X121960582Y-66398839D01*
X122393744Y-66485000D01*
X122686256Y-66485000D01*
X123119418Y-66398839D01*
X123610625Y-66070625D01*
X123810000Y-65772239D01*
X124009375Y-66070625D01*
X124500582Y-66398839D01*
X124933744Y-66485000D01*
X125226256Y-66485000D01*
X125659418Y-66398839D01*
X126150625Y-66070625D01*
X126350000Y-65772239D01*
X126549375Y-66070625D01*
X127040582Y-66398839D01*
X127473744Y-66485000D01*
X127766256Y-66485000D01*
X128199418Y-66398839D01*
X128690625Y-66070625D01*
X128890000Y-65772239D01*
X129089375Y-66070625D01*
X129580582Y-66398839D01*
X130013744Y-66485000D01*
X130306256Y-66485000D01*
X130739418Y-66398839D01*
X131230625Y-66070625D01*
X131430000Y-65772239D01*
X131629375Y-66070625D01*
X132120582Y-66398839D01*
X132553744Y-66485000D01*
X132846256Y-66485000D01*
X132859678Y-66482330D01*
X132844000Y-66561149D01*
X132844000Y-66561153D01*
X132829112Y-66636000D01*
X132844000Y-66710847D01*
X132844001Y-71485422D01*
X132708791Y-71420291D01*
X132693026Y-71417642D01*
X132461000Y-71538783D01*
X132461000Y-72898000D01*
X132481000Y-72898000D01*
X132481000Y-73152000D01*
X132461000Y-73152000D01*
X132461000Y-73172000D01*
X132207000Y-73172000D01*
X132207000Y-73152000D01*
X132187000Y-73152000D01*
X132187000Y-72898000D01*
X132207000Y-72898000D01*
X132207000Y-71538783D01*
X131974974Y-71417642D01*
X131959209Y-71420291D01*
X131431964Y-71674268D01*
X131273694Y-71851410D01*
X131255757Y-71761235D01*
X131115409Y-71551191D01*
X130905365Y-71410843D01*
X130657600Y-71361560D01*
X128930400Y-71361560D01*
X128682635Y-71410843D01*
X128472591Y-71551191D01*
X128332243Y-71761235D01*
X128282960Y-72009000D01*
X128282960Y-73838252D01*
X127748734Y-73304026D01*
X126768499Y-72898000D01*
X125707501Y-72898000D01*
X124727266Y-73304026D01*
X123977026Y-74054266D01*
X123571000Y-75034501D01*
X123571000Y-76095499D01*
X123977026Y-77075734D01*
X124727266Y-77825974D01*
X125707501Y-78232000D01*
X126768499Y-78232000D01*
X127748734Y-77825974D01*
X128498974Y-77075734D01*
X128652156Y-76705918D01*
X128713570Y-76797830D01*
X129209276Y-77129050D01*
X129794000Y-77245359D01*
X130378725Y-77129050D01*
X130874430Y-76797830D01*
X131064000Y-76514119D01*
X131253570Y-76797830D01*
X131528601Y-76981600D01*
X131041530Y-77468671D01*
X130978072Y-77511072D01*
X130864204Y-77681488D01*
X130810098Y-77762464D01*
X130751113Y-78059001D01*
X130810098Y-78355538D01*
X130891000Y-78476617D01*
X130891000Y-78544983D01*
X131033345Y-78888635D01*
X131296365Y-79151655D01*
X131640017Y-79294000D01*
X132011983Y-79294000D01*
X132355635Y-79151655D01*
X132618655Y-78888635D01*
X132761000Y-78544983D01*
X132761000Y-78173017D01*
X132680685Y-77979119D01*
X133016788Y-77643016D01*
X133122875Y-77621914D01*
X133374267Y-77453939D01*
X133416668Y-77390481D01*
X133922903Y-76884248D01*
X134289276Y-77129050D01*
X134874000Y-77245359D01*
X135458725Y-77129050D01*
X135954430Y-76797830D01*
X136147909Y-76508267D01*
X136511964Y-76915732D01*
X137039209Y-77169709D01*
X137054974Y-77172358D01*
X137287000Y-77051217D01*
X137287000Y-75692000D01*
X137267000Y-75692000D01*
X137267000Y-75438000D01*
X137287000Y-75438000D01*
X137287000Y-75418000D01*
X137541000Y-75418000D01*
X137541000Y-75438000D01*
X137561000Y-75438000D01*
X137561000Y-75692000D01*
X137541000Y-75692000D01*
X137541000Y-77051217D01*
X137773026Y-77172358D01*
X137788791Y-77169709D01*
X138316036Y-76915732D01*
X138680090Y-76508268D01*
X138873570Y-76797830D01*
X139369276Y-77129050D01*
X139954000Y-77245359D01*
X140464001Y-77143914D01*
X140464001Y-77490189D01*
X133904231Y-84049722D01*
X133859645Y-83942076D01*
X133469358Y-83513817D01*
X133339522Y-83452843D01*
X133658625Y-83239625D01*
X133986839Y-82748418D01*
X134102092Y-82169000D01*
X133986839Y-81589582D01*
X133658625Y-81098375D01*
X133167418Y-80770161D01*
X132734256Y-80684000D01*
X132441744Y-80684000D01*
X132008582Y-80770161D01*
X131517375Y-81098375D01*
X131318000Y-81396761D01*
X131118625Y-81098375D01*
X130627418Y-80770161D01*
X130194256Y-80684000D01*
X129901744Y-80684000D01*
X129468582Y-80770161D01*
X128977375Y-81098375D01*
X128649161Y-81589582D01*
X128533908Y-82169000D01*
X128649161Y-82748418D01*
X128977375Y-83239625D01*
X129296478Y-83452843D01*
X129166642Y-83513817D01*
X128776355Y-83942076D01*
X128606524Y-84352110D01*
X128727845Y-84582000D01*
X129921000Y-84582000D01*
X129921000Y-84562000D01*
X130175000Y-84562000D01*
X130175000Y-84582000D01*
X132461000Y-84582000D01*
X132461000Y-84562000D01*
X132715000Y-84562000D01*
X132715000Y-84582000D01*
X132735000Y-84582000D01*
X132735000Y-84836000D01*
X132715000Y-84836000D01*
X132715000Y-84856000D01*
X132461000Y-84856000D01*
X132461000Y-84836000D01*
X130175000Y-84836000D01*
X130175000Y-84856000D01*
X129921000Y-84856000D01*
X129921000Y-84836000D01*
X128727845Y-84836000D01*
X128606524Y-85065890D01*
X128776355Y-85475924D01*
X129166642Y-85904183D01*
X129296478Y-85965157D01*
X128977375Y-86178375D01*
X128649161Y-86669582D01*
X128533908Y-87249000D01*
X128649161Y-87828418D01*
X128977375Y-88319625D01*
X129275761Y-88519000D01*
X128977375Y-88718375D01*
X128649161Y-89209582D01*
X128533908Y-89789000D01*
X128649161Y-90368418D01*
X128870616Y-90699848D01*
X128388546Y-91181859D01*
X128325072Y-91224271D01*
X128244686Y-91344577D01*
X128157115Y-91475619D01*
X128157110Y-91475643D01*
X128157097Y-91475663D01*
X128129766Y-91613067D01*
X128098112Y-91772153D01*
X128113001Y-91847029D01*
X128113000Y-97901388D01*
X128098112Y-97976069D01*
X128113000Y-98051084D01*
X128113000Y-98051251D01*
X128127651Y-98124904D01*
X128156970Y-98272631D01*
X128157063Y-98272770D01*
X128157096Y-98272936D01*
X128241196Y-98398801D01*
X128282464Y-98460620D01*
X128282579Y-98460735D01*
X128325071Y-98524329D01*
X128388392Y-98566639D01*
X128866162Y-99044818D01*
X128649161Y-99369582D01*
X128533908Y-99949000D01*
X128649161Y-100528418D01*
X128666254Y-100554000D01*
X123425290Y-100554000D01*
X123392635Y-100521345D01*
X123048983Y-100379000D01*
X122677017Y-100379000D01*
X122333365Y-100521345D01*
X122070345Y-100784365D01*
X121928000Y-101128017D01*
X121928000Y-101499983D01*
X122070345Y-101843635D01*
X122333365Y-102106655D01*
X122677017Y-102249000D01*
X123048983Y-102249000D01*
X123392635Y-102106655D01*
X123425290Y-102074000D01*
X128616456Y-102074000D01*
X128533908Y-102489000D01*
X128649161Y-103068418D01*
X128977375Y-103559625D01*
X129275761Y-103759000D01*
X128977375Y-103958375D01*
X128649161Y-104449582D01*
X128533908Y-105029000D01*
X128649161Y-105608418D01*
X128977375Y-106099625D01*
X129275761Y-106299000D01*
X128977375Y-106498375D01*
X128649161Y-106989582D01*
X128533908Y-107569000D01*
X128649161Y-108148418D01*
X128977375Y-108639625D01*
X129275761Y-108839000D01*
X128977375Y-109038375D01*
X128649161Y-109529582D01*
X128533908Y-110109000D01*
X128587216Y-110377000D01*
X128471017Y-110377000D01*
X128127365Y-110519345D01*
X127864345Y-110782365D01*
X127722000Y-111126017D01*
X127722000Y-111497983D01*
X127864345Y-111841635D01*
X127897001Y-111874291D01*
X127897000Y-113680153D01*
X127882112Y-113755000D01*
X127897000Y-113829847D01*
X127897000Y-113829851D01*
X127941096Y-114051536D01*
X128109071Y-114302929D01*
X128172530Y-114345331D01*
X130835673Y-117008476D01*
X130878071Y-117071929D01*
X130941524Y-117114327D01*
X130941526Y-117114329D01*
X131066902Y-117198102D01*
X131129463Y-117239904D01*
X131351148Y-117284000D01*
X131351152Y-117284000D01*
X131425999Y-117298888D01*
X131500846Y-117284000D01*
X135736166Y-117284000D01*
X140784825Y-122333414D01*
X140397570Y-122592170D01*
X140208000Y-122875881D01*
X140018430Y-122592170D01*
X139522724Y-122260950D01*
X138938000Y-122144641D01*
X138353275Y-122260950D01*
X137857570Y-122592170D01*
X137526350Y-123087876D01*
X137439400Y-123525003D01*
X137439400Y-124124998D01*
X137526350Y-124562125D01*
X137857570Y-125057830D01*
X138353276Y-125389050D01*
X138938000Y-125505359D01*
X139522725Y-125389050D01*
X140018430Y-125057830D01*
X140208000Y-124774119D01*
X140397570Y-125057830D01*
X140893276Y-125389050D01*
X141478000Y-125505359D01*
X142062725Y-125389050D01*
X142391541Y-125169342D01*
X142914671Y-125692473D01*
X142957071Y-125755929D01*
X143020527Y-125798329D01*
X143208462Y-125923904D01*
X143256605Y-125933480D01*
X143430148Y-125968000D01*
X143430152Y-125968000D01*
X143505000Y-125982888D01*
X143579848Y-125968000D01*
X149535153Y-125968000D01*
X149610000Y-125982888D01*
X149684847Y-125968000D01*
X149684852Y-125968000D01*
X149906537Y-125923904D01*
X150157929Y-125755929D01*
X150200331Y-125692470D01*
X150727048Y-125165753D01*
X150735964Y-125175732D01*
X151263209Y-125429709D01*
X151278974Y-125432358D01*
X151511000Y-125311217D01*
X151511000Y-123952000D01*
X151765000Y-123952000D01*
X151765000Y-125311217D01*
X151997026Y-125432358D01*
X152012791Y-125429709D01*
X152540036Y-125175732D01*
X152908000Y-124763892D01*
X153275964Y-125175732D01*
X153803209Y-125429709D01*
X153818974Y-125432358D01*
X154051000Y-125311217D01*
X154051000Y-123952000D01*
X151765000Y-123952000D01*
X151511000Y-123952000D01*
X151491000Y-123952000D01*
X151491000Y-123698000D01*
X151511000Y-123698000D01*
X151511000Y-123678000D01*
X151765000Y-123678000D01*
X151765000Y-123698000D01*
X154051000Y-123698000D01*
X154051000Y-122338783D01*
X154305000Y-122338783D01*
X154305000Y-123698000D01*
X154325000Y-123698000D01*
X154325000Y-123952000D01*
X154305000Y-123952000D01*
X154305000Y-125311217D01*
X154537026Y-125432358D01*
X154552791Y-125429709D01*
X155080036Y-125175732D01*
X155444090Y-124768268D01*
X155637570Y-125057830D01*
X156133276Y-125389050D01*
X156718000Y-125505359D01*
X157302725Y-125389050D01*
X157798430Y-125057830D01*
X158129650Y-124562124D01*
X158216600Y-124124997D01*
X158216600Y-123525003D01*
X160299400Y-123525003D01*
X160299400Y-124124998D01*
X160386350Y-124562125D01*
X160717570Y-125057830D01*
X161213276Y-125389050D01*
X161798000Y-125505359D01*
X162382725Y-125389050D01*
X162878430Y-125057830D01*
X163068000Y-124774119D01*
X163257570Y-125057830D01*
X163753276Y-125389050D01*
X164338000Y-125505359D01*
X164922725Y-125389050D01*
X165418430Y-125057830D01*
X165608000Y-124774119D01*
X165797570Y-125057830D01*
X166293276Y-125389050D01*
X166878000Y-125505359D01*
X167462725Y-125389050D01*
X167958430Y-125057830D01*
X168148000Y-124774119D01*
X168337570Y-125057830D01*
X168833276Y-125389050D01*
X169418000Y-125505359D01*
X170002725Y-125389050D01*
X170498430Y-125057830D01*
X170688000Y-124774119D01*
X170877570Y-125057830D01*
X171373276Y-125389050D01*
X171958000Y-125505359D01*
X172542725Y-125389050D01*
X173038430Y-125057830D01*
X173228000Y-124774119D01*
X173417570Y-125057830D01*
X173913276Y-125389050D01*
X174498000Y-125505359D01*
X175082725Y-125389050D01*
X175578430Y-125057830D01*
X175909650Y-124562124D01*
X175996600Y-124124997D01*
X175996600Y-123525002D01*
X175909650Y-123087875D01*
X175578430Y-122592170D01*
X175082724Y-122260950D01*
X174498000Y-122144641D01*
X173913275Y-122260950D01*
X173417570Y-122592170D01*
X173228000Y-122875881D01*
X173038430Y-122592170D01*
X172542724Y-122260950D01*
X171958000Y-122144641D01*
X171373275Y-122260950D01*
X170877570Y-122592170D01*
X170688000Y-122875881D01*
X170498430Y-122592170D01*
X170002724Y-122260950D01*
X169418000Y-122144641D01*
X168833275Y-122260950D01*
X168337570Y-122592170D01*
X168148000Y-122875881D01*
X167958430Y-122592170D01*
X167462724Y-122260950D01*
X166878000Y-122144641D01*
X166293275Y-122260950D01*
X165797570Y-122592170D01*
X165608000Y-122875881D01*
X165418430Y-122592170D01*
X164922724Y-122260950D01*
X164338000Y-122144641D01*
X163753275Y-122260950D01*
X163257570Y-122592170D01*
X163068000Y-122875881D01*
X162878430Y-122592170D01*
X162382724Y-122260950D01*
X161798000Y-122144641D01*
X161213275Y-122260950D01*
X160717570Y-122592170D01*
X160386350Y-123087876D01*
X160299400Y-123525003D01*
X158216600Y-123525003D01*
X158216600Y-123525002D01*
X158129650Y-123087875D01*
X157798430Y-122592170D01*
X157302724Y-122260950D01*
X156718000Y-122144641D01*
X156133275Y-122260950D01*
X155637570Y-122592170D01*
X155444091Y-122881733D01*
X155080036Y-122474268D01*
X154552791Y-122220291D01*
X154537026Y-122217642D01*
X154305000Y-122338783D01*
X154051000Y-122338783D01*
X153818974Y-122217642D01*
X153803209Y-122220291D01*
X153275964Y-122474268D01*
X152908000Y-122886108D01*
X152540036Y-122474268D01*
X152327104Y-122371697D01*
X156870802Y-117828000D01*
X158868124Y-117828000D01*
X158942942Y-117842888D01*
X159017819Y-117828000D01*
X159017852Y-117828000D01*
X159099332Y-117811793D01*
X159239483Y-117783926D01*
X159239507Y-117783910D01*
X159239537Y-117783904D01*
X159371743Y-117695566D01*
X159427428Y-117658365D01*
X159427446Y-117658347D01*
X159490929Y-117615929D01*
X159533315Y-117552494D01*
X165694113Y-111392623D01*
X165697423Y-111397577D01*
X166049758Y-111633000D01*
X165697423Y-111868423D01*
X165380260Y-112343091D01*
X165268887Y-112903000D01*
X165380260Y-113462909D01*
X165697423Y-113937577D01*
X166172091Y-114254740D01*
X166590667Y-114338000D01*
X167673333Y-114338000D01*
X168091909Y-114254740D01*
X168566577Y-113937577D01*
X168883740Y-113462909D01*
X168995113Y-112903000D01*
X168883740Y-112343091D01*
X168566577Y-111868423D01*
X168214242Y-111633000D01*
X168566577Y-111397577D01*
X168883740Y-110922909D01*
X168995113Y-110363000D01*
X168883740Y-109803091D01*
X168566577Y-109328423D01*
X168214242Y-109093000D01*
X168566577Y-108857577D01*
X168883740Y-108382909D01*
X168995113Y-107823000D01*
X168883740Y-107263091D01*
X168566577Y-106788423D01*
X168214242Y-106553000D01*
X168566577Y-106317577D01*
X168883740Y-105842909D01*
X168995113Y-105283000D01*
X168883740Y-104723091D01*
X168566577Y-104248423D01*
X168091909Y-103931260D01*
X167673333Y-103848000D01*
X166590667Y-103848000D01*
X166172091Y-103931260D01*
X165697423Y-104248423D01*
X165511168Y-104527173D01*
X165310463Y-104567096D01*
X165059071Y-104735071D01*
X164891096Y-104986463D01*
X164832111Y-105283000D01*
X164847000Y-105357852D01*
X164847001Y-110090164D01*
X158628231Y-116308000D01*
X156630848Y-116308000D01*
X156556000Y-116293112D01*
X156481152Y-116308000D01*
X156481148Y-116308000D01*
X156259463Y-116352096D01*
X156008071Y-116520071D01*
X155965671Y-116583527D01*
X150045710Y-122503489D01*
X149682724Y-122260950D01*
X149098000Y-122144641D01*
X148513275Y-122260950D01*
X148017570Y-122592170D01*
X147828000Y-122875881D01*
X147638430Y-122592170D01*
X147142724Y-122260950D01*
X146558000Y-122144641D01*
X146377296Y-122180585D01*
X137636237Y-113439527D01*
X137578493Y-113353107D01*
X137236137Y-113124352D01*
X136934235Y-113064300D01*
X136934234Y-113064300D01*
X136832300Y-113044024D01*
X136730366Y-113064300D01*
X134085440Y-113064300D01*
X134085440Y-111799000D01*
X134036157Y-111551235D01*
X133895809Y-111341191D01*
X133685765Y-111200843D01*
X133640381Y-111191816D01*
X133658625Y-111179625D01*
X133986839Y-110688418D01*
X134102092Y-110109000D01*
X133986839Y-109529582D01*
X133658625Y-109038375D01*
X133360239Y-108839000D01*
X133658625Y-108639625D01*
X133986839Y-108148418D01*
X134102092Y-107569000D01*
X133986839Y-106989582D01*
X133758628Y-106648039D01*
X136638096Y-106648039D01*
X136655633Y-106730819D01*
X136925500Y-107223896D01*
X137363517Y-107576166D01*
X137903000Y-107734000D01*
X138303000Y-107734000D01*
X138303000Y-106426000D01*
X138557000Y-106426000D01*
X138557000Y-107734000D01*
X138957000Y-107734000D01*
X139496483Y-107576166D01*
X139934500Y-107223896D01*
X140204367Y-106730819D01*
X140221904Y-106648039D01*
X140099915Y-106426000D01*
X138557000Y-106426000D01*
X138303000Y-106426000D01*
X136760085Y-106426000D01*
X136638096Y-106648039D01*
X133758628Y-106648039D01*
X133658625Y-106498375D01*
X133360239Y-106299000D01*
X133658625Y-106099625D01*
X133986839Y-105608418D01*
X134102092Y-105029000D01*
X133986839Y-104449582D01*
X133658625Y-103958375D01*
X133360239Y-103759000D01*
X133658625Y-103559625D01*
X133986839Y-103068418D01*
X134102092Y-102489000D01*
X133986839Y-101909582D01*
X133855778Y-101713435D01*
X133902929Y-101681929D01*
X133945331Y-101618470D01*
X136619633Y-98944169D01*
X136678260Y-99238909D01*
X136995423Y-99713577D01*
X137347758Y-99949000D01*
X136995423Y-100184423D01*
X136678260Y-100659091D01*
X136566887Y-101219000D01*
X136678260Y-101778909D01*
X136995423Y-102253577D01*
X137347758Y-102489000D01*
X136995423Y-102724423D01*
X136678260Y-103199091D01*
X136566887Y-103759000D01*
X136678260Y-104318909D01*
X136995423Y-104793577D01*
X137351499Y-105031499D01*
X136925500Y-105374104D01*
X136655633Y-105867181D01*
X136638096Y-105949961D01*
X136760085Y-106172000D01*
X138303000Y-106172000D01*
X138303000Y-106152000D01*
X138557000Y-106152000D01*
X138557000Y-106172000D01*
X140099915Y-106172000D01*
X140221904Y-105949961D01*
X140204367Y-105867181D01*
X139934500Y-105374104D01*
X139508501Y-105031499D01*
X139864577Y-104793577D01*
X140181740Y-104318909D01*
X140293113Y-103759000D01*
X140181740Y-103199091D01*
X139864577Y-102724423D01*
X139512242Y-102489000D01*
X139864577Y-102253577D01*
X140181740Y-101778909D01*
X140293113Y-101219000D01*
X140181740Y-100659091D01*
X139864577Y-100184423D01*
X139512242Y-99949000D01*
X139864577Y-99713577D01*
X140181740Y-99238909D01*
X140293113Y-98679000D01*
X140194186Y-98181663D01*
X140257847Y-98169000D01*
X140257852Y-98169000D01*
X140479537Y-98124904D01*
X140730929Y-97956929D01*
X140773331Y-97893470D01*
X144382227Y-94284575D01*
X144615423Y-94633577D01*
X144967758Y-94869000D01*
X144615423Y-95104423D01*
X144298260Y-95579091D01*
X144186887Y-96139000D01*
X144298260Y-96698909D01*
X144615423Y-97173577D01*
X144967758Y-97409000D01*
X144615423Y-97644423D01*
X144298260Y-98119091D01*
X144186887Y-98679000D01*
X144298260Y-99238909D01*
X144615423Y-99713577D01*
X144967758Y-99949000D01*
X144615423Y-100184423D01*
X144298260Y-100659091D01*
X144186887Y-101219000D01*
X144298260Y-101778909D01*
X144615423Y-102253577D01*
X144967758Y-102489000D01*
X144615423Y-102724423D01*
X144298260Y-103199091D01*
X144186887Y-103759000D01*
X144298260Y-104318909D01*
X144615423Y-104793577D01*
X144967758Y-105029000D01*
X144615423Y-105264423D01*
X144298260Y-105739091D01*
X144186887Y-106299000D01*
X144298260Y-106858909D01*
X144615423Y-107333577D01*
X145090091Y-107650740D01*
X145508667Y-107734000D01*
X146591333Y-107734000D01*
X147009909Y-107650740D01*
X147484577Y-107333577D01*
X147801740Y-106858909D01*
X147913113Y-106299000D01*
X147801740Y-105739091D01*
X147484577Y-105264423D01*
X147132242Y-105029000D01*
X147484577Y-104793577D01*
X147801740Y-104318909D01*
X147888918Y-103880638D01*
X157396683Y-113387492D01*
X157439071Y-113450929D01*
X157502539Y-113493337D01*
X157502555Y-113493353D01*
X157573511Y-113540759D01*
X157690463Y-113618904D01*
X157690482Y-113618908D01*
X157690497Y-113618918D01*
X157827861Y-113646234D01*
X157891168Y-113658827D01*
X158077423Y-113937577D01*
X158552091Y-114254740D01*
X158970667Y-114338000D01*
X160053333Y-114338000D01*
X160471909Y-114254740D01*
X160946577Y-113937577D01*
X161263740Y-113462909D01*
X161375113Y-112903000D01*
X161263740Y-112343091D01*
X160946577Y-111868423D01*
X160594242Y-111633000D01*
X160946577Y-111397577D01*
X161263740Y-110922909D01*
X161375113Y-110363000D01*
X161263740Y-109803091D01*
X160946577Y-109328423D01*
X160594242Y-109093000D01*
X160946577Y-108857577D01*
X161263740Y-108382909D01*
X161375113Y-107823000D01*
X161263740Y-107263091D01*
X160946577Y-106788423D01*
X160825894Y-106707785D01*
X160959765Y-106681157D01*
X161169809Y-106540809D01*
X161310157Y-106330765D01*
X161359440Y-106083000D01*
X161359440Y-104483000D01*
X161310157Y-104235235D01*
X161169809Y-104025191D01*
X160959765Y-103884843D01*
X160712000Y-103835560D01*
X158312000Y-103835560D01*
X158064235Y-103884843D01*
X157854191Y-104025191D01*
X157713843Y-104235235D01*
X157664560Y-104483000D01*
X157664560Y-106083000D01*
X157713843Y-106330765D01*
X157854191Y-106540809D01*
X158064235Y-106681157D01*
X158198106Y-106707785D01*
X158077423Y-106788423D01*
X158057316Y-106818515D01*
X149433331Y-98194530D01*
X149390929Y-98131071D01*
X149139537Y-97963096D01*
X148917852Y-97919000D01*
X148917847Y-97919000D01*
X148843000Y-97904112D01*
X148768153Y-97919000D01*
X147668043Y-97919000D01*
X147484577Y-97644423D01*
X147132242Y-97409000D01*
X147484577Y-97173577D01*
X147670832Y-96894827D01*
X147871537Y-96854904D01*
X148122929Y-96686929D01*
X148165331Y-96623470D01*
X149921802Y-94867000D01*
X157893957Y-94867000D01*
X158077423Y-95141577D01*
X158552091Y-95458740D01*
X158970667Y-95542000D01*
X160053333Y-95542000D01*
X160471909Y-95458740D01*
X160946577Y-95141577D01*
X161263740Y-94666909D01*
X161375113Y-94107000D01*
X161263740Y-93547091D01*
X160946577Y-93072423D01*
X160594242Y-92837000D01*
X160946577Y-92601577D01*
X161263740Y-92126909D01*
X161375113Y-91567000D01*
X161263740Y-91007091D01*
X160946577Y-90532423D01*
X160594242Y-90297000D01*
X160946577Y-90061577D01*
X161263740Y-89586909D01*
X161375113Y-89027000D01*
X161263740Y-88467091D01*
X160946577Y-87992423D01*
X160825894Y-87911785D01*
X160959765Y-87885157D01*
X161169809Y-87744809D01*
X161310157Y-87534765D01*
X161359440Y-87287000D01*
X161359440Y-86487000D01*
X165268887Y-86487000D01*
X165380260Y-87046909D01*
X165697423Y-87521577D01*
X166049758Y-87757000D01*
X165697423Y-87992423D01*
X165380260Y-88467091D01*
X165268887Y-89027000D01*
X165380260Y-89586909D01*
X165697423Y-90061577D01*
X166049758Y-90297000D01*
X165697423Y-90532423D01*
X165380260Y-91007091D01*
X165268887Y-91567000D01*
X165380260Y-92126909D01*
X165697423Y-92601577D01*
X166049758Y-92837000D01*
X165697423Y-93072423D01*
X165380260Y-93547091D01*
X165268887Y-94107000D01*
X165380260Y-94666909D01*
X165697423Y-95141577D01*
X166172091Y-95458740D01*
X166590667Y-95542000D01*
X167673333Y-95542000D01*
X168091909Y-95458740D01*
X168566577Y-95141577D01*
X168883740Y-94666909D01*
X168995113Y-94107000D01*
X168883740Y-93547091D01*
X168566577Y-93072423D01*
X168214242Y-92837000D01*
X168566577Y-92601577D01*
X168883740Y-92126909D01*
X168995113Y-91567000D01*
X168883740Y-91007091D01*
X168566577Y-90532423D01*
X168214242Y-90297000D01*
X168566577Y-90061577D01*
X168883740Y-89586909D01*
X168995113Y-89027000D01*
X168883740Y-88467091D01*
X168566577Y-87992423D01*
X168214242Y-87757000D01*
X168566577Y-87521577D01*
X168883740Y-87046909D01*
X168995113Y-86487000D01*
X168883740Y-85927091D01*
X168566577Y-85452423D01*
X168091909Y-85135260D01*
X167673333Y-85052000D01*
X166590667Y-85052000D01*
X166172091Y-85135260D01*
X165697423Y-85452423D01*
X165380260Y-85927091D01*
X165268887Y-86487000D01*
X161359440Y-86487000D01*
X161359440Y-85687000D01*
X161310157Y-85439235D01*
X161169809Y-85229191D01*
X160959765Y-85088843D01*
X160712000Y-85039560D01*
X158312000Y-85039560D01*
X158064235Y-85088843D01*
X157854191Y-85229191D01*
X157713843Y-85439235D01*
X157664560Y-85687000D01*
X157664560Y-87287000D01*
X157713843Y-87534765D01*
X157854191Y-87744809D01*
X158064235Y-87885157D01*
X158198106Y-87911785D01*
X158077423Y-87992423D01*
X157893957Y-88267000D01*
X152221846Y-88267000D01*
X152146999Y-88252112D01*
X152072152Y-88267000D01*
X152072148Y-88267000D01*
X151947937Y-88291707D01*
X156013481Y-84226024D01*
X156076929Y-84183629D01*
X156119331Y-84120170D01*
X156119338Y-84120163D01*
X156173846Y-84038583D01*
X156244904Y-83932237D01*
X156244905Y-83932231D01*
X156244909Y-83932225D01*
X156269666Y-83807752D01*
X156289000Y-83710552D01*
X156289000Y-83710542D01*
X156303888Y-83635687D01*
X156289000Y-83560845D01*
X156289000Y-77160025D01*
X156718000Y-77245359D01*
X157302725Y-77129050D01*
X157623311Y-76914841D01*
X158106737Y-77397972D01*
X158149071Y-77461329D01*
X158212623Y-77503793D01*
X158212707Y-77503877D01*
X158275204Y-77545609D01*
X158400463Y-77629304D01*
X158400582Y-77629328D01*
X158400681Y-77629394D01*
X158546563Y-77658365D01*
X158622148Y-77673400D01*
X158622270Y-77673400D01*
X158697237Y-77688288D01*
X158771965Y-77673400D01*
X159676153Y-77673400D01*
X159751000Y-77688288D01*
X159825847Y-77673400D01*
X159825852Y-77673400D01*
X160047537Y-77629304D01*
X160298929Y-77461329D01*
X160341331Y-77397870D01*
X160851729Y-76887472D01*
X161213276Y-77129050D01*
X161798000Y-77245359D01*
X162382725Y-77129050D01*
X162878430Y-76797830D01*
X163068000Y-76514119D01*
X163257570Y-76797830D01*
X163753276Y-77129050D01*
X164338000Y-77245359D01*
X164922725Y-77129050D01*
X165243987Y-76914389D01*
X165720673Y-77391075D01*
X165763071Y-77454529D01*
X165826524Y-77496927D01*
X165826526Y-77496929D01*
X165930415Y-77566345D01*
X166014463Y-77622504D01*
X166236148Y-77666600D01*
X166236152Y-77666600D01*
X166310999Y-77681488D01*
X166385846Y-77666600D01*
X172386130Y-77666600D01*
X172460955Y-77681488D01*
X172535825Y-77666600D01*
X172535852Y-77666600D01*
X172619828Y-77649896D01*
X172757495Y-77622521D01*
X172757513Y-77622509D01*
X172757537Y-77622504D01*
X172887404Y-77535730D01*
X172945437Y-77496958D01*
X172945452Y-77496943D01*
X173008929Y-77454529D01*
X173051318Y-77391090D01*
X173553687Y-76888780D01*
X173913276Y-77129050D01*
X174498000Y-77245359D01*
X175082725Y-77129050D01*
X175578430Y-76797830D01*
X175909650Y-76302124D01*
X175996600Y-75864997D01*
X175996600Y-75265002D01*
X175909650Y-74827875D01*
X175578430Y-74332170D01*
X175522801Y-74295000D01*
X175578430Y-74257830D01*
X175909650Y-73762124D01*
X175996600Y-73324997D01*
X175996600Y-72725002D01*
X175909650Y-72287875D01*
X175578430Y-71792170D01*
X175082724Y-71460950D01*
X174498000Y-71344641D01*
X173913275Y-71460950D01*
X173417570Y-71792170D01*
X173228000Y-72075881D01*
X173038430Y-71792170D01*
X172542724Y-71460950D01*
X171958000Y-71344641D01*
X171373275Y-71460950D01*
X171029572Y-71690605D01*
X170069354Y-70730165D01*
X170026929Y-70666671D01*
X169899538Y-70581551D01*
X169775620Y-70498731D01*
X169775576Y-70498722D01*
X169775537Y-70498696D01*
X169620587Y-70467874D01*
X169479090Y-70439712D01*
X169404197Y-70454600D01*
X159270781Y-70454600D01*
X159195865Y-70439712D01*
X159051266Y-70468500D01*
X158899463Y-70498696D01*
X158899405Y-70498735D01*
X158899338Y-70498748D01*
X158772505Y-70583527D01*
X158648071Y-70666671D01*
X158605635Y-70730181D01*
X157886827Y-71449238D01*
X157829365Y-71410843D01*
X157581600Y-71361560D01*
X157110490Y-71361560D01*
X162284590Y-66187700D01*
X162600582Y-66398839D01*
X163033744Y-66485000D01*
X163326256Y-66485000D01*
X163759418Y-66398839D01*
X164250625Y-66070625D01*
X164450000Y-65772239D01*
X164649375Y-66070625D01*
X165140582Y-66398839D01*
X165573744Y-66485000D01*
X165866256Y-66485000D01*
X166299418Y-66398839D01*
X166790625Y-66070625D01*
X166990000Y-65772239D01*
X167189375Y-66070625D01*
X167680582Y-66398839D01*
X168113744Y-66485000D01*
X168406256Y-66485000D01*
X168839418Y-66398839D01*
X169330625Y-66070625D01*
X169530000Y-65772239D01*
X169729375Y-66070625D01*
X170220582Y-66398839D01*
X170653744Y-66485000D01*
X170946256Y-66485000D01*
X171379418Y-66398839D01*
X171870625Y-66070625D01*
X172070000Y-65772239D01*
X172269375Y-66070625D01*
X172760582Y-66398839D01*
X173193744Y-66485000D01*
X173486256Y-66485000D01*
X173919418Y-66398839D01*
X174410625Y-66070625D01*
X174610000Y-65772239D01*
X174809375Y-66070625D01*
X175300582Y-66398839D01*
X175733744Y-66485000D01*
X176026256Y-66485000D01*
X176459418Y-66398839D01*
X176950625Y-66070625D01*
X177150000Y-65772239D01*
X177349375Y-66070625D01*
X177840582Y-66398839D01*
X178273744Y-66485000D01*
X178566256Y-66485000D01*
X178999418Y-66398839D01*
X179490625Y-66070625D01*
X179690000Y-65772239D01*
X179889375Y-66070625D01*
X180380582Y-66398839D01*
X180813744Y-66485000D01*
X181106256Y-66485000D01*
X181539418Y-66398839D01*
X182030625Y-66070625D01*
X182230000Y-65772239D01*
X182429375Y-66070625D01*
X182920582Y-66398839D01*
X183353744Y-66485000D01*
X183646256Y-66485000D01*
X184079418Y-66398839D01*
X184570625Y-66070625D01*
X184770000Y-65772239D01*
X184969375Y-66070625D01*
X185460582Y-66398839D01*
X185893744Y-66485000D01*
X186186256Y-66485000D01*
X186619418Y-66398839D01*
X187110625Y-66070625D01*
X187323843Y-65751522D01*
X187384817Y-65881358D01*
X187813076Y-66271645D01*
X188223110Y-66441476D01*
X188453000Y-66320155D01*
X188453000Y-65127000D01*
X188433000Y-65127000D01*
X188433000Y-64873000D01*
X188453000Y-64873000D01*
X188453000Y-63679845D01*
X188707000Y-63679845D01*
X188707000Y-64873000D01*
X188727000Y-64873000D01*
X188727000Y-65127000D01*
X188707000Y-65127000D01*
X188707000Y-66320155D01*
X188936890Y-66441476D01*
X189346924Y-66271645D01*
X189775183Y-65881358D01*
X189836157Y-65751522D01*
X190049375Y-66070625D01*
X190540582Y-66398839D01*
X190973744Y-66485000D01*
X191266256Y-66485000D01*
X191699418Y-66398839D01*
X192190625Y-66070625D01*
X192518839Y-65579418D01*
X192634092Y-65000000D01*
X192518839Y-64420582D01*
X192190625Y-63929375D01*
X191699418Y-63601161D01*
X191266256Y-63515000D01*
X190973744Y-63515000D01*
X190540582Y-63601161D01*
X190049375Y-63929375D01*
X189836157Y-64248478D01*
X189775183Y-64118642D01*
X189346924Y-63728355D01*
X188936890Y-63558524D01*
X188707000Y-63679845D01*
X188453000Y-63679845D01*
X188223110Y-63558524D01*
X187813076Y-63728355D01*
X187384817Y-64118642D01*
X187323843Y-64248478D01*
X187110625Y-63929375D01*
X186619418Y-63601161D01*
X186186256Y-63515000D01*
X185893744Y-63515000D01*
X185460582Y-63601161D01*
X184969375Y-63929375D01*
X184770000Y-64227761D01*
X184570625Y-63929375D01*
X184079418Y-63601161D01*
X183646256Y-63515000D01*
X183353744Y-63515000D01*
X182920582Y-63601161D01*
X182429375Y-63929375D01*
X182230000Y-64227761D01*
X182030625Y-63929375D01*
X181539418Y-63601161D01*
X181106256Y-63515000D01*
X180813744Y-63515000D01*
X180380582Y-63601161D01*
X179889375Y-63929375D01*
X179690000Y-64227761D01*
X179490625Y-63929375D01*
X178999418Y-63601161D01*
X178566256Y-63515000D01*
X178273744Y-63515000D01*
X177840582Y-63601161D01*
X177349375Y-63929375D01*
X177150000Y-64227761D01*
X176950625Y-63929375D01*
X176459418Y-63601161D01*
X176026256Y-63515000D01*
X175733744Y-63515000D01*
X175300582Y-63601161D01*
X174809375Y-63929375D01*
X174610000Y-64227761D01*
X174410625Y-63929375D01*
X173919418Y-63601161D01*
X173486256Y-63515000D01*
X173193744Y-63515000D01*
X172760582Y-63601161D01*
X172269375Y-63929375D01*
X172070000Y-64227761D01*
X171870625Y-63929375D01*
X171379418Y-63601161D01*
X170946256Y-63515000D01*
X170653744Y-63515000D01*
X170220582Y-63601161D01*
X169729375Y-63929375D01*
X169530000Y-64227761D01*
X169330625Y-63929375D01*
X168839418Y-63601161D01*
X168406256Y-63515000D01*
X168113744Y-63515000D01*
X167680582Y-63601161D01*
X167349472Y-63822401D01*
X165926317Y-62399409D01*
X165883929Y-62335971D01*
X165820455Y-62293559D01*
X165820439Y-62293543D01*
X165760940Y-62253792D01*
X165632537Y-62167996D01*
X165632513Y-62167991D01*
X165632496Y-62167980D01*
X165500497Y-62141731D01*
X165410852Y-62123900D01*
X165410825Y-62123900D01*
X165335956Y-62109012D01*
X165261131Y-62123900D01*
X148455901Y-62123900D01*
X148381108Y-62109012D01*
X148306206Y-62123900D01*
X148306148Y-62123900D01*
X148228770Y-62139291D01*
X148084562Y-62167955D01*
X148084517Y-62167985D01*
X148084463Y-62167996D01*
X147961322Y-62250276D01*
X147896609Y-62293503D01*
X147896569Y-62293543D01*
X147833071Y-62335971D01*
X147790702Y-62399380D01*
X146344548Y-63845133D01*
X145979418Y-63601161D01*
X145546256Y-63515000D01*
X145253744Y-63515000D01*
X144820582Y-63601161D01*
X144329375Y-63929375D01*
X144130000Y-64227761D01*
X143930625Y-63929375D01*
X143439418Y-63601161D01*
X143426804Y-63598652D01*
X143497000Y-63429183D01*
X143497000Y-63057217D01*
X143354655Y-62713565D01*
X143091635Y-62450545D01*
X142747983Y-62308200D01*
X142376017Y-62308200D01*
X142032365Y-62450545D01*
X141999710Y-62483200D01*
X127719916Y-62483200D01*
X127645139Y-62468312D01*
X127570222Y-62483200D01*
X127570148Y-62483200D01*
X127491129Y-62498918D01*
X127348591Y-62527244D01*
X127348534Y-62527282D01*
X127348463Y-62527296D01*
X127221789Y-62611937D01*
X127160633Y-62652784D01*
X127160584Y-62652833D01*
X127097071Y-62695271D01*
X127054709Y-62758670D01*
X125990568Y-63822429D01*
X125659418Y-63601161D01*
X125226256Y-63515000D01*
X124933744Y-63515000D01*
X124500582Y-63601161D01*
X124009375Y-63929375D01*
X123810000Y-64227761D01*
X123610625Y-63929375D01*
X123119418Y-63601161D01*
X122686256Y-63515000D01*
X122393744Y-63515000D01*
X121960582Y-63601161D01*
X121469375Y-63929375D01*
X121457184Y-63947619D01*
X121448157Y-63902235D01*
X121307809Y-63692191D01*
X121097765Y-63551843D01*
X120850000Y-63502560D01*
X119150000Y-63502560D01*
X118902235Y-63551843D01*
X118692191Y-63692191D01*
X118551843Y-63902235D01*
X118502560Y-64150000D01*
X113710000Y-64150000D01*
X113710000Y-44050000D01*
X118502560Y-44050000D01*
X118502560Y-45750000D01*
X118551843Y-45997765D01*
X118692191Y-46207809D01*
X118902235Y-46348157D01*
X119150000Y-46397440D01*
X120850000Y-46397440D01*
X121097765Y-46348157D01*
X121307809Y-46207809D01*
X121448157Y-45997765D01*
X121468739Y-45894292D01*
X121773076Y-46171645D01*
X122183110Y-46341476D01*
X122413000Y-46220155D01*
X122413000Y-45027000D01*
X122393000Y-45027000D01*
X122393000Y-44773000D01*
X122413000Y-44773000D01*
X122413000Y-43579845D01*
X122667000Y-43579845D01*
X122667000Y-44773000D01*
X122687000Y-44773000D01*
X122687000Y-45027000D01*
X122667000Y-45027000D01*
X122667000Y-46220155D01*
X122896890Y-46341476D01*
X123306924Y-46171645D01*
X123735183Y-45781358D01*
X123796157Y-45651522D01*
X124009375Y-45970625D01*
X124500582Y-46298839D01*
X124933744Y-46385000D01*
X125226256Y-46385000D01*
X125659418Y-46298839D01*
X126150625Y-45970625D01*
X126350000Y-45672239D01*
X126549375Y-45970625D01*
X127040582Y-46298839D01*
X127473744Y-46385000D01*
X127766256Y-46385000D01*
X128199418Y-46298839D01*
X128690625Y-45970625D01*
X128890000Y-45672239D01*
X129089375Y-45970625D01*
X129580582Y-46298839D01*
X130013744Y-46385000D01*
X130306256Y-46385000D01*
X130739418Y-46298839D01*
X131230625Y-45970625D01*
X131430000Y-45672239D01*
X131629375Y-45970625D01*
X132120582Y-46298839D01*
X132553744Y-46385000D01*
X132846256Y-46385000D01*
X133279418Y-46298839D01*
X133770625Y-45970625D01*
X133970000Y-45672239D01*
X134169375Y-45970625D01*
X134660582Y-46298839D01*
X135093744Y-46385000D01*
X135386256Y-46385000D01*
X135819418Y-46298839D01*
X136310625Y-45970625D01*
X136510000Y-45672239D01*
X136709375Y-45970625D01*
X137200582Y-46298839D01*
X137633744Y-46385000D01*
X137926256Y-46385000D01*
X138359418Y-46298839D01*
X138850625Y-45970625D01*
X139050000Y-45672239D01*
X139249375Y-45970625D01*
X139740582Y-46298839D01*
X140173744Y-46385000D01*
X140466256Y-46385000D01*
X140899418Y-46298839D01*
X141390625Y-45970625D01*
X141590000Y-45672239D01*
X141789375Y-45970625D01*
X142280582Y-46298839D01*
X142713744Y-46385000D01*
X143006256Y-46385000D01*
X143439418Y-46298839D01*
X143930625Y-45970625D01*
X144130000Y-45672239D01*
X144329375Y-45970625D01*
X144820582Y-46298839D01*
X145253744Y-46385000D01*
X145546256Y-46385000D01*
X145979418Y-46298839D01*
X146470625Y-45970625D01*
X146670000Y-45672239D01*
X146869375Y-45970625D01*
X147360582Y-46298839D01*
X147793744Y-46385000D01*
X148086256Y-46385000D01*
X148519418Y-46298839D01*
X149010625Y-45970625D01*
X149210000Y-45672239D01*
X149409375Y-45970625D01*
X149900582Y-46298839D01*
X150333744Y-46385000D01*
X150626256Y-46385000D01*
X151059418Y-46298839D01*
X151550625Y-45970625D01*
X151750000Y-45672239D01*
X151949375Y-45970625D01*
X152440582Y-46298839D01*
X152873744Y-46385000D01*
X153166256Y-46385000D01*
X153599418Y-46298839D01*
X154090625Y-45970625D01*
X154290000Y-45672239D01*
X154489375Y-45970625D01*
X154980582Y-46298839D01*
X155413744Y-46385000D01*
X155706256Y-46385000D01*
X156139418Y-46298839D01*
X156630625Y-45970625D01*
X156830000Y-45672239D01*
X157029375Y-45970625D01*
X157520582Y-46298839D01*
X157953744Y-46385000D01*
X158246256Y-46385000D01*
X158679418Y-46298839D01*
X159170625Y-45970625D01*
X159370000Y-45672239D01*
X159569375Y-45970625D01*
X160060582Y-46298839D01*
X160493744Y-46385000D01*
X160786256Y-46385000D01*
X161219418Y-46298839D01*
X161710625Y-45970625D01*
X161910000Y-45672239D01*
X162109375Y-45970625D01*
X162600582Y-46298839D01*
X163033744Y-46385000D01*
X163326256Y-46385000D01*
X163759418Y-46298839D01*
X164250625Y-45970625D01*
X164450000Y-45672239D01*
X164649375Y-45970625D01*
X165140582Y-46298839D01*
X165573744Y-46385000D01*
X165866256Y-46385000D01*
X166299418Y-46298839D01*
X166790625Y-45970625D01*
X166990000Y-45672239D01*
X167189375Y-45970625D01*
X167680582Y-46298839D01*
X168113744Y-46385000D01*
X168406256Y-46385000D01*
X168839418Y-46298839D01*
X169330625Y-45970625D01*
X169530000Y-45672239D01*
X169729375Y-45970625D01*
X170220582Y-46298839D01*
X170653744Y-46385000D01*
X170946256Y-46385000D01*
X171379418Y-46298839D01*
X171870625Y-45970625D01*
X172070000Y-45672239D01*
X172269375Y-45970625D01*
X172760582Y-46298839D01*
X173193744Y-46385000D01*
X173486256Y-46385000D01*
X173919418Y-46298839D01*
X174410625Y-45970625D01*
X174610000Y-45672239D01*
X174809375Y-45970625D01*
X175300582Y-46298839D01*
X175733744Y-46385000D01*
X176026256Y-46385000D01*
X176459418Y-46298839D01*
X176950625Y-45970625D01*
X177150000Y-45672239D01*
X177349375Y-45970625D01*
X177840582Y-46298839D01*
X178273744Y-46385000D01*
X178566256Y-46385000D01*
X178999418Y-46298839D01*
X179490625Y-45970625D01*
X179690000Y-45672239D01*
X179889375Y-45970625D01*
X180380582Y-46298839D01*
X180813744Y-46385000D01*
X181106256Y-46385000D01*
X181539418Y-46298839D01*
X182030625Y-45970625D01*
X182230000Y-45672239D01*
X182429375Y-45970625D01*
X182920582Y-46298839D01*
X183353744Y-46385000D01*
X183646256Y-46385000D01*
X184079418Y-46298839D01*
X184570625Y-45970625D01*
X184770000Y-45672239D01*
X184969375Y-45970625D01*
X185460582Y-46298839D01*
X185893744Y-46385000D01*
X186186256Y-46385000D01*
X186619418Y-46298839D01*
X187110625Y-45970625D01*
X187310000Y-45672239D01*
X187509375Y-45970625D01*
X188000582Y-46298839D01*
X188433744Y-46385000D01*
X188726256Y-46385000D01*
X189159418Y-46298839D01*
X189650625Y-45970625D01*
X189863843Y-45651522D01*
X189924817Y-45781358D01*
X190353076Y-46171645D01*
X190763110Y-46341476D01*
X190993000Y-46220155D01*
X190993000Y-45027000D01*
X191247000Y-45027000D01*
X191247000Y-46220155D01*
X191476890Y-46341476D01*
X191886924Y-46171645D01*
X192315183Y-45781358D01*
X192561486Y-45256892D01*
X192440819Y-45027000D01*
X191247000Y-45027000D01*
X190993000Y-45027000D01*
X190973000Y-45027000D01*
X190973000Y-44773000D01*
X190993000Y-44773000D01*
X190993000Y-43579845D01*
X191247000Y-43579845D01*
X191247000Y-44773000D01*
X192440819Y-44773000D01*
X192561486Y-44543108D01*
X192315183Y-44018642D01*
X191886924Y-43628355D01*
X191476890Y-43458524D01*
X191247000Y-43579845D01*
X190993000Y-43579845D01*
X190763110Y-43458524D01*
X190353076Y-43628355D01*
X189924817Y-44018642D01*
X189863843Y-44148478D01*
X189650625Y-43829375D01*
X189159418Y-43501161D01*
X188726256Y-43415000D01*
X188433744Y-43415000D01*
X188000582Y-43501161D01*
X187509375Y-43829375D01*
X187310000Y-44127761D01*
X187110625Y-43829375D01*
X186619418Y-43501161D01*
X186186256Y-43415000D01*
X185893744Y-43415000D01*
X185460582Y-43501161D01*
X184969375Y-43829375D01*
X184770000Y-44127761D01*
X184570625Y-43829375D01*
X184079418Y-43501161D01*
X183646256Y-43415000D01*
X183353744Y-43415000D01*
X182920582Y-43501161D01*
X182429375Y-43829375D01*
X182230000Y-44127761D01*
X182030625Y-43829375D01*
X181539418Y-43501161D01*
X181106256Y-43415000D01*
X180813744Y-43415000D01*
X180380582Y-43501161D01*
X179889375Y-43829375D01*
X179690000Y-44127761D01*
X179490625Y-43829375D01*
X178999418Y-43501161D01*
X178566256Y-43415000D01*
X178273744Y-43415000D01*
X177840582Y-43501161D01*
X177349375Y-43829375D01*
X177150000Y-44127761D01*
X176950625Y-43829375D01*
X176459418Y-43501161D01*
X176026256Y-43415000D01*
X175733744Y-43415000D01*
X175300582Y-43501161D01*
X174809375Y-43829375D01*
X174610000Y-44127761D01*
X174410625Y-43829375D01*
X173919418Y-43501161D01*
X173486256Y-43415000D01*
X173193744Y-43415000D01*
X172760582Y-43501161D01*
X172269375Y-43829375D01*
X172070000Y-44127761D01*
X171870625Y-43829375D01*
X171379418Y-43501161D01*
X170946256Y-43415000D01*
X170653744Y-43415000D01*
X170220582Y-43501161D01*
X169729375Y-43829375D01*
X169530000Y-44127761D01*
X169330625Y-43829375D01*
X168839418Y-43501161D01*
X168406256Y-43415000D01*
X168113744Y-43415000D01*
X167680582Y-43501161D01*
X167189375Y-43829375D01*
X166990000Y-44127761D01*
X166790625Y-43829375D01*
X166299418Y-43501161D01*
X165866256Y-43415000D01*
X165573744Y-43415000D01*
X165140582Y-43501161D01*
X164649375Y-43829375D01*
X164450000Y-44127761D01*
X164250625Y-43829375D01*
X163759418Y-43501161D01*
X163326256Y-43415000D01*
X163033744Y-43415000D01*
X162600582Y-43501161D01*
X162109375Y-43829375D01*
X161910000Y-44127761D01*
X161710625Y-43829375D01*
X161219418Y-43501161D01*
X160786256Y-43415000D01*
X160493744Y-43415000D01*
X160060582Y-43501161D01*
X159569375Y-43829375D01*
X159370000Y-44127761D01*
X159170625Y-43829375D01*
X158679418Y-43501161D01*
X158246256Y-43415000D01*
X157953744Y-43415000D01*
X157520582Y-43501161D01*
X157029375Y-43829375D01*
X156830000Y-44127761D01*
X156630625Y-43829375D01*
X156139418Y-43501161D01*
X155706256Y-43415000D01*
X155413744Y-43415000D01*
X154980582Y-43501161D01*
X154489375Y-43829375D01*
X154290000Y-44127761D01*
X154090625Y-43829375D01*
X153599418Y-43501161D01*
X153166256Y-43415000D01*
X152873744Y-43415000D01*
X152440582Y-43501161D01*
X151949375Y-43829375D01*
X151750000Y-44127761D01*
X151550625Y-43829375D01*
X151059418Y-43501161D01*
X150626256Y-43415000D01*
X150333744Y-43415000D01*
X149900582Y-43501161D01*
X149409375Y-43829375D01*
X149210000Y-44127761D01*
X149010625Y-43829375D01*
X148519418Y-43501161D01*
X148086256Y-43415000D01*
X147793744Y-43415000D01*
X147360582Y-43501161D01*
X146869375Y-43829375D01*
X146670000Y-44127761D01*
X146470625Y-43829375D01*
X145979418Y-43501161D01*
X145546256Y-43415000D01*
X145253744Y-43415000D01*
X144820582Y-43501161D01*
X144329375Y-43829375D01*
X144130000Y-44127761D01*
X143930625Y-43829375D01*
X143439418Y-43501161D01*
X143006256Y-43415000D01*
X142713744Y-43415000D01*
X142280582Y-43501161D01*
X141789375Y-43829375D01*
X141590000Y-44127761D01*
X141390625Y-43829375D01*
X140899418Y-43501161D01*
X140466256Y-43415000D01*
X140173744Y-43415000D01*
X139740582Y-43501161D01*
X139249375Y-43829375D01*
X139050000Y-44127761D01*
X138850625Y-43829375D01*
X138359418Y-43501161D01*
X137926256Y-43415000D01*
X137633744Y-43415000D01*
X137200582Y-43501161D01*
X136709375Y-43829375D01*
X136510000Y-44127761D01*
X136310625Y-43829375D01*
X135819418Y-43501161D01*
X135386256Y-43415000D01*
X135093744Y-43415000D01*
X134660582Y-43501161D01*
X134169375Y-43829375D01*
X133970000Y-44127761D01*
X133770625Y-43829375D01*
X133279418Y-43501161D01*
X132846256Y-43415000D01*
X132553744Y-43415000D01*
X132120582Y-43501161D01*
X131629375Y-43829375D01*
X131430000Y-44127761D01*
X131230625Y-43829375D01*
X130739418Y-43501161D01*
X130306256Y-43415000D01*
X130013744Y-43415000D01*
X129580582Y-43501161D01*
X129089375Y-43829375D01*
X128890000Y-44127761D01*
X128690625Y-43829375D01*
X128199418Y-43501161D01*
X127766256Y-43415000D01*
X127473744Y-43415000D01*
X127040582Y-43501161D01*
X126549375Y-43829375D01*
X126350000Y-44127761D01*
X126150625Y-43829375D01*
X125659418Y-43501161D01*
X125226256Y-43415000D01*
X124933744Y-43415000D01*
X124500582Y-43501161D01*
X124009375Y-43829375D01*
X123796157Y-44148478D01*
X123735183Y-44018642D01*
X123306924Y-43628355D01*
X122896890Y-43458524D01*
X122667000Y-43579845D01*
X122413000Y-43579845D01*
X122183110Y-43458524D01*
X121773076Y-43628355D01*
X121468739Y-43905708D01*
X121448157Y-43802235D01*
X121307809Y-43592191D01*
X121097765Y-43451843D01*
X120850000Y-43402560D01*
X119150000Y-43402560D01*
X118902235Y-43451843D01*
X118692191Y-43592191D01*
X118551843Y-43802235D01*
X118502560Y-44050000D01*
X113710000Y-44050000D01*
X113710000Y-37465000D01*
X128279908Y-37465000D01*
X128395161Y-38044418D01*
X128723375Y-38535625D01*
X129214582Y-38863839D01*
X129647744Y-38950000D01*
X129940256Y-38950000D01*
X130373418Y-38863839D01*
X130864625Y-38535625D01*
X131064000Y-38237239D01*
X131263375Y-38535625D01*
X131754582Y-38863839D01*
X132187744Y-38950000D01*
X132480256Y-38950000D01*
X132913418Y-38863839D01*
X133404625Y-38535625D01*
X133604000Y-38237239D01*
X133803375Y-38535625D01*
X134294582Y-38863839D01*
X134727744Y-38950000D01*
X135020256Y-38950000D01*
X135453418Y-38863839D01*
X135944625Y-38535625D01*
X136144000Y-38237239D01*
X136343375Y-38535625D01*
X136834582Y-38863839D01*
X137267744Y-38950000D01*
X137560256Y-38950000D01*
X137993418Y-38863839D01*
X138484625Y-38535625D01*
X138684000Y-38237239D01*
X138883375Y-38535625D01*
X139374582Y-38863839D01*
X139807744Y-38950000D01*
X140100256Y-38950000D01*
X140533418Y-38863839D01*
X141024625Y-38535625D01*
X141039096Y-38513967D01*
X141105673Y-38674698D01*
X141284301Y-38853327D01*
X141517690Y-38950000D01*
X142208250Y-38950000D01*
X142367000Y-38791250D01*
X142367000Y-37592000D01*
X142621000Y-37592000D01*
X142621000Y-38791250D01*
X142779750Y-38950000D01*
X143470310Y-38950000D01*
X143703699Y-38853327D01*
X143882327Y-38674698D01*
X143979000Y-38441309D01*
X143979000Y-37750750D01*
X143820250Y-37592000D01*
X142621000Y-37592000D01*
X142367000Y-37592000D01*
X142347000Y-37592000D01*
X142347000Y-37465000D01*
X169935908Y-37465000D01*
X170051161Y-38044418D01*
X170379375Y-38535625D01*
X170870582Y-38863839D01*
X171303744Y-38950000D01*
X171596256Y-38950000D01*
X172029418Y-38863839D01*
X172520625Y-38535625D01*
X172720000Y-38237239D01*
X172919375Y-38535625D01*
X173410582Y-38863839D01*
X173843744Y-38950000D01*
X174136256Y-38950000D01*
X174569418Y-38863839D01*
X175060625Y-38535625D01*
X175260000Y-38237239D01*
X175459375Y-38535625D01*
X175950582Y-38863839D01*
X176383744Y-38950000D01*
X176676256Y-38950000D01*
X177109418Y-38863839D01*
X177600625Y-38535625D01*
X177800000Y-38237239D01*
X177999375Y-38535625D01*
X178490582Y-38863839D01*
X178923744Y-38950000D01*
X179216256Y-38950000D01*
X179649418Y-38863839D01*
X180140625Y-38535625D01*
X180340000Y-38237239D01*
X180539375Y-38535625D01*
X181030582Y-38863839D01*
X181463744Y-38950000D01*
X181756256Y-38950000D01*
X182189418Y-38863839D01*
X182680625Y-38535625D01*
X182695096Y-38513967D01*
X182761673Y-38674698D01*
X182940301Y-38853327D01*
X183173690Y-38950000D01*
X183864250Y-38950000D01*
X184023000Y-38791250D01*
X184023000Y-37592000D01*
X184277000Y-37592000D01*
X184277000Y-38791250D01*
X184435750Y-38950000D01*
X185126310Y-38950000D01*
X185359699Y-38853327D01*
X185538327Y-38674698D01*
X185635000Y-38441309D01*
X185635000Y-37750750D01*
X185476250Y-37592000D01*
X184277000Y-37592000D01*
X184023000Y-37592000D01*
X184003000Y-37592000D01*
X184003000Y-37338000D01*
X184023000Y-37338000D01*
X184023000Y-36138750D01*
X184277000Y-36138750D01*
X184277000Y-37338000D01*
X185476250Y-37338000D01*
X185635000Y-37179250D01*
X185635000Y-36488691D01*
X185538327Y-36255302D01*
X185359699Y-36076673D01*
X185126310Y-35980000D01*
X184435750Y-35980000D01*
X184277000Y-36138750D01*
X184023000Y-36138750D01*
X183864250Y-35980000D01*
X183173690Y-35980000D01*
X182940301Y-36076673D01*
X182761673Y-36255302D01*
X182695096Y-36416033D01*
X182680625Y-36394375D01*
X182189418Y-36066161D01*
X181756256Y-35980000D01*
X181463744Y-35980000D01*
X181030582Y-36066161D01*
X180539375Y-36394375D01*
X180340000Y-36692761D01*
X180140625Y-36394375D01*
X179649418Y-36066161D01*
X179216256Y-35980000D01*
X178923744Y-35980000D01*
X178490582Y-36066161D01*
X177999375Y-36394375D01*
X177800000Y-36692761D01*
X177600625Y-36394375D01*
X177109418Y-36066161D01*
X176676256Y-35980000D01*
X176383744Y-35980000D01*
X175950582Y-36066161D01*
X175459375Y-36394375D01*
X175260000Y-36692761D01*
X175060625Y-36394375D01*
X174569418Y-36066161D01*
X174136256Y-35980000D01*
X173843744Y-35980000D01*
X173410582Y-36066161D01*
X172919375Y-36394375D01*
X172720000Y-36692761D01*
X172520625Y-36394375D01*
X172029418Y-36066161D01*
X171596256Y-35980000D01*
X171303744Y-35980000D01*
X170870582Y-36066161D01*
X170379375Y-36394375D01*
X170051161Y-36885582D01*
X169935908Y-37465000D01*
X142347000Y-37465000D01*
X142347000Y-37338000D01*
X142367000Y-37338000D01*
X142367000Y-36138750D01*
X142621000Y-36138750D01*
X142621000Y-37338000D01*
X143820250Y-37338000D01*
X143979000Y-37179250D01*
X143979000Y-36488691D01*
X143882327Y-36255302D01*
X143703699Y-36076673D01*
X143470310Y-35980000D01*
X142779750Y-35980000D01*
X142621000Y-36138750D01*
X142367000Y-36138750D01*
X142208250Y-35980000D01*
X141517690Y-35980000D01*
X141284301Y-36076673D01*
X141105673Y-36255302D01*
X141039096Y-36416033D01*
X141024625Y-36394375D01*
X140533418Y-36066161D01*
X140100256Y-35980000D01*
X139807744Y-35980000D01*
X139374582Y-36066161D01*
X138883375Y-36394375D01*
X138684000Y-36692761D01*
X138484625Y-36394375D01*
X137993418Y-36066161D01*
X137560256Y-35980000D01*
X137267744Y-35980000D01*
X136834582Y-36066161D01*
X136343375Y-36394375D01*
X136144000Y-36692761D01*
X135944625Y-36394375D01*
X135453418Y-36066161D01*
X135020256Y-35980000D01*
X134727744Y-35980000D01*
X134294582Y-36066161D01*
X133803375Y-36394375D01*
X133604000Y-36692761D01*
X133404625Y-36394375D01*
X132913418Y-36066161D01*
X132480256Y-35980000D01*
X132187744Y-35980000D01*
X131754582Y-36066161D01*
X131263375Y-36394375D01*
X131064000Y-36692761D01*
X130864625Y-36394375D01*
X130373418Y-36066161D01*
X129940256Y-35980000D01*
X129647744Y-35980000D01*
X129214582Y-36066161D01*
X128723375Y-36394375D01*
X128395161Y-36885582D01*
X128279908Y-37465000D01*
X113710000Y-37465000D01*
X113710000Y-33781468D01*
X136794026Y-33710000D01*
X195290001Y-33710000D01*
X195290000Y-69092447D01*
X195290000Y-69092447D01*
G37*
X195290000Y-69092447D02*
X182449024Y-69290000D01*
X180069925Y-69290000D01*
X180000000Y-69276091D01*
X179930074Y-69290000D01*
X179722972Y-69331195D01*
X179721832Y-69331957D01*
X179068046Y-69342015D01*
X179019600Y-69352429D01*
X178978827Y-69380589D01*
X178951934Y-69422210D01*
X178943000Y-69469000D01*
X178943000Y-88938292D01*
X178548734Y-88544026D01*
X177568499Y-88138000D01*
X176507501Y-88138000D01*
X175527266Y-88544026D01*
X174777026Y-89294266D01*
X174371000Y-90274501D01*
X174371000Y-91335499D01*
X174777026Y-92315734D01*
X175527266Y-93065974D01*
X176507501Y-93472000D01*
X177568499Y-93472000D01*
X178548734Y-93065974D01*
X178943000Y-92671708D01*
X178943000Y-116878292D01*
X178548734Y-116484026D01*
X177568499Y-116078000D01*
X176507501Y-116078000D01*
X175527266Y-116484026D01*
X174777026Y-117234266D01*
X174371000Y-118214501D01*
X174371000Y-119275499D01*
X174777026Y-120255734D01*
X175527266Y-121005974D01*
X176507501Y-121412000D01*
X177568499Y-121412000D01*
X178548734Y-121005974D01*
X178943000Y-120611708D01*
X178943000Y-126290000D01*
X127542555Y-126290000D01*
X126018727Y-126276515D01*
X126478734Y-126085974D01*
X127228974Y-125335734D01*
X127635000Y-124355499D01*
X127635000Y-123294501D01*
X127228974Y-122314266D01*
X126478734Y-121564026D01*
X125498499Y-121158000D01*
X124437501Y-121158000D01*
X123457266Y-121564026D01*
X122707026Y-122314266D01*
X122301000Y-123294501D01*
X122301000Y-124355499D01*
X122707026Y-125335734D01*
X123457266Y-126085974D01*
X123871396Y-126257512D01*
X121793000Y-126239119D01*
X121793000Y-69215000D01*
X121783333Y-69166399D01*
X121755803Y-69125197D01*
X121714601Y-69097667D01*
X121666000Y-69088000D01*
X113710000Y-69088000D01*
X113710000Y-64150000D01*
X118502560Y-64150000D01*
X118502560Y-65850000D01*
X118551843Y-66097765D01*
X118692191Y-66307809D01*
X118902235Y-66448157D01*
X119150000Y-66497440D01*
X120850000Y-66497440D01*
X121097765Y-66448157D01*
X121307809Y-66307809D01*
X121448157Y-66097765D01*
X121457184Y-66052381D01*
X121469375Y-66070625D01*
X121960582Y-66398839D01*
X122393744Y-66485000D01*
X122686256Y-66485000D01*
X123119418Y-66398839D01*
X123610625Y-66070625D01*
X123810000Y-65772239D01*
X124009375Y-66070625D01*
X124500582Y-66398839D01*
X124933744Y-66485000D01*
X125226256Y-66485000D01*
X125659418Y-66398839D01*
X126150625Y-66070625D01*
X126350000Y-65772239D01*
X126549375Y-66070625D01*
X127040582Y-66398839D01*
X127473744Y-66485000D01*
X127766256Y-66485000D01*
X128199418Y-66398839D01*
X128690625Y-66070625D01*
X128890000Y-65772239D01*
X129089375Y-66070625D01*
X129580582Y-66398839D01*
X130013744Y-66485000D01*
X130306256Y-66485000D01*
X130739418Y-66398839D01*
X131230625Y-66070625D01*
X131430000Y-65772239D01*
X131629375Y-66070625D01*
X132120582Y-66398839D01*
X132553744Y-66485000D01*
X132846256Y-66485000D01*
X132859678Y-66482330D01*
X132844000Y-66561149D01*
X132844000Y-66561153D01*
X132829112Y-66636000D01*
X132844000Y-66710847D01*
X132844001Y-71485422D01*
X132708791Y-71420291D01*
X132693026Y-71417642D01*
X132461000Y-71538783D01*
X132461000Y-72898000D01*
X132481000Y-72898000D01*
X132481000Y-73152000D01*
X132461000Y-73152000D01*
X132461000Y-73172000D01*
X132207000Y-73172000D01*
X132207000Y-73152000D01*
X132187000Y-73152000D01*
X132187000Y-72898000D01*
X132207000Y-72898000D01*
X132207000Y-71538783D01*
X131974974Y-71417642D01*
X131959209Y-71420291D01*
X131431964Y-71674268D01*
X131273694Y-71851410D01*
X131255757Y-71761235D01*
X131115409Y-71551191D01*
X130905365Y-71410843D01*
X130657600Y-71361560D01*
X128930400Y-71361560D01*
X128682635Y-71410843D01*
X128472591Y-71551191D01*
X128332243Y-71761235D01*
X128282960Y-72009000D01*
X128282960Y-73838252D01*
X127748734Y-73304026D01*
X126768499Y-72898000D01*
X125707501Y-72898000D01*
X124727266Y-73304026D01*
X123977026Y-74054266D01*
X123571000Y-75034501D01*
X123571000Y-76095499D01*
X123977026Y-77075734D01*
X124727266Y-77825974D01*
X125707501Y-78232000D01*
X126768499Y-78232000D01*
X127748734Y-77825974D01*
X128498974Y-77075734D01*
X128652156Y-76705918D01*
X128713570Y-76797830D01*
X129209276Y-77129050D01*
X129794000Y-77245359D01*
X130378725Y-77129050D01*
X130874430Y-76797830D01*
X131064000Y-76514119D01*
X131253570Y-76797830D01*
X131528601Y-76981600D01*
X131041530Y-77468671D01*
X130978072Y-77511072D01*
X130864204Y-77681488D01*
X130810098Y-77762464D01*
X130751113Y-78059001D01*
X130810098Y-78355538D01*
X130891000Y-78476617D01*
X130891000Y-78544983D01*
X131033345Y-78888635D01*
X131296365Y-79151655D01*
X131640017Y-79294000D01*
X132011983Y-79294000D01*
X132355635Y-79151655D01*
X132618655Y-78888635D01*
X132761000Y-78544983D01*
X132761000Y-78173017D01*
X132680685Y-77979119D01*
X133016788Y-77643016D01*
X133122875Y-77621914D01*
X133374267Y-77453939D01*
X133416668Y-77390481D01*
X133922903Y-76884248D01*
X134289276Y-77129050D01*
X134874000Y-77245359D01*
X135458725Y-77129050D01*
X135954430Y-76797830D01*
X136147909Y-76508267D01*
X136511964Y-76915732D01*
X137039209Y-77169709D01*
X137054974Y-77172358D01*
X137287000Y-77051217D01*
X137287000Y-75692000D01*
X137267000Y-75692000D01*
X137267000Y-75438000D01*
X137287000Y-75438000D01*
X137287000Y-75418000D01*
X137541000Y-75418000D01*
X137541000Y-75438000D01*
X137561000Y-75438000D01*
X137561000Y-75692000D01*
X137541000Y-75692000D01*
X137541000Y-77051217D01*
X137773026Y-77172358D01*
X137788791Y-77169709D01*
X138316036Y-76915732D01*
X138680090Y-76508268D01*
X138873570Y-76797830D01*
X139369276Y-77129050D01*
X139954000Y-77245359D01*
X140464001Y-77143914D01*
X140464001Y-77490189D01*
X133904231Y-84049722D01*
X133859645Y-83942076D01*
X133469358Y-83513817D01*
X133339522Y-83452843D01*
X133658625Y-83239625D01*
X133986839Y-82748418D01*
X134102092Y-82169000D01*
X133986839Y-81589582D01*
X133658625Y-81098375D01*
X133167418Y-80770161D01*
X132734256Y-80684000D01*
X132441744Y-80684000D01*
X132008582Y-80770161D01*
X131517375Y-81098375D01*
X131318000Y-81396761D01*
X131118625Y-81098375D01*
X130627418Y-80770161D01*
X130194256Y-80684000D01*
X129901744Y-80684000D01*
X129468582Y-80770161D01*
X128977375Y-81098375D01*
X128649161Y-81589582D01*
X128533908Y-82169000D01*
X128649161Y-82748418D01*
X128977375Y-83239625D01*
X129296478Y-83452843D01*
X129166642Y-83513817D01*
X128776355Y-83942076D01*
X128606524Y-84352110D01*
X128727845Y-84582000D01*
X129921000Y-84582000D01*
X129921000Y-84562000D01*
X130175000Y-84562000D01*
X130175000Y-84582000D01*
X132461000Y-84582000D01*
X132461000Y-84562000D01*
X132715000Y-84562000D01*
X132715000Y-84582000D01*
X132735000Y-84582000D01*
X132735000Y-84836000D01*
X132715000Y-84836000D01*
X132715000Y-84856000D01*
X132461000Y-84856000D01*
X132461000Y-84836000D01*
X130175000Y-84836000D01*
X130175000Y-84856000D01*
X129921000Y-84856000D01*
X129921000Y-84836000D01*
X128727845Y-84836000D01*
X128606524Y-85065890D01*
X128776355Y-85475924D01*
X129166642Y-85904183D01*
X129296478Y-85965157D01*
X128977375Y-86178375D01*
X128649161Y-86669582D01*
X128533908Y-87249000D01*
X128649161Y-87828418D01*
X128977375Y-88319625D01*
X129275761Y-88519000D01*
X128977375Y-88718375D01*
X128649161Y-89209582D01*
X128533908Y-89789000D01*
X128649161Y-90368418D01*
X128870616Y-90699848D01*
X128388546Y-91181859D01*
X128325072Y-91224271D01*
X128244686Y-91344577D01*
X128157115Y-91475619D01*
X128157110Y-91475643D01*
X128157097Y-91475663D01*
X128129766Y-91613067D01*
X128098112Y-91772153D01*
X128113001Y-91847029D01*
X128113000Y-97901388D01*
X128098112Y-97976069D01*
X128113000Y-98051084D01*
X128113000Y-98051251D01*
X128127651Y-98124904D01*
X128156970Y-98272631D01*
X128157063Y-98272770D01*
X128157096Y-98272936D01*
X128241196Y-98398801D01*
X128282464Y-98460620D01*
X128282579Y-98460735D01*
X128325071Y-98524329D01*
X128388392Y-98566639D01*
X128866162Y-99044818D01*
X128649161Y-99369582D01*
X128533908Y-99949000D01*
X128649161Y-100528418D01*
X128666254Y-100554000D01*
X123425290Y-100554000D01*
X123392635Y-100521345D01*
X123048983Y-100379000D01*
X122677017Y-100379000D01*
X122333365Y-100521345D01*
X122070345Y-100784365D01*
X121928000Y-101128017D01*
X121928000Y-101499983D01*
X122070345Y-101843635D01*
X122333365Y-102106655D01*
X122677017Y-102249000D01*
X123048983Y-102249000D01*
X123392635Y-102106655D01*
X123425290Y-102074000D01*
X128616456Y-102074000D01*
X128533908Y-102489000D01*
X128649161Y-103068418D01*
X128977375Y-103559625D01*
X129275761Y-103759000D01*
X128977375Y-103958375D01*
X128649161Y-104449582D01*
X128533908Y-105029000D01*
X128649161Y-105608418D01*
X128977375Y-106099625D01*
X129275761Y-106299000D01*
X128977375Y-106498375D01*
X128649161Y-106989582D01*
X128533908Y-107569000D01*
X128649161Y-108148418D01*
X128977375Y-108639625D01*
X129275761Y-108839000D01*
X128977375Y-109038375D01*
X128649161Y-109529582D01*
X128533908Y-110109000D01*
X128587216Y-110377000D01*
X128471017Y-110377000D01*
X128127365Y-110519345D01*
X127864345Y-110782365D01*
X127722000Y-111126017D01*
X127722000Y-111497983D01*
X127864345Y-111841635D01*
X127897001Y-111874291D01*
X127897000Y-113680153D01*
X127882112Y-113755000D01*
X127897000Y-113829847D01*
X127897000Y-113829851D01*
X127941096Y-114051536D01*
X128109071Y-114302929D01*
X128172530Y-114345331D01*
X130835673Y-117008476D01*
X130878071Y-117071929D01*
X130941524Y-117114327D01*
X130941526Y-117114329D01*
X131066902Y-117198102D01*
X131129463Y-117239904D01*
X131351148Y-117284000D01*
X131351152Y-117284000D01*
X131425999Y-117298888D01*
X131500846Y-117284000D01*
X135736166Y-117284000D01*
X140784825Y-122333414D01*
X140397570Y-122592170D01*
X140208000Y-122875881D01*
X140018430Y-122592170D01*
X139522724Y-122260950D01*
X138938000Y-122144641D01*
X138353275Y-122260950D01*
X137857570Y-122592170D01*
X137526350Y-123087876D01*
X137439400Y-123525003D01*
X137439400Y-124124998D01*
X137526350Y-124562125D01*
X137857570Y-125057830D01*
X138353276Y-125389050D01*
X138938000Y-125505359D01*
X139522725Y-125389050D01*
X140018430Y-125057830D01*
X140208000Y-124774119D01*
X140397570Y-125057830D01*
X140893276Y-125389050D01*
X141478000Y-125505359D01*
X142062725Y-125389050D01*
X142391541Y-125169342D01*
X142914671Y-125692473D01*
X142957071Y-125755929D01*
X143020527Y-125798329D01*
X143208462Y-125923904D01*
X143256605Y-125933480D01*
X143430148Y-125968000D01*
X143430152Y-125968000D01*
X143505000Y-125982888D01*
X143579848Y-125968000D01*
X149535153Y-125968000D01*
X149610000Y-125982888D01*
X149684847Y-125968000D01*
X149684852Y-125968000D01*
X149906537Y-125923904D01*
X150157929Y-125755929D01*
X150200331Y-125692470D01*
X150727048Y-125165753D01*
X150735964Y-125175732D01*
X151263209Y-125429709D01*
X151278974Y-125432358D01*
X151511000Y-125311217D01*
X151511000Y-123952000D01*
X151765000Y-123952000D01*
X151765000Y-125311217D01*
X151997026Y-125432358D01*
X152012791Y-125429709D01*
X152540036Y-125175732D01*
X152908000Y-124763892D01*
X153275964Y-125175732D01*
X153803209Y-125429709D01*
X153818974Y-125432358D01*
X154051000Y-125311217D01*
X154051000Y-123952000D01*
X151765000Y-123952000D01*
X151511000Y-123952000D01*
X151491000Y-123952000D01*
X151491000Y-123698000D01*
X151511000Y-123698000D01*
X151511000Y-123678000D01*
X151765000Y-123678000D01*
X151765000Y-123698000D01*
X154051000Y-123698000D01*
X154051000Y-122338783D01*
X154305000Y-122338783D01*
X154305000Y-123698000D01*
X154325000Y-123698000D01*
X154325000Y-123952000D01*
X154305000Y-123952000D01*
X154305000Y-125311217D01*
X154537026Y-125432358D01*
X154552791Y-125429709D01*
X155080036Y-125175732D01*
X155444090Y-124768268D01*
X155637570Y-125057830D01*
X156133276Y-125389050D01*
X156718000Y-125505359D01*
X157302725Y-125389050D01*
X157798430Y-125057830D01*
X158129650Y-124562124D01*
X158216600Y-124124997D01*
X158216600Y-123525003D01*
X160299400Y-123525003D01*
X160299400Y-124124998D01*
X160386350Y-124562125D01*
X160717570Y-125057830D01*
X161213276Y-125389050D01*
X161798000Y-125505359D01*
X162382725Y-125389050D01*
X162878430Y-125057830D01*
X163068000Y-124774119D01*
X163257570Y-125057830D01*
X163753276Y-125389050D01*
X164338000Y-125505359D01*
X164922725Y-125389050D01*
X165418430Y-125057830D01*
X165608000Y-124774119D01*
X165797570Y-125057830D01*
X166293276Y-125389050D01*
X166878000Y-125505359D01*
X167462725Y-125389050D01*
X167958430Y-125057830D01*
X168148000Y-124774119D01*
X168337570Y-125057830D01*
X168833276Y-125389050D01*
X169418000Y-125505359D01*
X170002725Y-125389050D01*
X170498430Y-125057830D01*
X170688000Y-124774119D01*
X170877570Y-125057830D01*
X171373276Y-125389050D01*
X171958000Y-125505359D01*
X172542725Y-125389050D01*
X173038430Y-125057830D01*
X173228000Y-124774119D01*
X173417570Y-125057830D01*
X173913276Y-125389050D01*
X174498000Y-125505359D01*
X175082725Y-125389050D01*
X175578430Y-125057830D01*
X175909650Y-124562124D01*
X175996600Y-124124997D01*
X175996600Y-123525002D01*
X175909650Y-123087875D01*
X175578430Y-122592170D01*
X175082724Y-122260950D01*
X174498000Y-122144641D01*
X173913275Y-122260950D01*
X173417570Y-122592170D01*
X173228000Y-122875881D01*
X173038430Y-122592170D01*
X172542724Y-122260950D01*
X171958000Y-122144641D01*
X171373275Y-122260950D01*
X170877570Y-122592170D01*
X170688000Y-122875881D01*
X170498430Y-122592170D01*
X170002724Y-122260950D01*
X169418000Y-122144641D01*
X168833275Y-122260950D01*
X168337570Y-122592170D01*
X168148000Y-122875881D01*
X167958430Y-122592170D01*
X167462724Y-122260950D01*
X166878000Y-122144641D01*
X166293275Y-122260950D01*
X165797570Y-122592170D01*
X165608000Y-122875881D01*
X165418430Y-122592170D01*
X164922724Y-122260950D01*
X164338000Y-122144641D01*
X163753275Y-122260950D01*
X163257570Y-122592170D01*
X163068000Y-122875881D01*
X162878430Y-122592170D01*
X162382724Y-122260950D01*
X161798000Y-122144641D01*
X161213275Y-122260950D01*
X160717570Y-122592170D01*
X160386350Y-123087876D01*
X160299400Y-123525003D01*
X158216600Y-123525003D01*
X158216600Y-123525002D01*
X158129650Y-123087875D01*
X157798430Y-122592170D01*
X157302724Y-122260950D01*
X156718000Y-122144641D01*
X156133275Y-122260950D01*
X155637570Y-122592170D01*
X155444091Y-122881733D01*
X155080036Y-122474268D01*
X154552791Y-122220291D01*
X154537026Y-122217642D01*
X154305000Y-122338783D01*
X154051000Y-122338783D01*
X153818974Y-122217642D01*
X153803209Y-122220291D01*
X153275964Y-122474268D01*
X152908000Y-122886108D01*
X152540036Y-122474268D01*
X152327104Y-122371697D01*
X156870802Y-117828000D01*
X158868124Y-117828000D01*
X158942942Y-117842888D01*
X159017819Y-117828000D01*
X159017852Y-117828000D01*
X159099332Y-117811793D01*
X159239483Y-117783926D01*
X159239507Y-117783910D01*
X159239537Y-117783904D01*
X159371743Y-117695566D01*
X159427428Y-117658365D01*
X159427446Y-117658347D01*
X159490929Y-117615929D01*
X159533315Y-117552494D01*
X165694113Y-111392623D01*
X165697423Y-111397577D01*
X166049758Y-111633000D01*
X165697423Y-111868423D01*
X165380260Y-112343091D01*
X165268887Y-112903000D01*
X165380260Y-113462909D01*
X165697423Y-113937577D01*
X166172091Y-114254740D01*
X166590667Y-114338000D01*
X167673333Y-114338000D01*
X168091909Y-114254740D01*
X168566577Y-113937577D01*
X168883740Y-113462909D01*
X168995113Y-112903000D01*
X168883740Y-112343091D01*
X168566577Y-111868423D01*
X168214242Y-111633000D01*
X168566577Y-111397577D01*
X168883740Y-110922909D01*
X168995113Y-110363000D01*
X168883740Y-109803091D01*
X168566577Y-109328423D01*
X168214242Y-109093000D01*
X168566577Y-108857577D01*
X168883740Y-108382909D01*
X168995113Y-107823000D01*
X168883740Y-107263091D01*
X168566577Y-106788423D01*
X168214242Y-106553000D01*
X168566577Y-106317577D01*
X168883740Y-105842909D01*
X168995113Y-105283000D01*
X168883740Y-104723091D01*
X168566577Y-104248423D01*
X168091909Y-103931260D01*
X167673333Y-103848000D01*
X166590667Y-103848000D01*
X166172091Y-103931260D01*
X165697423Y-104248423D01*
X165511168Y-104527173D01*
X165310463Y-104567096D01*
X165059071Y-104735071D01*
X164891096Y-104986463D01*
X164832111Y-105283000D01*
X164847000Y-105357852D01*
X164847001Y-110090164D01*
X158628231Y-116308000D01*
X156630848Y-116308000D01*
X156556000Y-116293112D01*
X156481152Y-116308000D01*
X156481148Y-116308000D01*
X156259463Y-116352096D01*
X156008071Y-116520071D01*
X155965671Y-116583527D01*
X150045710Y-122503489D01*
X149682724Y-122260950D01*
X149098000Y-122144641D01*
X148513275Y-122260950D01*
X148017570Y-122592170D01*
X147828000Y-122875881D01*
X147638430Y-122592170D01*
X147142724Y-122260950D01*
X146558000Y-122144641D01*
X146377296Y-122180585D01*
X137636237Y-113439527D01*
X137578493Y-113353107D01*
X137236137Y-113124352D01*
X136934235Y-113064300D01*
X136934234Y-113064300D01*
X136832300Y-113044024D01*
X136730366Y-113064300D01*
X134085440Y-113064300D01*
X134085440Y-111799000D01*
X134036157Y-111551235D01*
X133895809Y-111341191D01*
X133685765Y-111200843D01*
X133640381Y-111191816D01*
X133658625Y-111179625D01*
X133986839Y-110688418D01*
X134102092Y-110109000D01*
X133986839Y-109529582D01*
X133658625Y-109038375D01*
X133360239Y-108839000D01*
X133658625Y-108639625D01*
X133986839Y-108148418D01*
X134102092Y-107569000D01*
X133986839Y-106989582D01*
X133758628Y-106648039D01*
X136638096Y-106648039D01*
X136655633Y-106730819D01*
X136925500Y-107223896D01*
X137363517Y-107576166D01*
X137903000Y-107734000D01*
X138303000Y-107734000D01*
X138303000Y-106426000D01*
X138557000Y-106426000D01*
X138557000Y-107734000D01*
X138957000Y-107734000D01*
X139496483Y-107576166D01*
X139934500Y-107223896D01*
X140204367Y-106730819D01*
X140221904Y-106648039D01*
X140099915Y-106426000D01*
X138557000Y-106426000D01*
X138303000Y-106426000D01*
X136760085Y-106426000D01*
X136638096Y-106648039D01*
X133758628Y-106648039D01*
X133658625Y-106498375D01*
X133360239Y-106299000D01*
X133658625Y-106099625D01*
X133986839Y-105608418D01*
X134102092Y-105029000D01*
X133986839Y-104449582D01*
X133658625Y-103958375D01*
X133360239Y-103759000D01*
X133658625Y-103559625D01*
X133986839Y-103068418D01*
X134102092Y-102489000D01*
X133986839Y-101909582D01*
X133855778Y-101713435D01*
X133902929Y-101681929D01*
X133945331Y-101618470D01*
X136619633Y-98944169D01*
X136678260Y-99238909D01*
X136995423Y-99713577D01*
X137347758Y-99949000D01*
X136995423Y-100184423D01*
X136678260Y-100659091D01*
X136566887Y-101219000D01*
X136678260Y-101778909D01*
X136995423Y-102253577D01*
X137347758Y-102489000D01*
X136995423Y-102724423D01*
X136678260Y-103199091D01*
X136566887Y-103759000D01*
X136678260Y-104318909D01*
X136995423Y-104793577D01*
X137351499Y-105031499D01*
X136925500Y-105374104D01*
X136655633Y-105867181D01*
X136638096Y-105949961D01*
X136760085Y-106172000D01*
X138303000Y-106172000D01*
X138303000Y-106152000D01*
X138557000Y-106152000D01*
X138557000Y-106172000D01*
X140099915Y-106172000D01*
X140221904Y-105949961D01*
X140204367Y-105867181D01*
X139934500Y-105374104D01*
X139508501Y-105031499D01*
X139864577Y-104793577D01*
X140181740Y-104318909D01*
X140293113Y-103759000D01*
X140181740Y-103199091D01*
X139864577Y-102724423D01*
X139512242Y-102489000D01*
X139864577Y-102253577D01*
X140181740Y-101778909D01*
X140293113Y-101219000D01*
X140181740Y-100659091D01*
X139864577Y-100184423D01*
X139512242Y-99949000D01*
X139864577Y-99713577D01*
X140181740Y-99238909D01*
X140293113Y-98679000D01*
X140194186Y-98181663D01*
X140257847Y-98169000D01*
X140257852Y-98169000D01*
X140479537Y-98124904D01*
X140730929Y-97956929D01*
X140773331Y-97893470D01*
X144382227Y-94284575D01*
X144615423Y-94633577D01*
X144967758Y-94869000D01*
X144615423Y-95104423D01*
X144298260Y-95579091D01*
X144186887Y-96139000D01*
X144298260Y-96698909D01*
X144615423Y-97173577D01*
X144967758Y-97409000D01*
X144615423Y-97644423D01*
X144298260Y-98119091D01*
X144186887Y-98679000D01*
X144298260Y-99238909D01*
X144615423Y-99713577D01*
X144967758Y-99949000D01*
X144615423Y-100184423D01*
X144298260Y-100659091D01*
X144186887Y-101219000D01*
X144298260Y-101778909D01*
X144615423Y-102253577D01*
X144967758Y-102489000D01*
X144615423Y-102724423D01*
X144298260Y-103199091D01*
X144186887Y-103759000D01*
X144298260Y-104318909D01*
X144615423Y-104793577D01*
X144967758Y-105029000D01*
X144615423Y-105264423D01*
X144298260Y-105739091D01*
X144186887Y-106299000D01*
X144298260Y-106858909D01*
X144615423Y-107333577D01*
X145090091Y-107650740D01*
X145508667Y-107734000D01*
X146591333Y-107734000D01*
X147009909Y-107650740D01*
X147484577Y-107333577D01*
X147801740Y-106858909D01*
X147913113Y-106299000D01*
X147801740Y-105739091D01*
X147484577Y-105264423D01*
X147132242Y-105029000D01*
X147484577Y-104793577D01*
X147801740Y-104318909D01*
X147888918Y-103880638D01*
X157396683Y-113387492D01*
X157439071Y-113450929D01*
X157502539Y-113493337D01*
X157502555Y-113493353D01*
X157573511Y-113540759D01*
X157690463Y-113618904D01*
X157690482Y-113618908D01*
X157690497Y-113618918D01*
X157827861Y-113646234D01*
X157891168Y-113658827D01*
X158077423Y-113937577D01*
X158552091Y-114254740D01*
X158970667Y-114338000D01*
X160053333Y-114338000D01*
X160471909Y-114254740D01*
X160946577Y-113937577D01*
X161263740Y-113462909D01*
X161375113Y-112903000D01*
X161263740Y-112343091D01*
X160946577Y-111868423D01*
X160594242Y-111633000D01*
X160946577Y-111397577D01*
X161263740Y-110922909D01*
X161375113Y-110363000D01*
X161263740Y-109803091D01*
X160946577Y-109328423D01*
X160594242Y-109093000D01*
X160946577Y-108857577D01*
X161263740Y-108382909D01*
X161375113Y-107823000D01*
X161263740Y-107263091D01*
X160946577Y-106788423D01*
X160825894Y-106707785D01*
X160959765Y-106681157D01*
X161169809Y-106540809D01*
X161310157Y-106330765D01*
X161359440Y-106083000D01*
X161359440Y-104483000D01*
X161310157Y-104235235D01*
X161169809Y-104025191D01*
X160959765Y-103884843D01*
X160712000Y-103835560D01*
X158312000Y-103835560D01*
X158064235Y-103884843D01*
X157854191Y-104025191D01*
X157713843Y-104235235D01*
X157664560Y-104483000D01*
X157664560Y-106083000D01*
X157713843Y-106330765D01*
X157854191Y-106540809D01*
X158064235Y-106681157D01*
X158198106Y-106707785D01*
X158077423Y-106788423D01*
X158057316Y-106818515D01*
X149433331Y-98194530D01*
X149390929Y-98131071D01*
X149139537Y-97963096D01*
X148917852Y-97919000D01*
X148917847Y-97919000D01*
X148843000Y-97904112D01*
X148768153Y-97919000D01*
X147668043Y-97919000D01*
X147484577Y-97644423D01*
X147132242Y-97409000D01*
X147484577Y-97173577D01*
X147670832Y-96894827D01*
X147871537Y-96854904D01*
X148122929Y-96686929D01*
X148165331Y-96623470D01*
X149921802Y-94867000D01*
X157893957Y-94867000D01*
X158077423Y-95141577D01*
X158552091Y-95458740D01*
X158970667Y-95542000D01*
X160053333Y-95542000D01*
X160471909Y-95458740D01*
X160946577Y-95141577D01*
X161263740Y-94666909D01*
X161375113Y-94107000D01*
X161263740Y-93547091D01*
X160946577Y-93072423D01*
X160594242Y-92837000D01*
X160946577Y-92601577D01*
X161263740Y-92126909D01*
X161375113Y-91567000D01*
X161263740Y-91007091D01*
X160946577Y-90532423D01*
X160594242Y-90297000D01*
X160946577Y-90061577D01*
X161263740Y-89586909D01*
X161375113Y-89027000D01*
X161263740Y-88467091D01*
X160946577Y-87992423D01*
X160825894Y-87911785D01*
X160959765Y-87885157D01*
X161169809Y-87744809D01*
X161310157Y-87534765D01*
X161359440Y-87287000D01*
X161359440Y-86487000D01*
X165268887Y-86487000D01*
X165380260Y-87046909D01*
X165697423Y-87521577D01*
X166049758Y-87757000D01*
X165697423Y-87992423D01*
X165380260Y-88467091D01*
X165268887Y-89027000D01*
X165380260Y-89586909D01*
X165697423Y-90061577D01*
X166049758Y-90297000D01*
X165697423Y-90532423D01*
X165380260Y-91007091D01*
X165268887Y-91567000D01*
X165380260Y-92126909D01*
X165697423Y-92601577D01*
X166049758Y-92837000D01*
X165697423Y-93072423D01*
X165380260Y-93547091D01*
X165268887Y-94107000D01*
X165380260Y-94666909D01*
X165697423Y-95141577D01*
X166172091Y-95458740D01*
X166590667Y-95542000D01*
X167673333Y-95542000D01*
X168091909Y-95458740D01*
X168566577Y-95141577D01*
X168883740Y-94666909D01*
X168995113Y-94107000D01*
X168883740Y-93547091D01*
X168566577Y-93072423D01*
X168214242Y-92837000D01*
X168566577Y-92601577D01*
X168883740Y-92126909D01*
X168995113Y-91567000D01*
X168883740Y-91007091D01*
X168566577Y-90532423D01*
X168214242Y-90297000D01*
X168566577Y-90061577D01*
X168883740Y-89586909D01*
X168995113Y-89027000D01*
X168883740Y-88467091D01*
X168566577Y-87992423D01*
X168214242Y-87757000D01*
X168566577Y-87521577D01*
X168883740Y-87046909D01*
X168995113Y-86487000D01*
X168883740Y-85927091D01*
X168566577Y-85452423D01*
X168091909Y-85135260D01*
X167673333Y-85052000D01*
X166590667Y-85052000D01*
X166172091Y-85135260D01*
X165697423Y-85452423D01*
X165380260Y-85927091D01*
X165268887Y-86487000D01*
X161359440Y-86487000D01*
X161359440Y-85687000D01*
X161310157Y-85439235D01*
X161169809Y-85229191D01*
X160959765Y-85088843D01*
X160712000Y-85039560D01*
X158312000Y-85039560D01*
X158064235Y-85088843D01*
X157854191Y-85229191D01*
X157713843Y-85439235D01*
X157664560Y-85687000D01*
X157664560Y-87287000D01*
X157713843Y-87534765D01*
X157854191Y-87744809D01*
X158064235Y-87885157D01*
X158198106Y-87911785D01*
X158077423Y-87992423D01*
X157893957Y-88267000D01*
X152221846Y-88267000D01*
X152146999Y-88252112D01*
X152072152Y-88267000D01*
X152072148Y-88267000D01*
X151947937Y-88291707D01*
X156013481Y-84226024D01*
X156076929Y-84183629D01*
X156119331Y-84120170D01*
X156119338Y-84120163D01*
X156173846Y-84038583D01*
X156244904Y-83932237D01*
X156244905Y-83932231D01*
X156244909Y-83932225D01*
X156269666Y-83807752D01*
X156289000Y-83710552D01*
X156289000Y-83710542D01*
X156303888Y-83635687D01*
X156289000Y-83560845D01*
X156289000Y-77160025D01*
X156718000Y-77245359D01*
X157302725Y-77129050D01*
X157623311Y-76914841D01*
X158106737Y-77397972D01*
X158149071Y-77461329D01*
X158212623Y-77503793D01*
X158212707Y-77503877D01*
X158275204Y-77545609D01*
X158400463Y-77629304D01*
X158400582Y-77629328D01*
X158400681Y-77629394D01*
X158546563Y-77658365D01*
X158622148Y-77673400D01*
X158622270Y-77673400D01*
X158697237Y-77688288D01*
X158771965Y-77673400D01*
X159676153Y-77673400D01*
X159751000Y-77688288D01*
X159825847Y-77673400D01*
X159825852Y-77673400D01*
X160047537Y-77629304D01*
X160298929Y-77461329D01*
X160341331Y-77397870D01*
X160851729Y-76887472D01*
X161213276Y-77129050D01*
X161798000Y-77245359D01*
X162382725Y-77129050D01*
X162878430Y-76797830D01*
X163068000Y-76514119D01*
X163257570Y-76797830D01*
X163753276Y-77129050D01*
X164338000Y-77245359D01*
X164922725Y-77129050D01*
X165243987Y-76914389D01*
X165720673Y-77391075D01*
X165763071Y-77454529D01*
X165826524Y-77496927D01*
X165826526Y-77496929D01*
X165930415Y-77566345D01*
X166014463Y-77622504D01*
X166236148Y-77666600D01*
X166236152Y-77666600D01*
X166310999Y-77681488D01*
X166385846Y-77666600D01*
X172386130Y-77666600D01*
X172460955Y-77681488D01*
X172535825Y-77666600D01*
X172535852Y-77666600D01*
X172619828Y-77649896D01*
X172757495Y-77622521D01*
X172757513Y-77622509D01*
X172757537Y-77622504D01*
X172887404Y-77535730D01*
X172945437Y-77496958D01*
X172945452Y-77496943D01*
X173008929Y-77454529D01*
X173051318Y-77391090D01*
X173553687Y-76888780D01*
X173913276Y-77129050D01*
X174498000Y-77245359D01*
X175082725Y-77129050D01*
X175578430Y-76797830D01*
X175909650Y-76302124D01*
X175996600Y-75864997D01*
X175996600Y-75265002D01*
X175909650Y-74827875D01*
X175578430Y-74332170D01*
X175522801Y-74295000D01*
X175578430Y-74257830D01*
X175909650Y-73762124D01*
X175996600Y-73324997D01*
X175996600Y-72725002D01*
X175909650Y-72287875D01*
X175578430Y-71792170D01*
X175082724Y-71460950D01*
X174498000Y-71344641D01*
X173913275Y-71460950D01*
X173417570Y-71792170D01*
X173228000Y-72075881D01*
X173038430Y-71792170D01*
X172542724Y-71460950D01*
X171958000Y-71344641D01*
X171373275Y-71460950D01*
X171029572Y-71690605D01*
X170069354Y-70730165D01*
X170026929Y-70666671D01*
X169899538Y-70581551D01*
X169775620Y-70498731D01*
X169775576Y-70498722D01*
X169775537Y-70498696D01*
X169620587Y-70467874D01*
X169479090Y-70439712D01*
X169404197Y-70454600D01*
X159270781Y-70454600D01*
X159195865Y-70439712D01*
X159051266Y-70468500D01*
X158899463Y-70498696D01*
X158899405Y-70498735D01*
X158899338Y-70498748D01*
X158772505Y-70583527D01*
X158648071Y-70666671D01*
X158605635Y-70730181D01*
X157886827Y-71449238D01*
X157829365Y-71410843D01*
X157581600Y-71361560D01*
X157110490Y-71361560D01*
X162284590Y-66187700D01*
X162600582Y-66398839D01*
X163033744Y-66485000D01*
X163326256Y-66485000D01*
X163759418Y-66398839D01*
X164250625Y-66070625D01*
X164450000Y-65772239D01*
X164649375Y-66070625D01*
X165140582Y-66398839D01*
X165573744Y-66485000D01*
X165866256Y-66485000D01*
X166299418Y-66398839D01*
X166790625Y-66070625D01*
X166990000Y-65772239D01*
X167189375Y-66070625D01*
X167680582Y-66398839D01*
X168113744Y-66485000D01*
X168406256Y-66485000D01*
X168839418Y-66398839D01*
X169330625Y-66070625D01*
X169530000Y-65772239D01*
X169729375Y-66070625D01*
X170220582Y-66398839D01*
X170653744Y-66485000D01*
X170946256Y-66485000D01*
X171379418Y-66398839D01*
X171870625Y-66070625D01*
X172070000Y-65772239D01*
X172269375Y-66070625D01*
X172760582Y-66398839D01*
X173193744Y-66485000D01*
X173486256Y-66485000D01*
X173919418Y-66398839D01*
X174410625Y-66070625D01*
X174610000Y-65772239D01*
X174809375Y-66070625D01*
X175300582Y-66398839D01*
X175733744Y-66485000D01*
X176026256Y-66485000D01*
X176459418Y-66398839D01*
X176950625Y-66070625D01*
X177150000Y-65772239D01*
X177349375Y-66070625D01*
X177840582Y-66398839D01*
X178273744Y-66485000D01*
X178566256Y-66485000D01*
X178999418Y-66398839D01*
X179490625Y-66070625D01*
X179690000Y-65772239D01*
X179889375Y-66070625D01*
X180380582Y-66398839D01*
X180813744Y-66485000D01*
X181106256Y-66485000D01*
X181539418Y-66398839D01*
X182030625Y-66070625D01*
X182230000Y-65772239D01*
X182429375Y-66070625D01*
X182920582Y-66398839D01*
X183353744Y-66485000D01*
X183646256Y-66485000D01*
X184079418Y-66398839D01*
X184570625Y-66070625D01*
X184770000Y-65772239D01*
X184969375Y-66070625D01*
X185460582Y-66398839D01*
X185893744Y-66485000D01*
X186186256Y-66485000D01*
X186619418Y-66398839D01*
X187110625Y-66070625D01*
X187323843Y-65751522D01*
X187384817Y-65881358D01*
X187813076Y-66271645D01*
X188223110Y-66441476D01*
X188453000Y-66320155D01*
X188453000Y-65127000D01*
X188433000Y-65127000D01*
X188433000Y-64873000D01*
X188453000Y-64873000D01*
X188453000Y-63679845D01*
X188707000Y-63679845D01*
X188707000Y-64873000D01*
X188727000Y-64873000D01*
X188727000Y-65127000D01*
X188707000Y-65127000D01*
X188707000Y-66320155D01*
X188936890Y-66441476D01*
X189346924Y-66271645D01*
X189775183Y-65881358D01*
X189836157Y-65751522D01*
X190049375Y-66070625D01*
X190540582Y-66398839D01*
X190973744Y-66485000D01*
X191266256Y-66485000D01*
X191699418Y-66398839D01*
X192190625Y-66070625D01*
X192518839Y-65579418D01*
X192634092Y-65000000D01*
X192518839Y-64420582D01*
X192190625Y-63929375D01*
X191699418Y-63601161D01*
X191266256Y-63515000D01*
X190973744Y-63515000D01*
X190540582Y-63601161D01*
X190049375Y-63929375D01*
X189836157Y-64248478D01*
X189775183Y-64118642D01*
X189346924Y-63728355D01*
X188936890Y-63558524D01*
X188707000Y-63679845D01*
X188453000Y-63679845D01*
X188223110Y-63558524D01*
X187813076Y-63728355D01*
X187384817Y-64118642D01*
X187323843Y-64248478D01*
X187110625Y-63929375D01*
X186619418Y-63601161D01*
X186186256Y-63515000D01*
X185893744Y-63515000D01*
X185460582Y-63601161D01*
X184969375Y-63929375D01*
X184770000Y-64227761D01*
X184570625Y-63929375D01*
X184079418Y-63601161D01*
X183646256Y-63515000D01*
X183353744Y-63515000D01*
X182920582Y-63601161D01*
X182429375Y-63929375D01*
X182230000Y-64227761D01*
X182030625Y-63929375D01*
X181539418Y-63601161D01*
X181106256Y-63515000D01*
X180813744Y-63515000D01*
X180380582Y-63601161D01*
X179889375Y-63929375D01*
X179690000Y-64227761D01*
X179490625Y-63929375D01*
X178999418Y-63601161D01*
X178566256Y-63515000D01*
X178273744Y-63515000D01*
X177840582Y-63601161D01*
X177349375Y-63929375D01*
X177150000Y-64227761D01*
X176950625Y-63929375D01*
X176459418Y-63601161D01*
X176026256Y-63515000D01*
X175733744Y-63515000D01*
X175300582Y-63601161D01*
X174809375Y-63929375D01*
X174610000Y-64227761D01*
X174410625Y-63929375D01*
X173919418Y-63601161D01*
X173486256Y-63515000D01*
X173193744Y-63515000D01*
X172760582Y-63601161D01*
X172269375Y-63929375D01*
X172070000Y-64227761D01*
X171870625Y-63929375D01*
X171379418Y-63601161D01*
X170946256Y-63515000D01*
X170653744Y-63515000D01*
X170220582Y-63601161D01*
X169729375Y-63929375D01*
X169530000Y-64227761D01*
X169330625Y-63929375D01*
X168839418Y-63601161D01*
X168406256Y-63515000D01*
X168113744Y-63515000D01*
X167680582Y-63601161D01*
X167349472Y-63822401D01*
X165926317Y-62399409D01*
X165883929Y-62335971D01*
X165820455Y-62293559D01*
X165820439Y-62293543D01*
X165760940Y-62253792D01*
X165632537Y-62167996D01*
X165632513Y-62167991D01*
X165632496Y-62167980D01*
X165500497Y-62141731D01*
X165410852Y-62123900D01*
X165410825Y-62123900D01*
X165335956Y-62109012D01*
X165261131Y-62123900D01*
X148455901Y-62123900D01*
X148381108Y-62109012D01*
X148306206Y-62123900D01*
X148306148Y-62123900D01*
X148228770Y-62139291D01*
X148084562Y-62167955D01*
X148084517Y-62167985D01*
X148084463Y-62167996D01*
X147961322Y-62250276D01*
X147896609Y-62293503D01*
X147896569Y-62293543D01*
X147833071Y-62335971D01*
X147790702Y-62399380D01*
X146344548Y-63845133D01*
X145979418Y-63601161D01*
X145546256Y-63515000D01*
X145253744Y-63515000D01*
X144820582Y-63601161D01*
X144329375Y-63929375D01*
X144130000Y-64227761D01*
X143930625Y-63929375D01*
X143439418Y-63601161D01*
X143426804Y-63598652D01*
X143497000Y-63429183D01*
X143497000Y-63057217D01*
X143354655Y-62713565D01*
X143091635Y-62450545D01*
X142747983Y-62308200D01*
X142376017Y-62308200D01*
X142032365Y-62450545D01*
X141999710Y-62483200D01*
X127719916Y-62483200D01*
X127645139Y-62468312D01*
X127570222Y-62483200D01*
X127570148Y-62483200D01*
X127491129Y-62498918D01*
X127348591Y-62527244D01*
X127348534Y-62527282D01*
X127348463Y-62527296D01*
X127221789Y-62611937D01*
X127160633Y-62652784D01*
X127160584Y-62652833D01*
X127097071Y-62695271D01*
X127054709Y-62758670D01*
X125990568Y-63822429D01*
X125659418Y-63601161D01*
X125226256Y-63515000D01*
X124933744Y-63515000D01*
X124500582Y-63601161D01*
X124009375Y-63929375D01*
X123810000Y-64227761D01*
X123610625Y-63929375D01*
X123119418Y-63601161D01*
X122686256Y-63515000D01*
X122393744Y-63515000D01*
X121960582Y-63601161D01*
X121469375Y-63929375D01*
X121457184Y-63947619D01*
X121448157Y-63902235D01*
X121307809Y-63692191D01*
X121097765Y-63551843D01*
X120850000Y-63502560D01*
X119150000Y-63502560D01*
X118902235Y-63551843D01*
X118692191Y-63692191D01*
X118551843Y-63902235D01*
X118502560Y-64150000D01*
X113710000Y-64150000D01*
X113710000Y-44050000D01*
X118502560Y-44050000D01*
X118502560Y-45750000D01*
X118551843Y-45997765D01*
X118692191Y-46207809D01*
X118902235Y-46348157D01*
X119150000Y-46397440D01*
X120850000Y-46397440D01*
X121097765Y-46348157D01*
X121307809Y-46207809D01*
X121448157Y-45997765D01*
X121468739Y-45894292D01*
X121773076Y-46171645D01*
X122183110Y-46341476D01*
X122413000Y-46220155D01*
X122413000Y-45027000D01*
X122393000Y-45027000D01*
X122393000Y-44773000D01*
X122413000Y-44773000D01*
X122413000Y-43579845D01*
X122667000Y-43579845D01*
X122667000Y-44773000D01*
X122687000Y-44773000D01*
X122687000Y-45027000D01*
X122667000Y-45027000D01*
X122667000Y-46220155D01*
X122896890Y-46341476D01*
X123306924Y-46171645D01*
X123735183Y-45781358D01*
X123796157Y-45651522D01*
X124009375Y-45970625D01*
X124500582Y-46298839D01*
X124933744Y-46385000D01*
X125226256Y-46385000D01*
X125659418Y-46298839D01*
X126150625Y-45970625D01*
X126350000Y-45672239D01*
X126549375Y-45970625D01*
X127040582Y-46298839D01*
X127473744Y-46385000D01*
X127766256Y-46385000D01*
X128199418Y-46298839D01*
X128690625Y-45970625D01*
X128890000Y-45672239D01*
X129089375Y-45970625D01*
X129580582Y-46298839D01*
X130013744Y-46385000D01*
X130306256Y-46385000D01*
X130739418Y-46298839D01*
X131230625Y-45970625D01*
X131430000Y-45672239D01*
X131629375Y-45970625D01*
X132120582Y-46298839D01*
X132553744Y-46385000D01*
X132846256Y-46385000D01*
X133279418Y-46298839D01*
X133770625Y-45970625D01*
X133970000Y-45672239D01*
X134169375Y-45970625D01*
X134660582Y-46298839D01*
X135093744Y-46385000D01*
X135386256Y-46385000D01*
X135819418Y-46298839D01*
X136310625Y-45970625D01*
X136510000Y-45672239D01*
X136709375Y-45970625D01*
X137200582Y-46298839D01*
X137633744Y-46385000D01*
X137926256Y-46385000D01*
X138359418Y-46298839D01*
X138850625Y-45970625D01*
X139050000Y-45672239D01*
X139249375Y-45970625D01*
X139740582Y-46298839D01*
X140173744Y-46385000D01*
X140466256Y-46385000D01*
X140899418Y-46298839D01*
X141390625Y-45970625D01*
X141590000Y-45672239D01*
X141789375Y-45970625D01*
X142280582Y-46298839D01*
X142713744Y-46385000D01*
X143006256Y-46385000D01*
X143439418Y-46298839D01*
X143930625Y-45970625D01*
X144130000Y-45672239D01*
X144329375Y-45970625D01*
X144820582Y-46298839D01*
X145253744Y-46385000D01*
X145546256Y-46385000D01*
X145979418Y-46298839D01*
X146470625Y-45970625D01*
X146670000Y-45672239D01*
X146869375Y-45970625D01*
X147360582Y-46298839D01*
X147793744Y-46385000D01*
X148086256Y-46385000D01*
X148519418Y-46298839D01*
X149010625Y-45970625D01*
X149210000Y-45672239D01*
X149409375Y-45970625D01*
X149900582Y-46298839D01*
X150333744Y-46385000D01*
X150626256Y-46385000D01*
X151059418Y-46298839D01*
X151550625Y-45970625D01*
X151750000Y-45672239D01*
X151949375Y-45970625D01*
X152440582Y-46298839D01*
X152873744Y-46385000D01*
X153166256Y-46385000D01*
X153599418Y-46298839D01*
X154090625Y-45970625D01*
X154290000Y-45672239D01*
X154489375Y-45970625D01*
X154980582Y-46298839D01*
X155413744Y-46385000D01*
X155706256Y-46385000D01*
X156139418Y-46298839D01*
X156630625Y-45970625D01*
X156830000Y-45672239D01*
X157029375Y-45970625D01*
X157520582Y-46298839D01*
X157953744Y-46385000D01*
X158246256Y-46385000D01*
X158679418Y-46298839D01*
X159170625Y-45970625D01*
X159370000Y-45672239D01*
X159569375Y-45970625D01*
X160060582Y-46298839D01*
X160493744Y-46385000D01*
X160786256Y-46385000D01*
X161219418Y-46298839D01*
X161710625Y-45970625D01*
X161910000Y-45672239D01*
X162109375Y-45970625D01*
X162600582Y-46298839D01*
X163033744Y-46385000D01*
X163326256Y-46385000D01*
X163759418Y-46298839D01*
X164250625Y-45970625D01*
X164450000Y-45672239D01*
X164649375Y-45970625D01*
X165140582Y-46298839D01*
X165573744Y-46385000D01*
X165866256Y-46385000D01*
X166299418Y-46298839D01*
X166790625Y-45970625D01*
X166990000Y-45672239D01*
X167189375Y-45970625D01*
X167680582Y-46298839D01*
X168113744Y-46385000D01*
X168406256Y-46385000D01*
X168839418Y-46298839D01*
X169330625Y-45970625D01*
X169530000Y-45672239D01*
X169729375Y-45970625D01*
X170220582Y-46298839D01*
X170653744Y-46385000D01*
X170946256Y-46385000D01*
X171379418Y-46298839D01*
X171870625Y-45970625D01*
X172070000Y-45672239D01*
X172269375Y-45970625D01*
X172760582Y-46298839D01*
X173193744Y-46385000D01*
X173486256Y-46385000D01*
X173919418Y-46298839D01*
X174410625Y-45970625D01*
X174610000Y-45672239D01*
X174809375Y-45970625D01*
X175300582Y-46298839D01*
X175733744Y-46385000D01*
X176026256Y-46385000D01*
X176459418Y-46298839D01*
X176950625Y-45970625D01*
X177150000Y-45672239D01*
X177349375Y-45970625D01*
X177840582Y-46298839D01*
X178273744Y-46385000D01*
X178566256Y-46385000D01*
X178999418Y-46298839D01*
X179490625Y-45970625D01*
X179690000Y-45672239D01*
X179889375Y-45970625D01*
X180380582Y-46298839D01*
X180813744Y-46385000D01*
X181106256Y-46385000D01*
X181539418Y-46298839D01*
X182030625Y-45970625D01*
X182230000Y-45672239D01*
X182429375Y-45970625D01*
X182920582Y-46298839D01*
X183353744Y-46385000D01*
X183646256Y-46385000D01*
X184079418Y-46298839D01*
X184570625Y-45970625D01*
X184770000Y-45672239D01*
X184969375Y-45970625D01*
X185460582Y-46298839D01*
X185893744Y-46385000D01*
X186186256Y-46385000D01*
X186619418Y-46298839D01*
X187110625Y-45970625D01*
X187310000Y-45672239D01*
X187509375Y-45970625D01*
X188000582Y-46298839D01*
X188433744Y-46385000D01*
X188726256Y-46385000D01*
X189159418Y-46298839D01*
X189650625Y-45970625D01*
X189863843Y-45651522D01*
X189924817Y-45781358D01*
X190353076Y-46171645D01*
X190763110Y-46341476D01*
X190993000Y-46220155D01*
X190993000Y-45027000D01*
X191247000Y-45027000D01*
X191247000Y-46220155D01*
X191476890Y-46341476D01*
X191886924Y-46171645D01*
X192315183Y-45781358D01*
X192561486Y-45256892D01*
X192440819Y-45027000D01*
X191247000Y-45027000D01*
X190993000Y-45027000D01*
X190973000Y-45027000D01*
X190973000Y-44773000D01*
X190993000Y-44773000D01*
X190993000Y-43579845D01*
X191247000Y-43579845D01*
X191247000Y-44773000D01*
X192440819Y-44773000D01*
X192561486Y-44543108D01*
X192315183Y-44018642D01*
X191886924Y-43628355D01*
X191476890Y-43458524D01*
X191247000Y-43579845D01*
X190993000Y-43579845D01*
X190763110Y-43458524D01*
X190353076Y-43628355D01*
X189924817Y-44018642D01*
X189863843Y-44148478D01*
X189650625Y-43829375D01*
X189159418Y-43501161D01*
X188726256Y-43415000D01*
X188433744Y-43415000D01*
X188000582Y-43501161D01*
X187509375Y-43829375D01*
X187310000Y-44127761D01*
X187110625Y-43829375D01*
X186619418Y-43501161D01*
X186186256Y-43415000D01*
X185893744Y-43415000D01*
X185460582Y-43501161D01*
X184969375Y-43829375D01*
X184770000Y-44127761D01*
X184570625Y-43829375D01*
X184079418Y-43501161D01*
X183646256Y-43415000D01*
X183353744Y-43415000D01*
X182920582Y-43501161D01*
X182429375Y-43829375D01*
X182230000Y-44127761D01*
X182030625Y-43829375D01*
X181539418Y-43501161D01*
X181106256Y-43415000D01*
X180813744Y-43415000D01*
X180380582Y-43501161D01*
X179889375Y-43829375D01*
X179690000Y-44127761D01*
X179490625Y-43829375D01*
X178999418Y-43501161D01*
X178566256Y-43415000D01*
X178273744Y-43415000D01*
X177840582Y-43501161D01*
X177349375Y-43829375D01*
X177150000Y-44127761D01*
X176950625Y-43829375D01*
X176459418Y-43501161D01*
X176026256Y-43415000D01*
X175733744Y-43415000D01*
X175300582Y-43501161D01*
X174809375Y-43829375D01*
X174610000Y-44127761D01*
X174410625Y-43829375D01*
X173919418Y-43501161D01*
X173486256Y-43415000D01*
X173193744Y-43415000D01*
X172760582Y-43501161D01*
X172269375Y-43829375D01*
X172070000Y-44127761D01*
X171870625Y-43829375D01*
X171379418Y-43501161D01*
X170946256Y-43415000D01*
X170653744Y-43415000D01*
X170220582Y-43501161D01*
X169729375Y-43829375D01*
X169530000Y-44127761D01*
X169330625Y-43829375D01*
X168839418Y-43501161D01*
X168406256Y-43415000D01*
X168113744Y-43415000D01*
X167680582Y-43501161D01*
X167189375Y-43829375D01*
X166990000Y-44127761D01*
X166790625Y-43829375D01*
X166299418Y-43501161D01*
X165866256Y-43415000D01*
X165573744Y-43415000D01*
X165140582Y-43501161D01*
X164649375Y-43829375D01*
X164450000Y-44127761D01*
X164250625Y-43829375D01*
X163759418Y-43501161D01*
X163326256Y-43415000D01*
X163033744Y-43415000D01*
X162600582Y-43501161D01*
X162109375Y-43829375D01*
X161910000Y-44127761D01*
X161710625Y-43829375D01*
X161219418Y-43501161D01*
X160786256Y-43415000D01*
X160493744Y-43415000D01*
X160060582Y-43501161D01*
X159569375Y-43829375D01*
X159370000Y-44127761D01*
X159170625Y-43829375D01*
X158679418Y-43501161D01*
X158246256Y-43415000D01*
X157953744Y-43415000D01*
X157520582Y-43501161D01*
X157029375Y-43829375D01*
X156830000Y-44127761D01*
X156630625Y-43829375D01*
X156139418Y-43501161D01*
X155706256Y-43415000D01*
X155413744Y-43415000D01*
X154980582Y-43501161D01*
X154489375Y-43829375D01*
X154290000Y-44127761D01*
X154090625Y-43829375D01*
X153599418Y-43501161D01*
X153166256Y-43415000D01*
X152873744Y-43415000D01*
X152440582Y-43501161D01*
X151949375Y-43829375D01*
X151750000Y-44127761D01*
X151550625Y-43829375D01*
X151059418Y-43501161D01*
X150626256Y-43415000D01*
X150333744Y-43415000D01*
X149900582Y-43501161D01*
X149409375Y-43829375D01*
X149210000Y-44127761D01*
X149010625Y-43829375D01*
X148519418Y-43501161D01*
X148086256Y-43415000D01*
X147793744Y-43415000D01*
X147360582Y-43501161D01*
X146869375Y-43829375D01*
X146670000Y-44127761D01*
X146470625Y-43829375D01*
X145979418Y-43501161D01*
X145546256Y-43415000D01*
X145253744Y-43415000D01*
X144820582Y-43501161D01*
X144329375Y-43829375D01*
X144130000Y-44127761D01*
X143930625Y-43829375D01*
X143439418Y-43501161D01*
X143006256Y-43415000D01*
X142713744Y-43415000D01*
X142280582Y-43501161D01*
X141789375Y-43829375D01*
X141590000Y-44127761D01*
X141390625Y-43829375D01*
X140899418Y-43501161D01*
X140466256Y-43415000D01*
X140173744Y-43415000D01*
X139740582Y-43501161D01*
X139249375Y-43829375D01*
X139050000Y-44127761D01*
X138850625Y-43829375D01*
X138359418Y-43501161D01*
X137926256Y-43415000D01*
X137633744Y-43415000D01*
X137200582Y-43501161D01*
X136709375Y-43829375D01*
X136510000Y-44127761D01*
X136310625Y-43829375D01*
X135819418Y-43501161D01*
X135386256Y-43415000D01*
X135093744Y-43415000D01*
X134660582Y-43501161D01*
X134169375Y-43829375D01*
X133970000Y-44127761D01*
X133770625Y-43829375D01*
X133279418Y-43501161D01*
X132846256Y-43415000D01*
X132553744Y-43415000D01*
X132120582Y-43501161D01*
X131629375Y-43829375D01*
X131430000Y-44127761D01*
X131230625Y-43829375D01*
X130739418Y-43501161D01*
X130306256Y-43415000D01*
X130013744Y-43415000D01*
X129580582Y-43501161D01*
X129089375Y-43829375D01*
X128890000Y-44127761D01*
X128690625Y-43829375D01*
X128199418Y-43501161D01*
X127766256Y-43415000D01*
X127473744Y-43415000D01*
X127040582Y-43501161D01*
X126549375Y-43829375D01*
X126350000Y-44127761D01*
X126150625Y-43829375D01*
X125659418Y-43501161D01*
X125226256Y-43415000D01*
X124933744Y-43415000D01*
X124500582Y-43501161D01*
X124009375Y-43829375D01*
X123796157Y-44148478D01*
X123735183Y-44018642D01*
X123306924Y-43628355D01*
X122896890Y-43458524D01*
X122667000Y-43579845D01*
X122413000Y-43579845D01*
X122183110Y-43458524D01*
X121773076Y-43628355D01*
X121468739Y-43905708D01*
X121448157Y-43802235D01*
X121307809Y-43592191D01*
X121097765Y-43451843D01*
X120850000Y-43402560D01*
X119150000Y-43402560D01*
X118902235Y-43451843D01*
X118692191Y-43592191D01*
X118551843Y-43802235D01*
X118502560Y-44050000D01*
X113710000Y-44050000D01*
X113710000Y-37465000D01*
X128279908Y-37465000D01*
X128395161Y-38044418D01*
X128723375Y-38535625D01*
X129214582Y-38863839D01*
X129647744Y-38950000D01*
X129940256Y-38950000D01*
X130373418Y-38863839D01*
X130864625Y-38535625D01*
X131064000Y-38237239D01*
X131263375Y-38535625D01*
X131754582Y-38863839D01*
X132187744Y-38950000D01*
X132480256Y-38950000D01*
X132913418Y-38863839D01*
X133404625Y-38535625D01*
X133604000Y-38237239D01*
X133803375Y-38535625D01*
X134294582Y-38863839D01*
X134727744Y-38950000D01*
X135020256Y-38950000D01*
X135453418Y-38863839D01*
X135944625Y-38535625D01*
X136144000Y-38237239D01*
X136343375Y-38535625D01*
X136834582Y-38863839D01*
X137267744Y-38950000D01*
X137560256Y-38950000D01*
X137993418Y-38863839D01*
X138484625Y-38535625D01*
X138684000Y-38237239D01*
X138883375Y-38535625D01*
X139374582Y-38863839D01*
X139807744Y-38950000D01*
X140100256Y-38950000D01*
X140533418Y-38863839D01*
X141024625Y-38535625D01*
X141039096Y-38513967D01*
X141105673Y-38674698D01*
X141284301Y-38853327D01*
X141517690Y-38950000D01*
X142208250Y-38950000D01*
X142367000Y-38791250D01*
X142367000Y-37592000D01*
X142621000Y-37592000D01*
X142621000Y-38791250D01*
X142779750Y-38950000D01*
X143470310Y-38950000D01*
X143703699Y-38853327D01*
X143882327Y-38674698D01*
X143979000Y-38441309D01*
X143979000Y-37750750D01*
X143820250Y-37592000D01*
X142621000Y-37592000D01*
X142367000Y-37592000D01*
X142347000Y-37592000D01*
X142347000Y-37465000D01*
X169935908Y-37465000D01*
X170051161Y-38044418D01*
X170379375Y-38535625D01*
X170870582Y-38863839D01*
X171303744Y-38950000D01*
X171596256Y-38950000D01*
X172029418Y-38863839D01*
X172520625Y-38535625D01*
X172720000Y-38237239D01*
X172919375Y-38535625D01*
X173410582Y-38863839D01*
X173843744Y-38950000D01*
X174136256Y-38950000D01*
X174569418Y-38863839D01*
X175060625Y-38535625D01*
X175260000Y-38237239D01*
X175459375Y-38535625D01*
X175950582Y-38863839D01*
X176383744Y-38950000D01*
X176676256Y-38950000D01*
X177109418Y-38863839D01*
X177600625Y-38535625D01*
X177800000Y-38237239D01*
X177999375Y-38535625D01*
X178490582Y-38863839D01*
X178923744Y-38950000D01*
X179216256Y-38950000D01*
X179649418Y-38863839D01*
X180140625Y-38535625D01*
X180340000Y-38237239D01*
X180539375Y-38535625D01*
X181030582Y-38863839D01*
X181463744Y-38950000D01*
X181756256Y-38950000D01*
X182189418Y-38863839D01*
X182680625Y-38535625D01*
X182695096Y-38513967D01*
X182761673Y-38674698D01*
X182940301Y-38853327D01*
X183173690Y-38950000D01*
X183864250Y-38950000D01*
X184023000Y-38791250D01*
X184023000Y-37592000D01*
X184277000Y-37592000D01*
X184277000Y-38791250D01*
X184435750Y-38950000D01*
X185126310Y-38950000D01*
X185359699Y-38853327D01*
X185538327Y-38674698D01*
X185635000Y-38441309D01*
X185635000Y-37750750D01*
X185476250Y-37592000D01*
X184277000Y-37592000D01*
X184023000Y-37592000D01*
X184003000Y-37592000D01*
X184003000Y-37338000D01*
X184023000Y-37338000D01*
X184023000Y-36138750D01*
X184277000Y-36138750D01*
X184277000Y-37338000D01*
X185476250Y-37338000D01*
X185635000Y-37179250D01*
X185635000Y-36488691D01*
X185538327Y-36255302D01*
X185359699Y-36076673D01*
X185126310Y-35980000D01*
X184435750Y-35980000D01*
X184277000Y-36138750D01*
X184023000Y-36138750D01*
X183864250Y-35980000D01*
X183173690Y-35980000D01*
X182940301Y-36076673D01*
X182761673Y-36255302D01*
X182695096Y-36416033D01*
X182680625Y-36394375D01*
X182189418Y-36066161D01*
X181756256Y-35980000D01*
X181463744Y-35980000D01*
X181030582Y-36066161D01*
X180539375Y-36394375D01*
X180340000Y-36692761D01*
X180140625Y-36394375D01*
X179649418Y-36066161D01*
X179216256Y-35980000D01*
X178923744Y-35980000D01*
X178490582Y-36066161D01*
X177999375Y-36394375D01*
X177800000Y-36692761D01*
X177600625Y-36394375D01*
X177109418Y-36066161D01*
X176676256Y-35980000D01*
X176383744Y-35980000D01*
X175950582Y-36066161D01*
X175459375Y-36394375D01*
X175260000Y-36692761D01*
X175060625Y-36394375D01*
X174569418Y-36066161D01*
X174136256Y-35980000D01*
X173843744Y-35980000D01*
X173410582Y-36066161D01*
X172919375Y-36394375D01*
X172720000Y-36692761D01*
X172520625Y-36394375D01*
X172029418Y-36066161D01*
X171596256Y-35980000D01*
X171303744Y-35980000D01*
X170870582Y-36066161D01*
X170379375Y-36394375D01*
X170051161Y-36885582D01*
X169935908Y-37465000D01*
X142347000Y-37465000D01*
X142347000Y-37338000D01*
X142367000Y-37338000D01*
X142367000Y-36138750D01*
X142621000Y-36138750D01*
X142621000Y-37338000D01*
X143820250Y-37338000D01*
X143979000Y-37179250D01*
X143979000Y-36488691D01*
X143882327Y-36255302D01*
X143703699Y-36076673D01*
X143470310Y-35980000D01*
X142779750Y-35980000D01*
X142621000Y-36138750D01*
X142367000Y-36138750D01*
X142208250Y-35980000D01*
X141517690Y-35980000D01*
X141284301Y-36076673D01*
X141105673Y-36255302D01*
X141039096Y-36416033D01*
X141024625Y-36394375D01*
X140533418Y-36066161D01*
X140100256Y-35980000D01*
X139807744Y-35980000D01*
X139374582Y-36066161D01*
X138883375Y-36394375D01*
X138684000Y-36692761D01*
X138484625Y-36394375D01*
X137993418Y-36066161D01*
X137560256Y-35980000D01*
X137267744Y-35980000D01*
X136834582Y-36066161D01*
X136343375Y-36394375D01*
X136144000Y-36692761D01*
X135944625Y-36394375D01*
X135453418Y-36066161D01*
X135020256Y-35980000D01*
X134727744Y-35980000D01*
X134294582Y-36066161D01*
X133803375Y-36394375D01*
X133604000Y-36692761D01*
X133404625Y-36394375D01*
X132913418Y-36066161D01*
X132480256Y-35980000D01*
X132187744Y-35980000D01*
X131754582Y-36066161D01*
X131263375Y-36394375D01*
X131064000Y-36692761D01*
X130864625Y-36394375D01*
X130373418Y-36066161D01*
X129940256Y-35980000D01*
X129647744Y-35980000D01*
X129214582Y-36066161D01*
X128723375Y-36394375D01*
X128395161Y-36885582D01*
X128279908Y-37465000D01*
X113710000Y-37465000D01*
X113710000Y-33781468D01*
X136794026Y-33710000D01*
X195290001Y-33710000D01*
X195290000Y-69092447D01*
G04 #@! TD*
M02*
