M48
;DRILL file {KiCad 5.0.2-bee76a0~70~ubuntu16.04.1} date Sun 06 Jan 2019 01:47:37 PM PST
;FORMAT={-:-/ absolute / inch / decimal}
FMAT,2
INCH,TZ
T1C0.0157
T2C0.0315
T3C0.0394
T4C0.0400
T5C0.1200
%
G90
G05
T1
X4.82Y-1.935
X4.8371Y-3.9887
X5.0652Y-4.3824
X5.19Y-3.085
X5.4695Y-4.7355
X5.6127Y-2.4899
X5.71Y-4.635
X5.78Y-4.435
X6.Y-3.805
X6.0488Y-2.7505
X6.16Y-4.755
X6.4Y-3.165
X6.45Y-3.975
X7.56Y-2.005
X7.57Y-2.195
T2
X6.28Y-4.145
X6.28Y-4.245
X6.28Y-4.345
X6.28Y-4.445
X6.58Y-4.145
X6.58Y-4.245
X6.58Y-4.345
X6.58Y-4.445
X5.45Y-3.485
X5.45Y-3.585
X5.45Y-3.685
X5.45Y-3.785
X5.45Y-3.885
X5.45Y-3.985
X5.45Y-4.085
X5.45Y-4.185
X5.75Y-3.485
X5.75Y-3.585
X5.75Y-3.685
X5.75Y-3.785
X5.75Y-3.885
X5.75Y-3.985
X5.75Y-4.085
X5.75Y-4.185
X6.28Y-3.405
X6.28Y-3.505
X6.28Y-3.605
X6.28Y-3.705
X6.58Y-3.405
X6.58Y-3.505
X6.58Y-3.605
X6.58Y-3.705
T3
X5.11Y-1.475
X5.21Y-1.475
X5.31Y-1.475
X5.41Y-1.475
X5.51Y-1.475
X5.61Y-1.475
X4.7244Y-1.7677
X4.8244Y-1.7677
X4.9244Y-1.7677
X5.0244Y-1.7677
X5.1244Y-1.7677
X5.2244Y-1.7677
X5.3244Y-1.7677
X5.4244Y-1.7677
X5.5244Y-1.7677
X5.6244Y-1.7677
X5.7244Y-1.7677
X5.8244Y-1.7677
X5.9244Y-1.7677
X6.0244Y-1.7677
X6.1244Y-1.7677
X6.2244Y-1.7677
X6.3244Y-1.7677
X6.4244Y-1.7677
X6.5244Y-1.7677
X6.6244Y-1.7677
X6.7244Y-1.7677
X6.8244Y-1.7677
X6.9244Y-1.7677
X7.0244Y-1.7677
X7.1244Y-1.7677
X7.2244Y-1.7677
X7.3244Y-1.7677
X7.4244Y-1.7677
X7.5244Y-1.7677
X5.12Y-3.235
X5.12Y-3.335
X5.12Y-3.435
X5.12Y-3.535
X5.12Y-3.635
X5.12Y-3.735
X5.12Y-3.835
X5.12Y-3.935
X5.12Y-4.035
X5.12Y-4.135
X5.12Y-4.235
X5.12Y-4.335
X5.12Y-4.435
X5.22Y-3.235
X5.22Y-3.335
X5.22Y-3.435
X5.22Y-3.535
X5.22Y-3.635
X5.22Y-3.735
X5.22Y-3.835
X5.22Y-3.935
X5.22Y-4.035
X5.22Y-4.135
X5.22Y-4.235
X5.22Y-4.335
X5.22Y-4.435
X4.7244Y-2.5591
X4.8244Y-2.5591
X4.9244Y-2.5591
X5.0244Y-2.5591
X5.1244Y-2.5591
X5.2244Y-2.5591
X5.3244Y-2.5591
X5.4244Y-2.5591
X5.5244Y-2.5591
X5.6244Y-2.5591
X5.7244Y-2.5591
X5.8244Y-2.5591
X5.9244Y-2.5591
X6.0244Y-2.5591
X6.1244Y-2.5591
X6.2244Y-2.5591
X6.3244Y-2.5591
X6.4244Y-2.5591
X6.5244Y-2.5591
X6.6244Y-2.5591
X6.7244Y-2.5591
X6.8244Y-2.5591
X6.9244Y-2.5591
X7.0244Y-2.5591
X7.1244Y-2.5591
X7.2244Y-2.5591
X7.3244Y-2.5591
X7.4244Y-2.5591
X7.5244Y-2.5591
X6.75Y-1.475
X6.85Y-1.475
X6.95Y-1.475
X7.05Y-1.475
X7.15Y-1.475
X7.25Y-1.475
T4
X6.17Y-2.975
X6.27Y-2.975
X6.37Y-2.975
X6.47Y-2.975
X6.57Y-2.975
X6.67Y-2.975
X6.77Y-2.975
X6.87Y-2.975
X6.17Y-2.875
X6.27Y-2.875
X6.37Y-2.875
X6.47Y-2.875
X6.57Y-2.875
X6.67Y-2.875
X6.77Y-2.875
X6.87Y-2.875
X6.37Y-4.875
X6.47Y-4.875
X6.57Y-4.875
X6.67Y-4.875
X6.77Y-4.875
X6.87Y-4.875
X5.11Y-2.975
X5.21Y-2.975
X5.31Y-2.975
X5.41Y-2.975
X5.51Y-2.975
X5.61Y-2.975
X5.71Y-2.975
X5.81Y-2.975
X5.91Y-2.975
X6.01Y-2.975
X5.47Y-4.875
X5.57Y-4.875
X5.67Y-4.875
X5.77Y-4.875
X5.87Y-4.875
X5.97Y-4.875
X6.07Y-4.875
X6.17Y-4.875
X5.11Y-2.875
X5.21Y-2.875
X5.31Y-2.875
X5.41Y-2.875
X5.51Y-2.875
X5.61Y-2.875
X5.71Y-2.875
X5.81Y-2.875
X5.91Y-2.875
X6.01Y-2.875
T5
X4.97Y-2.975
X6.97Y-4.675
X6.97Y-3.575
X4.92Y-4.875
T0
M30
