G04 #@! TF.GenerationSoftware,KiCad,Pcbnew,5.0.2-bee76a0~70~ubuntu16.04.1*
G04 #@! TF.CreationDate,2019-01-06T13:47:42-08:00*
G04 #@! TF.ProjectId,fpif,66706966-2e6b-4696-9361-645f70636258,rev?*
G04 #@! TF.SameCoordinates,Original*
G04 #@! TF.FileFunction,Paste,Top*
G04 #@! TF.FilePolarity,Positive*
%FSLAX46Y46*%
G04 Gerber Fmt 4.6, Leading zero omitted, Abs format (unit mm)*
G04 Created by KiCad (PCBNEW 5.0.2-bee76a0~70~ubuntu16.04.1) date Sun 06 Jan 2019 01:47:42 PM PST*
%MOMM*%
%LPD*%
G01*
G04 APERTURE LIST*
%ADD10C,0.100000*%
%ADD11C,1.425000*%
%ADD12C,1.150000*%
%ADD13C,1.525000*%
G04 APERTURE END LIST*
D10*
G04 #@! TO.C,C3*
G36*
X156950504Y-117871204D02*
X156974773Y-117874804D01*
X156998571Y-117880765D01*
X157021671Y-117889030D01*
X157043849Y-117899520D01*
X157064893Y-117912133D01*
X157084598Y-117926747D01*
X157102777Y-117943223D01*
X157119253Y-117961402D01*
X157133867Y-117981107D01*
X157146480Y-118002151D01*
X157156970Y-118024329D01*
X157165235Y-118047429D01*
X157171196Y-118071227D01*
X157174796Y-118095496D01*
X157176000Y-118120000D01*
X157176000Y-119370000D01*
X157174796Y-119394504D01*
X157171196Y-119418773D01*
X157165235Y-119442571D01*
X157156970Y-119465671D01*
X157146480Y-119487849D01*
X157133867Y-119508893D01*
X157119253Y-119528598D01*
X157102777Y-119546777D01*
X157084598Y-119563253D01*
X157064893Y-119577867D01*
X157043849Y-119590480D01*
X157021671Y-119600970D01*
X156998571Y-119609235D01*
X156974773Y-119615196D01*
X156950504Y-119618796D01*
X156926000Y-119620000D01*
X156001000Y-119620000D01*
X155976496Y-119618796D01*
X155952227Y-119615196D01*
X155928429Y-119609235D01*
X155905329Y-119600970D01*
X155883151Y-119590480D01*
X155862107Y-119577867D01*
X155842402Y-119563253D01*
X155824223Y-119546777D01*
X155807747Y-119528598D01*
X155793133Y-119508893D01*
X155780520Y-119487849D01*
X155770030Y-119465671D01*
X155761765Y-119442571D01*
X155755804Y-119418773D01*
X155752204Y-119394504D01*
X155751000Y-119370000D01*
X155751000Y-118120000D01*
X155752204Y-118095496D01*
X155755804Y-118071227D01*
X155761765Y-118047429D01*
X155770030Y-118024329D01*
X155780520Y-118002151D01*
X155793133Y-117981107D01*
X155807747Y-117961402D01*
X155824223Y-117943223D01*
X155842402Y-117926747D01*
X155862107Y-117912133D01*
X155883151Y-117899520D01*
X155905329Y-117889030D01*
X155928429Y-117880765D01*
X155952227Y-117874804D01*
X155976496Y-117871204D01*
X156001000Y-117870000D01*
X156926000Y-117870000D01*
X156950504Y-117871204D01*
X156950504Y-117871204D01*
G37*
D11*
X156463500Y-118745000D03*
D10*
G36*
X153975504Y-117871204D02*
X153999773Y-117874804D01*
X154023571Y-117880765D01*
X154046671Y-117889030D01*
X154068849Y-117899520D01*
X154089893Y-117912133D01*
X154109598Y-117926747D01*
X154127777Y-117943223D01*
X154144253Y-117961402D01*
X154158867Y-117981107D01*
X154171480Y-118002151D01*
X154181970Y-118024329D01*
X154190235Y-118047429D01*
X154196196Y-118071227D01*
X154199796Y-118095496D01*
X154201000Y-118120000D01*
X154201000Y-119370000D01*
X154199796Y-119394504D01*
X154196196Y-119418773D01*
X154190235Y-119442571D01*
X154181970Y-119465671D01*
X154171480Y-119487849D01*
X154158867Y-119508893D01*
X154144253Y-119528598D01*
X154127777Y-119546777D01*
X154109598Y-119563253D01*
X154089893Y-119577867D01*
X154068849Y-119590480D01*
X154046671Y-119600970D01*
X154023571Y-119609235D01*
X153999773Y-119615196D01*
X153975504Y-119618796D01*
X153951000Y-119620000D01*
X153026000Y-119620000D01*
X153001496Y-119618796D01*
X152977227Y-119615196D01*
X152953429Y-119609235D01*
X152930329Y-119600970D01*
X152908151Y-119590480D01*
X152887107Y-119577867D01*
X152867402Y-119563253D01*
X152849223Y-119546777D01*
X152832747Y-119528598D01*
X152818133Y-119508893D01*
X152805520Y-119487849D01*
X152795030Y-119465671D01*
X152786765Y-119442571D01*
X152780804Y-119418773D01*
X152777204Y-119394504D01*
X152776000Y-119370000D01*
X152776000Y-118120000D01*
X152777204Y-118095496D01*
X152780804Y-118071227D01*
X152786765Y-118047429D01*
X152795030Y-118024329D01*
X152805520Y-118002151D01*
X152818133Y-117981107D01*
X152832747Y-117961402D01*
X152849223Y-117943223D01*
X152867402Y-117926747D01*
X152887107Y-117912133D01*
X152908151Y-117899520D01*
X152930329Y-117889030D01*
X152953429Y-117880765D01*
X152977227Y-117874804D01*
X153001496Y-117871204D01*
X153026000Y-117870000D01*
X153951000Y-117870000D01*
X153975504Y-117871204D01*
X153975504Y-117871204D01*
G37*
D11*
X153488500Y-118745000D03*
G04 #@! TD*
D10*
G04 #@! TO.C,C4*
G36*
X149838504Y-117871204D02*
X149862773Y-117874804D01*
X149886571Y-117880765D01*
X149909671Y-117889030D01*
X149931849Y-117899520D01*
X149952893Y-117912133D01*
X149972598Y-117926747D01*
X149990777Y-117943223D01*
X150007253Y-117961402D01*
X150021867Y-117981107D01*
X150034480Y-118002151D01*
X150044970Y-118024329D01*
X150053235Y-118047429D01*
X150059196Y-118071227D01*
X150062796Y-118095496D01*
X150064000Y-118120000D01*
X150064000Y-119370000D01*
X150062796Y-119394504D01*
X150059196Y-119418773D01*
X150053235Y-119442571D01*
X150044970Y-119465671D01*
X150034480Y-119487849D01*
X150021867Y-119508893D01*
X150007253Y-119528598D01*
X149990777Y-119546777D01*
X149972598Y-119563253D01*
X149952893Y-119577867D01*
X149931849Y-119590480D01*
X149909671Y-119600970D01*
X149886571Y-119609235D01*
X149862773Y-119615196D01*
X149838504Y-119618796D01*
X149814000Y-119620000D01*
X148889000Y-119620000D01*
X148864496Y-119618796D01*
X148840227Y-119615196D01*
X148816429Y-119609235D01*
X148793329Y-119600970D01*
X148771151Y-119590480D01*
X148750107Y-119577867D01*
X148730402Y-119563253D01*
X148712223Y-119546777D01*
X148695747Y-119528598D01*
X148681133Y-119508893D01*
X148668520Y-119487849D01*
X148658030Y-119465671D01*
X148649765Y-119442571D01*
X148643804Y-119418773D01*
X148640204Y-119394504D01*
X148639000Y-119370000D01*
X148639000Y-118120000D01*
X148640204Y-118095496D01*
X148643804Y-118071227D01*
X148649765Y-118047429D01*
X148658030Y-118024329D01*
X148668520Y-118002151D01*
X148681133Y-117981107D01*
X148695747Y-117961402D01*
X148712223Y-117943223D01*
X148730402Y-117926747D01*
X148750107Y-117912133D01*
X148771151Y-117899520D01*
X148793329Y-117889030D01*
X148816429Y-117880765D01*
X148840227Y-117874804D01*
X148864496Y-117871204D01*
X148889000Y-117870000D01*
X149814000Y-117870000D01*
X149838504Y-117871204D01*
X149838504Y-117871204D01*
G37*
D11*
X149351500Y-118745000D03*
D10*
G36*
X146863504Y-117871204D02*
X146887773Y-117874804D01*
X146911571Y-117880765D01*
X146934671Y-117889030D01*
X146956849Y-117899520D01*
X146977893Y-117912133D01*
X146997598Y-117926747D01*
X147015777Y-117943223D01*
X147032253Y-117961402D01*
X147046867Y-117981107D01*
X147059480Y-118002151D01*
X147069970Y-118024329D01*
X147078235Y-118047429D01*
X147084196Y-118071227D01*
X147087796Y-118095496D01*
X147089000Y-118120000D01*
X147089000Y-119370000D01*
X147087796Y-119394504D01*
X147084196Y-119418773D01*
X147078235Y-119442571D01*
X147069970Y-119465671D01*
X147059480Y-119487849D01*
X147046867Y-119508893D01*
X147032253Y-119528598D01*
X147015777Y-119546777D01*
X146997598Y-119563253D01*
X146977893Y-119577867D01*
X146956849Y-119590480D01*
X146934671Y-119600970D01*
X146911571Y-119609235D01*
X146887773Y-119615196D01*
X146863504Y-119618796D01*
X146839000Y-119620000D01*
X145914000Y-119620000D01*
X145889496Y-119618796D01*
X145865227Y-119615196D01*
X145841429Y-119609235D01*
X145818329Y-119600970D01*
X145796151Y-119590480D01*
X145775107Y-119577867D01*
X145755402Y-119563253D01*
X145737223Y-119546777D01*
X145720747Y-119528598D01*
X145706133Y-119508893D01*
X145693520Y-119487849D01*
X145683030Y-119465671D01*
X145674765Y-119442571D01*
X145668804Y-119418773D01*
X145665204Y-119394504D01*
X145664000Y-119370000D01*
X145664000Y-118120000D01*
X145665204Y-118095496D01*
X145668804Y-118071227D01*
X145674765Y-118047429D01*
X145683030Y-118024329D01*
X145693520Y-118002151D01*
X145706133Y-117981107D01*
X145720747Y-117961402D01*
X145737223Y-117943223D01*
X145755402Y-117926747D01*
X145775107Y-117912133D01*
X145796151Y-117899520D01*
X145818329Y-117889030D01*
X145841429Y-117880765D01*
X145865227Y-117874804D01*
X145889496Y-117871204D01*
X145914000Y-117870000D01*
X146839000Y-117870000D01*
X146863504Y-117871204D01*
X146863504Y-117871204D01*
G37*
D11*
X146376500Y-118745000D03*
G04 #@! TD*
D10*
G04 #@! TO.C,C5*
G36*
X141310505Y-118554204D02*
X141334773Y-118557804D01*
X141358572Y-118563765D01*
X141381671Y-118572030D01*
X141403850Y-118582520D01*
X141424893Y-118595132D01*
X141444599Y-118609747D01*
X141462777Y-118626223D01*
X141479253Y-118644401D01*
X141493868Y-118664107D01*
X141506480Y-118685150D01*
X141516970Y-118707329D01*
X141525235Y-118730428D01*
X141531196Y-118754227D01*
X141534796Y-118778495D01*
X141536000Y-118802999D01*
X141536000Y-119703001D01*
X141534796Y-119727505D01*
X141531196Y-119751773D01*
X141525235Y-119775572D01*
X141516970Y-119798671D01*
X141506480Y-119820850D01*
X141493868Y-119841893D01*
X141479253Y-119861599D01*
X141462777Y-119879777D01*
X141444599Y-119896253D01*
X141424893Y-119910868D01*
X141403850Y-119923480D01*
X141381671Y-119933970D01*
X141358572Y-119942235D01*
X141334773Y-119948196D01*
X141310505Y-119951796D01*
X141286001Y-119953000D01*
X140635999Y-119953000D01*
X140611495Y-119951796D01*
X140587227Y-119948196D01*
X140563428Y-119942235D01*
X140540329Y-119933970D01*
X140518150Y-119923480D01*
X140497107Y-119910868D01*
X140477401Y-119896253D01*
X140459223Y-119879777D01*
X140442747Y-119861599D01*
X140428132Y-119841893D01*
X140415520Y-119820850D01*
X140405030Y-119798671D01*
X140396765Y-119775572D01*
X140390804Y-119751773D01*
X140387204Y-119727505D01*
X140386000Y-119703001D01*
X140386000Y-118802999D01*
X140387204Y-118778495D01*
X140390804Y-118754227D01*
X140396765Y-118730428D01*
X140405030Y-118707329D01*
X140415520Y-118685150D01*
X140428132Y-118664107D01*
X140442747Y-118644401D01*
X140459223Y-118626223D01*
X140477401Y-118609747D01*
X140497107Y-118595132D01*
X140518150Y-118582520D01*
X140540329Y-118572030D01*
X140563428Y-118563765D01*
X140587227Y-118557804D01*
X140611495Y-118554204D01*
X140635999Y-118553000D01*
X141286001Y-118553000D01*
X141310505Y-118554204D01*
X141310505Y-118554204D01*
G37*
D12*
X140961000Y-119253000D03*
D10*
G36*
X143360505Y-118554204D02*
X143384773Y-118557804D01*
X143408572Y-118563765D01*
X143431671Y-118572030D01*
X143453850Y-118582520D01*
X143474893Y-118595132D01*
X143494599Y-118609747D01*
X143512777Y-118626223D01*
X143529253Y-118644401D01*
X143543868Y-118664107D01*
X143556480Y-118685150D01*
X143566970Y-118707329D01*
X143575235Y-118730428D01*
X143581196Y-118754227D01*
X143584796Y-118778495D01*
X143586000Y-118802999D01*
X143586000Y-119703001D01*
X143584796Y-119727505D01*
X143581196Y-119751773D01*
X143575235Y-119775572D01*
X143566970Y-119798671D01*
X143556480Y-119820850D01*
X143543868Y-119841893D01*
X143529253Y-119861599D01*
X143512777Y-119879777D01*
X143494599Y-119896253D01*
X143474893Y-119910868D01*
X143453850Y-119923480D01*
X143431671Y-119933970D01*
X143408572Y-119942235D01*
X143384773Y-119948196D01*
X143360505Y-119951796D01*
X143336001Y-119953000D01*
X142685999Y-119953000D01*
X142661495Y-119951796D01*
X142637227Y-119948196D01*
X142613428Y-119942235D01*
X142590329Y-119933970D01*
X142568150Y-119923480D01*
X142547107Y-119910868D01*
X142527401Y-119896253D01*
X142509223Y-119879777D01*
X142492747Y-119861599D01*
X142478132Y-119841893D01*
X142465520Y-119820850D01*
X142455030Y-119798671D01*
X142446765Y-119775572D01*
X142440804Y-119751773D01*
X142437204Y-119727505D01*
X142436000Y-119703001D01*
X142436000Y-118802999D01*
X142437204Y-118778495D01*
X142440804Y-118754227D01*
X142446765Y-118730428D01*
X142455030Y-118707329D01*
X142465520Y-118685150D01*
X142478132Y-118664107D01*
X142492747Y-118644401D01*
X142509223Y-118626223D01*
X142527401Y-118609747D01*
X142547107Y-118595132D01*
X142568150Y-118582520D01*
X142590329Y-118572030D01*
X142613428Y-118563765D01*
X142637227Y-118557804D01*
X142661495Y-118554204D01*
X142685999Y-118553000D01*
X143336001Y-118553000D01*
X143360505Y-118554204D01*
X143360505Y-118554204D01*
G37*
D12*
X143011000Y-119253000D03*
G04 #@! TD*
D10*
G04 #@! TO.C,C6*
G36*
X147161505Y-113474204D02*
X147185773Y-113477804D01*
X147209572Y-113483765D01*
X147232671Y-113492030D01*
X147254850Y-113502520D01*
X147275893Y-113515132D01*
X147295599Y-113529747D01*
X147313777Y-113546223D01*
X147330253Y-113564401D01*
X147344868Y-113584107D01*
X147357480Y-113605150D01*
X147367970Y-113627329D01*
X147376235Y-113650428D01*
X147382196Y-113674227D01*
X147385796Y-113698495D01*
X147387000Y-113722999D01*
X147387000Y-114623001D01*
X147385796Y-114647505D01*
X147382196Y-114671773D01*
X147376235Y-114695572D01*
X147367970Y-114718671D01*
X147357480Y-114740850D01*
X147344868Y-114761893D01*
X147330253Y-114781599D01*
X147313777Y-114799777D01*
X147295599Y-114816253D01*
X147275893Y-114830868D01*
X147254850Y-114843480D01*
X147232671Y-114853970D01*
X147209572Y-114862235D01*
X147185773Y-114868196D01*
X147161505Y-114871796D01*
X147137001Y-114873000D01*
X146486999Y-114873000D01*
X146462495Y-114871796D01*
X146438227Y-114868196D01*
X146414428Y-114862235D01*
X146391329Y-114853970D01*
X146369150Y-114843480D01*
X146348107Y-114830868D01*
X146328401Y-114816253D01*
X146310223Y-114799777D01*
X146293747Y-114781599D01*
X146279132Y-114761893D01*
X146266520Y-114740850D01*
X146256030Y-114718671D01*
X146247765Y-114695572D01*
X146241804Y-114671773D01*
X146238204Y-114647505D01*
X146237000Y-114623001D01*
X146237000Y-113722999D01*
X146238204Y-113698495D01*
X146241804Y-113674227D01*
X146247765Y-113650428D01*
X146256030Y-113627329D01*
X146266520Y-113605150D01*
X146279132Y-113584107D01*
X146293747Y-113564401D01*
X146310223Y-113546223D01*
X146328401Y-113529747D01*
X146348107Y-113515132D01*
X146369150Y-113502520D01*
X146391329Y-113492030D01*
X146414428Y-113483765D01*
X146438227Y-113477804D01*
X146462495Y-113474204D01*
X146486999Y-113473000D01*
X147137001Y-113473000D01*
X147161505Y-113474204D01*
X147161505Y-113474204D01*
G37*
D12*
X146812000Y-114173000D03*
D10*
G36*
X149211505Y-113474204D02*
X149235773Y-113477804D01*
X149259572Y-113483765D01*
X149282671Y-113492030D01*
X149304850Y-113502520D01*
X149325893Y-113515132D01*
X149345599Y-113529747D01*
X149363777Y-113546223D01*
X149380253Y-113564401D01*
X149394868Y-113584107D01*
X149407480Y-113605150D01*
X149417970Y-113627329D01*
X149426235Y-113650428D01*
X149432196Y-113674227D01*
X149435796Y-113698495D01*
X149437000Y-113722999D01*
X149437000Y-114623001D01*
X149435796Y-114647505D01*
X149432196Y-114671773D01*
X149426235Y-114695572D01*
X149417970Y-114718671D01*
X149407480Y-114740850D01*
X149394868Y-114761893D01*
X149380253Y-114781599D01*
X149363777Y-114799777D01*
X149345599Y-114816253D01*
X149325893Y-114830868D01*
X149304850Y-114843480D01*
X149282671Y-114853970D01*
X149259572Y-114862235D01*
X149235773Y-114868196D01*
X149211505Y-114871796D01*
X149187001Y-114873000D01*
X148536999Y-114873000D01*
X148512495Y-114871796D01*
X148488227Y-114868196D01*
X148464428Y-114862235D01*
X148441329Y-114853970D01*
X148419150Y-114843480D01*
X148398107Y-114830868D01*
X148378401Y-114816253D01*
X148360223Y-114799777D01*
X148343747Y-114781599D01*
X148329132Y-114761893D01*
X148316520Y-114740850D01*
X148306030Y-114718671D01*
X148297765Y-114695572D01*
X148291804Y-114671773D01*
X148288204Y-114647505D01*
X148287000Y-114623001D01*
X148287000Y-113722999D01*
X148288204Y-113698495D01*
X148291804Y-113674227D01*
X148297765Y-113650428D01*
X148306030Y-113627329D01*
X148316520Y-113605150D01*
X148329132Y-113584107D01*
X148343747Y-113564401D01*
X148360223Y-113546223D01*
X148378401Y-113529747D01*
X148398107Y-113515132D01*
X148419150Y-113502520D01*
X148441329Y-113492030D01*
X148464428Y-113483765D01*
X148488227Y-113477804D01*
X148512495Y-113474204D01*
X148536999Y-113473000D01*
X149187001Y-113473000D01*
X149211505Y-113474204D01*
X149211505Y-113474204D01*
G37*
D12*
X148862000Y-114173000D03*
G04 #@! TD*
D10*
G04 #@! TO.C,C7*
G36*
X162147505Y-98234204D02*
X162171773Y-98237804D01*
X162195572Y-98243765D01*
X162218671Y-98252030D01*
X162240850Y-98262520D01*
X162261893Y-98275132D01*
X162281599Y-98289747D01*
X162299777Y-98306223D01*
X162316253Y-98324401D01*
X162330868Y-98344107D01*
X162343480Y-98365150D01*
X162353970Y-98387329D01*
X162362235Y-98410428D01*
X162368196Y-98434227D01*
X162371796Y-98458495D01*
X162373000Y-98482999D01*
X162373000Y-99383001D01*
X162371796Y-99407505D01*
X162368196Y-99431773D01*
X162362235Y-99455572D01*
X162353970Y-99478671D01*
X162343480Y-99500850D01*
X162330868Y-99521893D01*
X162316253Y-99541599D01*
X162299777Y-99559777D01*
X162281599Y-99576253D01*
X162261893Y-99590868D01*
X162240850Y-99603480D01*
X162218671Y-99613970D01*
X162195572Y-99622235D01*
X162171773Y-99628196D01*
X162147505Y-99631796D01*
X162123001Y-99633000D01*
X161472999Y-99633000D01*
X161448495Y-99631796D01*
X161424227Y-99628196D01*
X161400428Y-99622235D01*
X161377329Y-99613970D01*
X161355150Y-99603480D01*
X161334107Y-99590868D01*
X161314401Y-99576253D01*
X161296223Y-99559777D01*
X161279747Y-99541599D01*
X161265132Y-99521893D01*
X161252520Y-99500850D01*
X161242030Y-99478671D01*
X161233765Y-99455572D01*
X161227804Y-99431773D01*
X161224204Y-99407505D01*
X161223000Y-99383001D01*
X161223000Y-98482999D01*
X161224204Y-98458495D01*
X161227804Y-98434227D01*
X161233765Y-98410428D01*
X161242030Y-98387329D01*
X161252520Y-98365150D01*
X161265132Y-98344107D01*
X161279747Y-98324401D01*
X161296223Y-98306223D01*
X161314401Y-98289747D01*
X161334107Y-98275132D01*
X161355150Y-98262520D01*
X161377329Y-98252030D01*
X161400428Y-98243765D01*
X161424227Y-98237804D01*
X161448495Y-98234204D01*
X161472999Y-98233000D01*
X162123001Y-98233000D01*
X162147505Y-98234204D01*
X162147505Y-98234204D01*
G37*
D12*
X161798000Y-98933000D03*
D10*
G36*
X164197505Y-98234204D02*
X164221773Y-98237804D01*
X164245572Y-98243765D01*
X164268671Y-98252030D01*
X164290850Y-98262520D01*
X164311893Y-98275132D01*
X164331599Y-98289747D01*
X164349777Y-98306223D01*
X164366253Y-98324401D01*
X164380868Y-98344107D01*
X164393480Y-98365150D01*
X164403970Y-98387329D01*
X164412235Y-98410428D01*
X164418196Y-98434227D01*
X164421796Y-98458495D01*
X164423000Y-98482999D01*
X164423000Y-99383001D01*
X164421796Y-99407505D01*
X164418196Y-99431773D01*
X164412235Y-99455572D01*
X164403970Y-99478671D01*
X164393480Y-99500850D01*
X164380868Y-99521893D01*
X164366253Y-99541599D01*
X164349777Y-99559777D01*
X164331599Y-99576253D01*
X164311893Y-99590868D01*
X164290850Y-99603480D01*
X164268671Y-99613970D01*
X164245572Y-99622235D01*
X164221773Y-99628196D01*
X164197505Y-99631796D01*
X164173001Y-99633000D01*
X163522999Y-99633000D01*
X163498495Y-99631796D01*
X163474227Y-99628196D01*
X163450428Y-99622235D01*
X163427329Y-99613970D01*
X163405150Y-99603480D01*
X163384107Y-99590868D01*
X163364401Y-99576253D01*
X163346223Y-99559777D01*
X163329747Y-99541599D01*
X163315132Y-99521893D01*
X163302520Y-99500850D01*
X163292030Y-99478671D01*
X163283765Y-99455572D01*
X163277804Y-99431773D01*
X163274204Y-99407505D01*
X163273000Y-99383001D01*
X163273000Y-98482999D01*
X163274204Y-98458495D01*
X163277804Y-98434227D01*
X163283765Y-98410428D01*
X163292030Y-98387329D01*
X163302520Y-98365150D01*
X163315132Y-98344107D01*
X163329747Y-98324401D01*
X163346223Y-98306223D01*
X163364401Y-98289747D01*
X163384107Y-98275132D01*
X163405150Y-98262520D01*
X163427329Y-98252030D01*
X163450428Y-98243765D01*
X163474227Y-98237804D01*
X163498495Y-98234204D01*
X163522999Y-98233000D01*
X164173001Y-98233000D01*
X164197505Y-98234204D01*
X164197505Y-98234204D01*
G37*
D12*
X163848000Y-98933000D03*
G04 #@! TD*
D10*
G04 #@! TO.C,C8*
G36*
X163163505Y-81470204D02*
X163187773Y-81473804D01*
X163211572Y-81479765D01*
X163234671Y-81488030D01*
X163256850Y-81498520D01*
X163277893Y-81511132D01*
X163297599Y-81525747D01*
X163315777Y-81542223D01*
X163332253Y-81560401D01*
X163346868Y-81580107D01*
X163359480Y-81601150D01*
X163369970Y-81623329D01*
X163378235Y-81646428D01*
X163384196Y-81670227D01*
X163387796Y-81694495D01*
X163389000Y-81718999D01*
X163389000Y-82619001D01*
X163387796Y-82643505D01*
X163384196Y-82667773D01*
X163378235Y-82691572D01*
X163369970Y-82714671D01*
X163359480Y-82736850D01*
X163346868Y-82757893D01*
X163332253Y-82777599D01*
X163315777Y-82795777D01*
X163297599Y-82812253D01*
X163277893Y-82826868D01*
X163256850Y-82839480D01*
X163234671Y-82849970D01*
X163211572Y-82858235D01*
X163187773Y-82864196D01*
X163163505Y-82867796D01*
X163139001Y-82869000D01*
X162488999Y-82869000D01*
X162464495Y-82867796D01*
X162440227Y-82864196D01*
X162416428Y-82858235D01*
X162393329Y-82849970D01*
X162371150Y-82839480D01*
X162350107Y-82826868D01*
X162330401Y-82812253D01*
X162312223Y-82795777D01*
X162295747Y-82777599D01*
X162281132Y-82757893D01*
X162268520Y-82736850D01*
X162258030Y-82714671D01*
X162249765Y-82691572D01*
X162243804Y-82667773D01*
X162240204Y-82643505D01*
X162239000Y-82619001D01*
X162239000Y-81718999D01*
X162240204Y-81694495D01*
X162243804Y-81670227D01*
X162249765Y-81646428D01*
X162258030Y-81623329D01*
X162268520Y-81601150D01*
X162281132Y-81580107D01*
X162295747Y-81560401D01*
X162312223Y-81542223D01*
X162330401Y-81525747D01*
X162350107Y-81511132D01*
X162371150Y-81498520D01*
X162393329Y-81488030D01*
X162416428Y-81479765D01*
X162440227Y-81473804D01*
X162464495Y-81470204D01*
X162488999Y-81469000D01*
X163139001Y-81469000D01*
X163163505Y-81470204D01*
X163163505Y-81470204D01*
G37*
D12*
X162814000Y-82169000D03*
D10*
G36*
X165213505Y-81470204D02*
X165237773Y-81473804D01*
X165261572Y-81479765D01*
X165284671Y-81488030D01*
X165306850Y-81498520D01*
X165327893Y-81511132D01*
X165347599Y-81525747D01*
X165365777Y-81542223D01*
X165382253Y-81560401D01*
X165396868Y-81580107D01*
X165409480Y-81601150D01*
X165419970Y-81623329D01*
X165428235Y-81646428D01*
X165434196Y-81670227D01*
X165437796Y-81694495D01*
X165439000Y-81718999D01*
X165439000Y-82619001D01*
X165437796Y-82643505D01*
X165434196Y-82667773D01*
X165428235Y-82691572D01*
X165419970Y-82714671D01*
X165409480Y-82736850D01*
X165396868Y-82757893D01*
X165382253Y-82777599D01*
X165365777Y-82795777D01*
X165347599Y-82812253D01*
X165327893Y-82826868D01*
X165306850Y-82839480D01*
X165284671Y-82849970D01*
X165261572Y-82858235D01*
X165237773Y-82864196D01*
X165213505Y-82867796D01*
X165189001Y-82869000D01*
X164538999Y-82869000D01*
X164514495Y-82867796D01*
X164490227Y-82864196D01*
X164466428Y-82858235D01*
X164443329Y-82849970D01*
X164421150Y-82839480D01*
X164400107Y-82826868D01*
X164380401Y-82812253D01*
X164362223Y-82795777D01*
X164345747Y-82777599D01*
X164331132Y-82757893D01*
X164318520Y-82736850D01*
X164308030Y-82714671D01*
X164299765Y-82691572D01*
X164293804Y-82667773D01*
X164290204Y-82643505D01*
X164289000Y-82619001D01*
X164289000Y-81718999D01*
X164290204Y-81694495D01*
X164293804Y-81670227D01*
X164299765Y-81646428D01*
X164308030Y-81623329D01*
X164318520Y-81601150D01*
X164331132Y-81580107D01*
X164345747Y-81560401D01*
X164362223Y-81542223D01*
X164380401Y-81525747D01*
X164400107Y-81511132D01*
X164421150Y-81498520D01*
X164443329Y-81488030D01*
X164466428Y-81479765D01*
X164490227Y-81473804D01*
X164514495Y-81470204D01*
X164538999Y-81469000D01*
X165189001Y-81469000D01*
X165213505Y-81470204D01*
X165213505Y-81470204D01*
G37*
D12*
X164864000Y-82169000D03*
G04 #@! TD*
D10*
G04 #@! TO.C,R1*
G36*
X140666505Y-80678204D02*
X140690773Y-80681804D01*
X140714572Y-80687765D01*
X140737671Y-80696030D01*
X140759850Y-80706520D01*
X140780893Y-80719132D01*
X140800599Y-80733747D01*
X140818777Y-80750223D01*
X140835253Y-80768401D01*
X140849868Y-80788107D01*
X140862480Y-80809150D01*
X140872970Y-80831329D01*
X140881235Y-80854428D01*
X140887196Y-80878227D01*
X140890796Y-80902495D01*
X140892000Y-80926999D01*
X140892000Y-84427001D01*
X140890796Y-84451505D01*
X140887196Y-84475773D01*
X140881235Y-84499572D01*
X140872970Y-84522671D01*
X140862480Y-84544850D01*
X140849868Y-84565893D01*
X140835253Y-84585599D01*
X140818777Y-84603777D01*
X140800599Y-84620253D01*
X140780893Y-84634868D01*
X140759850Y-84647480D01*
X140737671Y-84657970D01*
X140714572Y-84666235D01*
X140690773Y-84672196D01*
X140666505Y-84675796D01*
X140642001Y-84677000D01*
X139616999Y-84677000D01*
X139592495Y-84675796D01*
X139568227Y-84672196D01*
X139544428Y-84666235D01*
X139521329Y-84657970D01*
X139499150Y-84647480D01*
X139478107Y-84634868D01*
X139458401Y-84620253D01*
X139440223Y-84603777D01*
X139423747Y-84585599D01*
X139409132Y-84565893D01*
X139396520Y-84544850D01*
X139386030Y-84522671D01*
X139377765Y-84499572D01*
X139371804Y-84475773D01*
X139368204Y-84451505D01*
X139367000Y-84427001D01*
X139367000Y-80926999D01*
X139368204Y-80902495D01*
X139371804Y-80878227D01*
X139377765Y-80854428D01*
X139386030Y-80831329D01*
X139396520Y-80809150D01*
X139409132Y-80788107D01*
X139423747Y-80768401D01*
X139440223Y-80750223D01*
X139458401Y-80733747D01*
X139478107Y-80719132D01*
X139499150Y-80706520D01*
X139521329Y-80696030D01*
X139544428Y-80687765D01*
X139568227Y-80681804D01*
X139592495Y-80678204D01*
X139616999Y-80677000D01*
X140642001Y-80677000D01*
X140666505Y-80678204D01*
X140666505Y-80678204D01*
G37*
D13*
X140129500Y-82677000D03*
D10*
G36*
X138791505Y-80678204D02*
X138815773Y-80681804D01*
X138839572Y-80687765D01*
X138862671Y-80696030D01*
X138884850Y-80706520D01*
X138905893Y-80719132D01*
X138925599Y-80733747D01*
X138943777Y-80750223D01*
X138960253Y-80768401D01*
X138974868Y-80788107D01*
X138987480Y-80809150D01*
X138997970Y-80831329D01*
X139006235Y-80854428D01*
X139012196Y-80878227D01*
X139015796Y-80902495D01*
X139017000Y-80926999D01*
X139017000Y-84427001D01*
X139015796Y-84451505D01*
X139012196Y-84475773D01*
X139006235Y-84499572D01*
X138997970Y-84522671D01*
X138987480Y-84544850D01*
X138974868Y-84565893D01*
X138960253Y-84585599D01*
X138943777Y-84603777D01*
X138925599Y-84620253D01*
X138905893Y-84634868D01*
X138884850Y-84647480D01*
X138862671Y-84657970D01*
X138839572Y-84666235D01*
X138815773Y-84672196D01*
X138791505Y-84675796D01*
X138767001Y-84677000D01*
X137741999Y-84677000D01*
X137717495Y-84675796D01*
X137693227Y-84672196D01*
X137669428Y-84666235D01*
X137646329Y-84657970D01*
X137624150Y-84647480D01*
X137603107Y-84634868D01*
X137583401Y-84620253D01*
X137565223Y-84603777D01*
X137548747Y-84585599D01*
X137534132Y-84565893D01*
X137521520Y-84544850D01*
X137511030Y-84522671D01*
X137502765Y-84499572D01*
X137496804Y-84475773D01*
X137493204Y-84451505D01*
X137492000Y-84427001D01*
X137492000Y-80926999D01*
X137493204Y-80902495D01*
X137496804Y-80878227D01*
X137502765Y-80854428D01*
X137511030Y-80831329D01*
X137521520Y-80809150D01*
X137534132Y-80788107D01*
X137548747Y-80768401D01*
X137565223Y-80750223D01*
X137583401Y-80733747D01*
X137603107Y-80719132D01*
X137624150Y-80706520D01*
X137646329Y-80696030D01*
X137669428Y-80687765D01*
X137693227Y-80681804D01*
X137717495Y-80678204D01*
X137741999Y-80677000D01*
X138767001Y-80677000D01*
X138791505Y-80678204D01*
X138791505Y-80678204D01*
G37*
D13*
X138254500Y-82677000D03*
G04 #@! TD*
D10*
G04 #@! TO.C,R2*
G36*
X144711505Y-80424204D02*
X144735773Y-80427804D01*
X144759572Y-80433765D01*
X144782671Y-80442030D01*
X144804850Y-80452520D01*
X144825893Y-80465132D01*
X144845599Y-80479747D01*
X144863777Y-80496223D01*
X144880253Y-80514401D01*
X144894868Y-80534107D01*
X144907480Y-80555150D01*
X144917970Y-80577329D01*
X144926235Y-80600428D01*
X144932196Y-80624227D01*
X144935796Y-80648495D01*
X144937000Y-80672999D01*
X144937000Y-84173001D01*
X144935796Y-84197505D01*
X144932196Y-84221773D01*
X144926235Y-84245572D01*
X144917970Y-84268671D01*
X144907480Y-84290850D01*
X144894868Y-84311893D01*
X144880253Y-84331599D01*
X144863777Y-84349777D01*
X144845599Y-84366253D01*
X144825893Y-84380868D01*
X144804850Y-84393480D01*
X144782671Y-84403970D01*
X144759572Y-84412235D01*
X144735773Y-84418196D01*
X144711505Y-84421796D01*
X144687001Y-84423000D01*
X143661999Y-84423000D01*
X143637495Y-84421796D01*
X143613227Y-84418196D01*
X143589428Y-84412235D01*
X143566329Y-84403970D01*
X143544150Y-84393480D01*
X143523107Y-84380868D01*
X143503401Y-84366253D01*
X143485223Y-84349777D01*
X143468747Y-84331599D01*
X143454132Y-84311893D01*
X143441520Y-84290850D01*
X143431030Y-84268671D01*
X143422765Y-84245572D01*
X143416804Y-84221773D01*
X143413204Y-84197505D01*
X143412000Y-84173001D01*
X143412000Y-80672999D01*
X143413204Y-80648495D01*
X143416804Y-80624227D01*
X143422765Y-80600428D01*
X143431030Y-80577329D01*
X143441520Y-80555150D01*
X143454132Y-80534107D01*
X143468747Y-80514401D01*
X143485223Y-80496223D01*
X143503401Y-80479747D01*
X143523107Y-80465132D01*
X143544150Y-80452520D01*
X143566329Y-80442030D01*
X143589428Y-80433765D01*
X143613227Y-80427804D01*
X143637495Y-80424204D01*
X143661999Y-80423000D01*
X144687001Y-80423000D01*
X144711505Y-80424204D01*
X144711505Y-80424204D01*
G37*
D13*
X144174500Y-82423000D03*
D10*
G36*
X146586505Y-80424204D02*
X146610773Y-80427804D01*
X146634572Y-80433765D01*
X146657671Y-80442030D01*
X146679850Y-80452520D01*
X146700893Y-80465132D01*
X146720599Y-80479747D01*
X146738777Y-80496223D01*
X146755253Y-80514401D01*
X146769868Y-80534107D01*
X146782480Y-80555150D01*
X146792970Y-80577329D01*
X146801235Y-80600428D01*
X146807196Y-80624227D01*
X146810796Y-80648495D01*
X146812000Y-80672999D01*
X146812000Y-84173001D01*
X146810796Y-84197505D01*
X146807196Y-84221773D01*
X146801235Y-84245572D01*
X146792970Y-84268671D01*
X146782480Y-84290850D01*
X146769868Y-84311893D01*
X146755253Y-84331599D01*
X146738777Y-84349777D01*
X146720599Y-84366253D01*
X146700893Y-84380868D01*
X146679850Y-84393480D01*
X146657671Y-84403970D01*
X146634572Y-84412235D01*
X146610773Y-84418196D01*
X146586505Y-84421796D01*
X146562001Y-84423000D01*
X145536999Y-84423000D01*
X145512495Y-84421796D01*
X145488227Y-84418196D01*
X145464428Y-84412235D01*
X145441329Y-84403970D01*
X145419150Y-84393480D01*
X145398107Y-84380868D01*
X145378401Y-84366253D01*
X145360223Y-84349777D01*
X145343747Y-84331599D01*
X145329132Y-84311893D01*
X145316520Y-84290850D01*
X145306030Y-84268671D01*
X145297765Y-84245572D01*
X145291804Y-84221773D01*
X145288204Y-84197505D01*
X145287000Y-84173001D01*
X145287000Y-80672999D01*
X145288204Y-80648495D01*
X145291804Y-80624227D01*
X145297765Y-80600428D01*
X145306030Y-80577329D01*
X145316520Y-80555150D01*
X145329132Y-80534107D01*
X145343747Y-80514401D01*
X145360223Y-80496223D01*
X145378401Y-80479747D01*
X145398107Y-80465132D01*
X145419150Y-80452520D01*
X145441329Y-80442030D01*
X145464428Y-80433765D01*
X145488227Y-80427804D01*
X145512495Y-80424204D01*
X145536999Y-80423000D01*
X146562001Y-80423000D01*
X146586505Y-80424204D01*
X146586505Y-80424204D01*
G37*
D13*
X146049500Y-82423000D03*
G04 #@! TD*
D10*
G04 #@! TO.C,R3*
G36*
X140204505Y-114428204D02*
X140228773Y-114431804D01*
X140252572Y-114437765D01*
X140275671Y-114446030D01*
X140297850Y-114456520D01*
X140318893Y-114469132D01*
X140338599Y-114483747D01*
X140356777Y-114500223D01*
X140373253Y-114518401D01*
X140387868Y-114538107D01*
X140400480Y-114559150D01*
X140410970Y-114581329D01*
X140419235Y-114604428D01*
X140425196Y-114628227D01*
X140428796Y-114652495D01*
X140430000Y-114676999D01*
X140430000Y-115702001D01*
X140428796Y-115726505D01*
X140425196Y-115750773D01*
X140419235Y-115774572D01*
X140410970Y-115797671D01*
X140400480Y-115819850D01*
X140387868Y-115840893D01*
X140373253Y-115860599D01*
X140356777Y-115878777D01*
X140338599Y-115895253D01*
X140318893Y-115909868D01*
X140297850Y-115922480D01*
X140275671Y-115932970D01*
X140252572Y-115941235D01*
X140228773Y-115947196D01*
X140204505Y-115950796D01*
X140180001Y-115952000D01*
X136679999Y-115952000D01*
X136655495Y-115950796D01*
X136631227Y-115947196D01*
X136607428Y-115941235D01*
X136584329Y-115932970D01*
X136562150Y-115922480D01*
X136541107Y-115909868D01*
X136521401Y-115895253D01*
X136503223Y-115878777D01*
X136486747Y-115860599D01*
X136472132Y-115840893D01*
X136459520Y-115819850D01*
X136449030Y-115797671D01*
X136440765Y-115774572D01*
X136434804Y-115750773D01*
X136431204Y-115726505D01*
X136430000Y-115702001D01*
X136430000Y-114676999D01*
X136431204Y-114652495D01*
X136434804Y-114628227D01*
X136440765Y-114604428D01*
X136449030Y-114581329D01*
X136459520Y-114559150D01*
X136472132Y-114538107D01*
X136486747Y-114518401D01*
X136503223Y-114500223D01*
X136521401Y-114483747D01*
X136541107Y-114469132D01*
X136562150Y-114456520D01*
X136584329Y-114446030D01*
X136607428Y-114437765D01*
X136631227Y-114431804D01*
X136655495Y-114428204D01*
X136679999Y-114427000D01*
X140180001Y-114427000D01*
X140204505Y-114428204D01*
X140204505Y-114428204D01*
G37*
D13*
X138430000Y-115189500D03*
D10*
G36*
X140204505Y-112553204D02*
X140228773Y-112556804D01*
X140252572Y-112562765D01*
X140275671Y-112571030D01*
X140297850Y-112581520D01*
X140318893Y-112594132D01*
X140338599Y-112608747D01*
X140356777Y-112625223D01*
X140373253Y-112643401D01*
X140387868Y-112663107D01*
X140400480Y-112684150D01*
X140410970Y-112706329D01*
X140419235Y-112729428D01*
X140425196Y-112753227D01*
X140428796Y-112777495D01*
X140430000Y-112801999D01*
X140430000Y-113827001D01*
X140428796Y-113851505D01*
X140425196Y-113875773D01*
X140419235Y-113899572D01*
X140410970Y-113922671D01*
X140400480Y-113944850D01*
X140387868Y-113965893D01*
X140373253Y-113985599D01*
X140356777Y-114003777D01*
X140338599Y-114020253D01*
X140318893Y-114034868D01*
X140297850Y-114047480D01*
X140275671Y-114057970D01*
X140252572Y-114066235D01*
X140228773Y-114072196D01*
X140204505Y-114075796D01*
X140180001Y-114077000D01*
X136679999Y-114077000D01*
X136655495Y-114075796D01*
X136631227Y-114072196D01*
X136607428Y-114066235D01*
X136584329Y-114057970D01*
X136562150Y-114047480D01*
X136541107Y-114034868D01*
X136521401Y-114020253D01*
X136503223Y-114003777D01*
X136486747Y-113985599D01*
X136472132Y-113965893D01*
X136459520Y-113944850D01*
X136449030Y-113922671D01*
X136440765Y-113899572D01*
X136434804Y-113875773D01*
X136431204Y-113851505D01*
X136430000Y-113827001D01*
X136430000Y-112801999D01*
X136431204Y-112777495D01*
X136434804Y-112753227D01*
X136440765Y-112729428D01*
X136449030Y-112706329D01*
X136459520Y-112684150D01*
X136472132Y-112663107D01*
X136486747Y-112643401D01*
X136503223Y-112625223D01*
X136521401Y-112608747D01*
X136541107Y-112594132D01*
X136562150Y-112581520D01*
X136584329Y-112571030D01*
X136607428Y-112562765D01*
X136631227Y-112556804D01*
X136655495Y-112553204D01*
X136679999Y-112552000D01*
X140180001Y-112552000D01*
X140204505Y-112553204D01*
X140204505Y-112553204D01*
G37*
D13*
X138430000Y-113314500D03*
G04 #@! TD*
D10*
G04 #@! TO.C,R4*
G36*
X153347505Y-82710204D02*
X153371773Y-82713804D01*
X153395572Y-82719765D01*
X153418671Y-82728030D01*
X153440850Y-82738520D01*
X153461893Y-82751132D01*
X153481599Y-82765747D01*
X153499777Y-82782223D01*
X153516253Y-82800401D01*
X153530868Y-82820107D01*
X153543480Y-82841150D01*
X153553970Y-82863329D01*
X153562235Y-82886428D01*
X153568196Y-82910227D01*
X153571796Y-82934495D01*
X153573000Y-82958999D01*
X153573000Y-86459001D01*
X153571796Y-86483505D01*
X153568196Y-86507773D01*
X153562235Y-86531572D01*
X153553970Y-86554671D01*
X153543480Y-86576850D01*
X153530868Y-86597893D01*
X153516253Y-86617599D01*
X153499777Y-86635777D01*
X153481599Y-86652253D01*
X153461893Y-86666868D01*
X153440850Y-86679480D01*
X153418671Y-86689970D01*
X153395572Y-86698235D01*
X153371773Y-86704196D01*
X153347505Y-86707796D01*
X153323001Y-86709000D01*
X152297999Y-86709000D01*
X152273495Y-86707796D01*
X152249227Y-86704196D01*
X152225428Y-86698235D01*
X152202329Y-86689970D01*
X152180150Y-86679480D01*
X152159107Y-86666868D01*
X152139401Y-86652253D01*
X152121223Y-86635777D01*
X152104747Y-86617599D01*
X152090132Y-86597893D01*
X152077520Y-86576850D01*
X152067030Y-86554671D01*
X152058765Y-86531572D01*
X152052804Y-86507773D01*
X152049204Y-86483505D01*
X152048000Y-86459001D01*
X152048000Y-82958999D01*
X152049204Y-82934495D01*
X152052804Y-82910227D01*
X152058765Y-82886428D01*
X152067030Y-82863329D01*
X152077520Y-82841150D01*
X152090132Y-82820107D01*
X152104747Y-82800401D01*
X152121223Y-82782223D01*
X152139401Y-82765747D01*
X152159107Y-82751132D01*
X152180150Y-82738520D01*
X152202329Y-82728030D01*
X152225428Y-82719765D01*
X152249227Y-82713804D01*
X152273495Y-82710204D01*
X152297999Y-82709000D01*
X153323001Y-82709000D01*
X153347505Y-82710204D01*
X153347505Y-82710204D01*
G37*
D13*
X152810500Y-84709000D03*
D10*
G36*
X155222505Y-82710204D02*
X155246773Y-82713804D01*
X155270572Y-82719765D01*
X155293671Y-82728030D01*
X155315850Y-82738520D01*
X155336893Y-82751132D01*
X155356599Y-82765747D01*
X155374777Y-82782223D01*
X155391253Y-82800401D01*
X155405868Y-82820107D01*
X155418480Y-82841150D01*
X155428970Y-82863329D01*
X155437235Y-82886428D01*
X155443196Y-82910227D01*
X155446796Y-82934495D01*
X155448000Y-82958999D01*
X155448000Y-86459001D01*
X155446796Y-86483505D01*
X155443196Y-86507773D01*
X155437235Y-86531572D01*
X155428970Y-86554671D01*
X155418480Y-86576850D01*
X155405868Y-86597893D01*
X155391253Y-86617599D01*
X155374777Y-86635777D01*
X155356599Y-86652253D01*
X155336893Y-86666868D01*
X155315850Y-86679480D01*
X155293671Y-86689970D01*
X155270572Y-86698235D01*
X155246773Y-86704196D01*
X155222505Y-86707796D01*
X155198001Y-86709000D01*
X154172999Y-86709000D01*
X154148495Y-86707796D01*
X154124227Y-86704196D01*
X154100428Y-86698235D01*
X154077329Y-86689970D01*
X154055150Y-86679480D01*
X154034107Y-86666868D01*
X154014401Y-86652253D01*
X153996223Y-86635777D01*
X153979747Y-86617599D01*
X153965132Y-86597893D01*
X153952520Y-86576850D01*
X153942030Y-86554671D01*
X153933765Y-86531572D01*
X153927804Y-86507773D01*
X153924204Y-86483505D01*
X153923000Y-86459001D01*
X153923000Y-82958999D01*
X153924204Y-82934495D01*
X153927804Y-82910227D01*
X153933765Y-82886428D01*
X153942030Y-82863329D01*
X153952520Y-82841150D01*
X153965132Y-82820107D01*
X153979747Y-82800401D01*
X153996223Y-82782223D01*
X154014401Y-82765747D01*
X154034107Y-82751132D01*
X154055150Y-82738520D01*
X154077329Y-82728030D01*
X154100428Y-82719765D01*
X154124227Y-82713804D01*
X154148495Y-82710204D01*
X154172999Y-82709000D01*
X155198001Y-82709000D01*
X155222505Y-82710204D01*
X155222505Y-82710204D01*
G37*
D13*
X154685500Y-84709000D03*
G04 #@! TD*
D10*
G04 #@! TO.C,R5*
G36*
X155222505Y-89568204D02*
X155246773Y-89571804D01*
X155270572Y-89577765D01*
X155293671Y-89586030D01*
X155315850Y-89596520D01*
X155336893Y-89609132D01*
X155356599Y-89623747D01*
X155374777Y-89640223D01*
X155391253Y-89658401D01*
X155405868Y-89678107D01*
X155418480Y-89699150D01*
X155428970Y-89721329D01*
X155437235Y-89744428D01*
X155443196Y-89768227D01*
X155446796Y-89792495D01*
X155448000Y-89816999D01*
X155448000Y-93317001D01*
X155446796Y-93341505D01*
X155443196Y-93365773D01*
X155437235Y-93389572D01*
X155428970Y-93412671D01*
X155418480Y-93434850D01*
X155405868Y-93455893D01*
X155391253Y-93475599D01*
X155374777Y-93493777D01*
X155356599Y-93510253D01*
X155336893Y-93524868D01*
X155315850Y-93537480D01*
X155293671Y-93547970D01*
X155270572Y-93556235D01*
X155246773Y-93562196D01*
X155222505Y-93565796D01*
X155198001Y-93567000D01*
X154172999Y-93567000D01*
X154148495Y-93565796D01*
X154124227Y-93562196D01*
X154100428Y-93556235D01*
X154077329Y-93547970D01*
X154055150Y-93537480D01*
X154034107Y-93524868D01*
X154014401Y-93510253D01*
X153996223Y-93493777D01*
X153979747Y-93475599D01*
X153965132Y-93455893D01*
X153952520Y-93434850D01*
X153942030Y-93412671D01*
X153933765Y-93389572D01*
X153927804Y-93365773D01*
X153924204Y-93341505D01*
X153923000Y-93317001D01*
X153923000Y-89816999D01*
X153924204Y-89792495D01*
X153927804Y-89768227D01*
X153933765Y-89744428D01*
X153942030Y-89721329D01*
X153952520Y-89699150D01*
X153965132Y-89678107D01*
X153979747Y-89658401D01*
X153996223Y-89640223D01*
X154014401Y-89623747D01*
X154034107Y-89609132D01*
X154055150Y-89596520D01*
X154077329Y-89586030D01*
X154100428Y-89577765D01*
X154124227Y-89571804D01*
X154148495Y-89568204D01*
X154172999Y-89567000D01*
X155198001Y-89567000D01*
X155222505Y-89568204D01*
X155222505Y-89568204D01*
G37*
D13*
X154685500Y-91567000D03*
D10*
G36*
X153347505Y-89568204D02*
X153371773Y-89571804D01*
X153395572Y-89577765D01*
X153418671Y-89586030D01*
X153440850Y-89596520D01*
X153461893Y-89609132D01*
X153481599Y-89623747D01*
X153499777Y-89640223D01*
X153516253Y-89658401D01*
X153530868Y-89678107D01*
X153543480Y-89699150D01*
X153553970Y-89721329D01*
X153562235Y-89744428D01*
X153568196Y-89768227D01*
X153571796Y-89792495D01*
X153573000Y-89816999D01*
X153573000Y-93317001D01*
X153571796Y-93341505D01*
X153568196Y-93365773D01*
X153562235Y-93389572D01*
X153553970Y-93412671D01*
X153543480Y-93434850D01*
X153530868Y-93455893D01*
X153516253Y-93475599D01*
X153499777Y-93493777D01*
X153481599Y-93510253D01*
X153461893Y-93524868D01*
X153440850Y-93537480D01*
X153418671Y-93547970D01*
X153395572Y-93556235D01*
X153371773Y-93562196D01*
X153347505Y-93565796D01*
X153323001Y-93567000D01*
X152297999Y-93567000D01*
X152273495Y-93565796D01*
X152249227Y-93562196D01*
X152225428Y-93556235D01*
X152202329Y-93547970D01*
X152180150Y-93537480D01*
X152159107Y-93524868D01*
X152139401Y-93510253D01*
X152121223Y-93493777D01*
X152104747Y-93475599D01*
X152090132Y-93455893D01*
X152077520Y-93434850D01*
X152067030Y-93412671D01*
X152058765Y-93389572D01*
X152052804Y-93365773D01*
X152049204Y-93341505D01*
X152048000Y-93317001D01*
X152048000Y-89816999D01*
X152049204Y-89792495D01*
X152052804Y-89768227D01*
X152058765Y-89744428D01*
X152067030Y-89721329D01*
X152077520Y-89699150D01*
X152090132Y-89678107D01*
X152104747Y-89658401D01*
X152121223Y-89640223D01*
X152139401Y-89623747D01*
X152159107Y-89609132D01*
X152180150Y-89596520D01*
X152202329Y-89586030D01*
X152225428Y-89577765D01*
X152249227Y-89571804D01*
X152273495Y-89568204D01*
X152297999Y-89567000D01*
X153323001Y-89567000D01*
X153347505Y-89568204D01*
X153347505Y-89568204D01*
G37*
D13*
X152810500Y-91567000D03*
G04 #@! TD*
D10*
G04 #@! TO.C,R6*
G36*
X153523505Y-102014204D02*
X153547773Y-102017804D01*
X153571572Y-102023765D01*
X153594671Y-102032030D01*
X153616850Y-102042520D01*
X153637893Y-102055132D01*
X153657599Y-102069747D01*
X153675777Y-102086223D01*
X153692253Y-102104401D01*
X153706868Y-102124107D01*
X153719480Y-102145150D01*
X153729970Y-102167329D01*
X153738235Y-102190428D01*
X153744196Y-102214227D01*
X153747796Y-102238495D01*
X153749000Y-102262999D01*
X153749000Y-105763001D01*
X153747796Y-105787505D01*
X153744196Y-105811773D01*
X153738235Y-105835572D01*
X153729970Y-105858671D01*
X153719480Y-105880850D01*
X153706868Y-105901893D01*
X153692253Y-105921599D01*
X153675777Y-105939777D01*
X153657599Y-105956253D01*
X153637893Y-105970868D01*
X153616850Y-105983480D01*
X153594671Y-105993970D01*
X153571572Y-106002235D01*
X153547773Y-106008196D01*
X153523505Y-106011796D01*
X153499001Y-106013000D01*
X152473999Y-106013000D01*
X152449495Y-106011796D01*
X152425227Y-106008196D01*
X152401428Y-106002235D01*
X152378329Y-105993970D01*
X152356150Y-105983480D01*
X152335107Y-105970868D01*
X152315401Y-105956253D01*
X152297223Y-105939777D01*
X152280747Y-105921599D01*
X152266132Y-105901893D01*
X152253520Y-105880850D01*
X152243030Y-105858671D01*
X152234765Y-105835572D01*
X152228804Y-105811773D01*
X152225204Y-105787505D01*
X152224000Y-105763001D01*
X152224000Y-102262999D01*
X152225204Y-102238495D01*
X152228804Y-102214227D01*
X152234765Y-102190428D01*
X152243030Y-102167329D01*
X152253520Y-102145150D01*
X152266132Y-102124107D01*
X152280747Y-102104401D01*
X152297223Y-102086223D01*
X152315401Y-102069747D01*
X152335107Y-102055132D01*
X152356150Y-102042520D01*
X152378329Y-102032030D01*
X152401428Y-102023765D01*
X152425227Y-102017804D01*
X152449495Y-102014204D01*
X152473999Y-102013000D01*
X153499001Y-102013000D01*
X153523505Y-102014204D01*
X153523505Y-102014204D01*
G37*
D13*
X152986500Y-104013000D03*
D10*
G36*
X155398505Y-102014204D02*
X155422773Y-102017804D01*
X155446572Y-102023765D01*
X155469671Y-102032030D01*
X155491850Y-102042520D01*
X155512893Y-102055132D01*
X155532599Y-102069747D01*
X155550777Y-102086223D01*
X155567253Y-102104401D01*
X155581868Y-102124107D01*
X155594480Y-102145150D01*
X155604970Y-102167329D01*
X155613235Y-102190428D01*
X155619196Y-102214227D01*
X155622796Y-102238495D01*
X155624000Y-102262999D01*
X155624000Y-105763001D01*
X155622796Y-105787505D01*
X155619196Y-105811773D01*
X155613235Y-105835572D01*
X155604970Y-105858671D01*
X155594480Y-105880850D01*
X155581868Y-105901893D01*
X155567253Y-105921599D01*
X155550777Y-105939777D01*
X155532599Y-105956253D01*
X155512893Y-105970868D01*
X155491850Y-105983480D01*
X155469671Y-105993970D01*
X155446572Y-106002235D01*
X155422773Y-106008196D01*
X155398505Y-106011796D01*
X155374001Y-106013000D01*
X154348999Y-106013000D01*
X154324495Y-106011796D01*
X154300227Y-106008196D01*
X154276428Y-106002235D01*
X154253329Y-105993970D01*
X154231150Y-105983480D01*
X154210107Y-105970868D01*
X154190401Y-105956253D01*
X154172223Y-105939777D01*
X154155747Y-105921599D01*
X154141132Y-105901893D01*
X154128520Y-105880850D01*
X154118030Y-105858671D01*
X154109765Y-105835572D01*
X154103804Y-105811773D01*
X154100204Y-105787505D01*
X154099000Y-105763001D01*
X154099000Y-102262999D01*
X154100204Y-102238495D01*
X154103804Y-102214227D01*
X154109765Y-102190428D01*
X154118030Y-102167329D01*
X154128520Y-102145150D01*
X154141132Y-102124107D01*
X154155747Y-102104401D01*
X154172223Y-102086223D01*
X154190401Y-102069747D01*
X154210107Y-102055132D01*
X154231150Y-102042520D01*
X154253329Y-102032030D01*
X154276428Y-102023765D01*
X154300227Y-102017804D01*
X154324495Y-102014204D01*
X154348999Y-102013000D01*
X155374001Y-102013000D01*
X155398505Y-102014204D01*
X155398505Y-102014204D01*
G37*
D13*
X154861500Y-104013000D03*
G04 #@! TD*
D10*
G04 #@! TO.C,R7*
G36*
X155476505Y-109634204D02*
X155500773Y-109637804D01*
X155524572Y-109643765D01*
X155547671Y-109652030D01*
X155569850Y-109662520D01*
X155590893Y-109675132D01*
X155610599Y-109689747D01*
X155628777Y-109706223D01*
X155645253Y-109724401D01*
X155659868Y-109744107D01*
X155672480Y-109765150D01*
X155682970Y-109787329D01*
X155691235Y-109810428D01*
X155697196Y-109834227D01*
X155700796Y-109858495D01*
X155702000Y-109882999D01*
X155702000Y-113383001D01*
X155700796Y-113407505D01*
X155697196Y-113431773D01*
X155691235Y-113455572D01*
X155682970Y-113478671D01*
X155672480Y-113500850D01*
X155659868Y-113521893D01*
X155645253Y-113541599D01*
X155628777Y-113559777D01*
X155610599Y-113576253D01*
X155590893Y-113590868D01*
X155569850Y-113603480D01*
X155547671Y-113613970D01*
X155524572Y-113622235D01*
X155500773Y-113628196D01*
X155476505Y-113631796D01*
X155452001Y-113633000D01*
X154426999Y-113633000D01*
X154402495Y-113631796D01*
X154378227Y-113628196D01*
X154354428Y-113622235D01*
X154331329Y-113613970D01*
X154309150Y-113603480D01*
X154288107Y-113590868D01*
X154268401Y-113576253D01*
X154250223Y-113559777D01*
X154233747Y-113541599D01*
X154219132Y-113521893D01*
X154206520Y-113500850D01*
X154196030Y-113478671D01*
X154187765Y-113455572D01*
X154181804Y-113431773D01*
X154178204Y-113407505D01*
X154177000Y-113383001D01*
X154177000Y-109882999D01*
X154178204Y-109858495D01*
X154181804Y-109834227D01*
X154187765Y-109810428D01*
X154196030Y-109787329D01*
X154206520Y-109765150D01*
X154219132Y-109744107D01*
X154233747Y-109724401D01*
X154250223Y-109706223D01*
X154268401Y-109689747D01*
X154288107Y-109675132D01*
X154309150Y-109662520D01*
X154331329Y-109652030D01*
X154354428Y-109643765D01*
X154378227Y-109637804D01*
X154402495Y-109634204D01*
X154426999Y-109633000D01*
X155452001Y-109633000D01*
X155476505Y-109634204D01*
X155476505Y-109634204D01*
G37*
D13*
X154939500Y-111633000D03*
D10*
G36*
X153601505Y-109634204D02*
X153625773Y-109637804D01*
X153649572Y-109643765D01*
X153672671Y-109652030D01*
X153694850Y-109662520D01*
X153715893Y-109675132D01*
X153735599Y-109689747D01*
X153753777Y-109706223D01*
X153770253Y-109724401D01*
X153784868Y-109744107D01*
X153797480Y-109765150D01*
X153807970Y-109787329D01*
X153816235Y-109810428D01*
X153822196Y-109834227D01*
X153825796Y-109858495D01*
X153827000Y-109882999D01*
X153827000Y-113383001D01*
X153825796Y-113407505D01*
X153822196Y-113431773D01*
X153816235Y-113455572D01*
X153807970Y-113478671D01*
X153797480Y-113500850D01*
X153784868Y-113521893D01*
X153770253Y-113541599D01*
X153753777Y-113559777D01*
X153735599Y-113576253D01*
X153715893Y-113590868D01*
X153694850Y-113603480D01*
X153672671Y-113613970D01*
X153649572Y-113622235D01*
X153625773Y-113628196D01*
X153601505Y-113631796D01*
X153577001Y-113633000D01*
X152551999Y-113633000D01*
X152527495Y-113631796D01*
X152503227Y-113628196D01*
X152479428Y-113622235D01*
X152456329Y-113613970D01*
X152434150Y-113603480D01*
X152413107Y-113590868D01*
X152393401Y-113576253D01*
X152375223Y-113559777D01*
X152358747Y-113541599D01*
X152344132Y-113521893D01*
X152331520Y-113500850D01*
X152321030Y-113478671D01*
X152312765Y-113455572D01*
X152306804Y-113431773D01*
X152303204Y-113407505D01*
X152302000Y-113383001D01*
X152302000Y-109882999D01*
X152303204Y-109858495D01*
X152306804Y-109834227D01*
X152312765Y-109810428D01*
X152321030Y-109787329D01*
X152331520Y-109765150D01*
X152344132Y-109744107D01*
X152358747Y-109724401D01*
X152375223Y-109706223D01*
X152393401Y-109689747D01*
X152413107Y-109675132D01*
X152434150Y-109662520D01*
X152456329Y-109652030D01*
X152479428Y-109643765D01*
X152503227Y-109637804D01*
X152527495Y-109634204D01*
X152551999Y-109633000D01*
X153577001Y-109633000D01*
X153601505Y-109634204D01*
X153601505Y-109634204D01*
G37*
D13*
X153064500Y-111633000D03*
G04 #@! TD*
D10*
G04 #@! TO.C,C1*
G36*
X120727505Y-49974204D02*
X120751773Y-49977804D01*
X120775572Y-49983765D01*
X120798671Y-49992030D01*
X120820850Y-50002520D01*
X120841893Y-50015132D01*
X120861599Y-50029747D01*
X120879777Y-50046223D01*
X120896253Y-50064401D01*
X120910868Y-50084107D01*
X120923480Y-50105150D01*
X120933970Y-50127329D01*
X120942235Y-50150428D01*
X120948196Y-50174227D01*
X120951796Y-50198495D01*
X120953000Y-50222999D01*
X120953000Y-51123001D01*
X120951796Y-51147505D01*
X120948196Y-51171773D01*
X120942235Y-51195572D01*
X120933970Y-51218671D01*
X120923480Y-51240850D01*
X120910868Y-51261893D01*
X120896253Y-51281599D01*
X120879777Y-51299777D01*
X120861599Y-51316253D01*
X120841893Y-51330868D01*
X120820850Y-51343480D01*
X120798671Y-51353970D01*
X120775572Y-51362235D01*
X120751773Y-51368196D01*
X120727505Y-51371796D01*
X120703001Y-51373000D01*
X120052999Y-51373000D01*
X120028495Y-51371796D01*
X120004227Y-51368196D01*
X119980428Y-51362235D01*
X119957329Y-51353970D01*
X119935150Y-51343480D01*
X119914107Y-51330868D01*
X119894401Y-51316253D01*
X119876223Y-51299777D01*
X119859747Y-51281599D01*
X119845132Y-51261893D01*
X119832520Y-51240850D01*
X119822030Y-51218671D01*
X119813765Y-51195572D01*
X119807804Y-51171773D01*
X119804204Y-51147505D01*
X119803000Y-51123001D01*
X119803000Y-50222999D01*
X119804204Y-50198495D01*
X119807804Y-50174227D01*
X119813765Y-50150428D01*
X119822030Y-50127329D01*
X119832520Y-50105150D01*
X119845132Y-50084107D01*
X119859747Y-50064401D01*
X119876223Y-50046223D01*
X119894401Y-50029747D01*
X119914107Y-50015132D01*
X119935150Y-50002520D01*
X119957329Y-49992030D01*
X119980428Y-49983765D01*
X120004227Y-49977804D01*
X120028495Y-49974204D01*
X120052999Y-49973000D01*
X120703001Y-49973000D01*
X120727505Y-49974204D01*
X120727505Y-49974204D01*
G37*
D12*
X120378000Y-50673000D03*
D10*
G36*
X122777505Y-49974204D02*
X122801773Y-49977804D01*
X122825572Y-49983765D01*
X122848671Y-49992030D01*
X122870850Y-50002520D01*
X122891893Y-50015132D01*
X122911599Y-50029747D01*
X122929777Y-50046223D01*
X122946253Y-50064401D01*
X122960868Y-50084107D01*
X122973480Y-50105150D01*
X122983970Y-50127329D01*
X122992235Y-50150428D01*
X122998196Y-50174227D01*
X123001796Y-50198495D01*
X123003000Y-50222999D01*
X123003000Y-51123001D01*
X123001796Y-51147505D01*
X122998196Y-51171773D01*
X122992235Y-51195572D01*
X122983970Y-51218671D01*
X122973480Y-51240850D01*
X122960868Y-51261893D01*
X122946253Y-51281599D01*
X122929777Y-51299777D01*
X122911599Y-51316253D01*
X122891893Y-51330868D01*
X122870850Y-51343480D01*
X122848671Y-51353970D01*
X122825572Y-51362235D01*
X122801773Y-51368196D01*
X122777505Y-51371796D01*
X122753001Y-51373000D01*
X122102999Y-51373000D01*
X122078495Y-51371796D01*
X122054227Y-51368196D01*
X122030428Y-51362235D01*
X122007329Y-51353970D01*
X121985150Y-51343480D01*
X121964107Y-51330868D01*
X121944401Y-51316253D01*
X121926223Y-51299777D01*
X121909747Y-51281599D01*
X121895132Y-51261893D01*
X121882520Y-51240850D01*
X121872030Y-51218671D01*
X121863765Y-51195572D01*
X121857804Y-51171773D01*
X121854204Y-51147505D01*
X121853000Y-51123001D01*
X121853000Y-50222999D01*
X121854204Y-50198495D01*
X121857804Y-50174227D01*
X121863765Y-50150428D01*
X121872030Y-50127329D01*
X121882520Y-50105150D01*
X121895132Y-50084107D01*
X121909747Y-50064401D01*
X121926223Y-50046223D01*
X121944401Y-50029747D01*
X121964107Y-50015132D01*
X121985150Y-50002520D01*
X122007329Y-49992030D01*
X122030428Y-49983765D01*
X122054227Y-49977804D01*
X122078495Y-49974204D01*
X122102999Y-49973000D01*
X122753001Y-49973000D01*
X122777505Y-49974204D01*
X122777505Y-49974204D01*
G37*
D12*
X122428000Y-50673000D03*
G04 #@! TD*
D10*
G04 #@! TO.C,C2*
G36*
X191103505Y-55054204D02*
X191127773Y-55057804D01*
X191151572Y-55063765D01*
X191174671Y-55072030D01*
X191196850Y-55082520D01*
X191217893Y-55095132D01*
X191237599Y-55109747D01*
X191255777Y-55126223D01*
X191272253Y-55144401D01*
X191286868Y-55164107D01*
X191299480Y-55185150D01*
X191309970Y-55207329D01*
X191318235Y-55230428D01*
X191324196Y-55254227D01*
X191327796Y-55278495D01*
X191329000Y-55302999D01*
X191329000Y-56203001D01*
X191327796Y-56227505D01*
X191324196Y-56251773D01*
X191318235Y-56275572D01*
X191309970Y-56298671D01*
X191299480Y-56320850D01*
X191286868Y-56341893D01*
X191272253Y-56361599D01*
X191255777Y-56379777D01*
X191237599Y-56396253D01*
X191217893Y-56410868D01*
X191196850Y-56423480D01*
X191174671Y-56433970D01*
X191151572Y-56442235D01*
X191127773Y-56448196D01*
X191103505Y-56451796D01*
X191079001Y-56453000D01*
X190428999Y-56453000D01*
X190404495Y-56451796D01*
X190380227Y-56448196D01*
X190356428Y-56442235D01*
X190333329Y-56433970D01*
X190311150Y-56423480D01*
X190290107Y-56410868D01*
X190270401Y-56396253D01*
X190252223Y-56379777D01*
X190235747Y-56361599D01*
X190221132Y-56341893D01*
X190208520Y-56320850D01*
X190198030Y-56298671D01*
X190189765Y-56275572D01*
X190183804Y-56251773D01*
X190180204Y-56227505D01*
X190179000Y-56203001D01*
X190179000Y-55302999D01*
X190180204Y-55278495D01*
X190183804Y-55254227D01*
X190189765Y-55230428D01*
X190198030Y-55207329D01*
X190208520Y-55185150D01*
X190221132Y-55164107D01*
X190235747Y-55144401D01*
X190252223Y-55126223D01*
X190270401Y-55109747D01*
X190290107Y-55095132D01*
X190311150Y-55082520D01*
X190333329Y-55072030D01*
X190356428Y-55063765D01*
X190380227Y-55057804D01*
X190404495Y-55054204D01*
X190428999Y-55053000D01*
X191079001Y-55053000D01*
X191103505Y-55054204D01*
X191103505Y-55054204D01*
G37*
D12*
X190754000Y-55753000D03*
D10*
G36*
X189053505Y-55054204D02*
X189077773Y-55057804D01*
X189101572Y-55063765D01*
X189124671Y-55072030D01*
X189146850Y-55082520D01*
X189167893Y-55095132D01*
X189187599Y-55109747D01*
X189205777Y-55126223D01*
X189222253Y-55144401D01*
X189236868Y-55164107D01*
X189249480Y-55185150D01*
X189259970Y-55207329D01*
X189268235Y-55230428D01*
X189274196Y-55254227D01*
X189277796Y-55278495D01*
X189279000Y-55302999D01*
X189279000Y-56203001D01*
X189277796Y-56227505D01*
X189274196Y-56251773D01*
X189268235Y-56275572D01*
X189259970Y-56298671D01*
X189249480Y-56320850D01*
X189236868Y-56341893D01*
X189222253Y-56361599D01*
X189205777Y-56379777D01*
X189187599Y-56396253D01*
X189167893Y-56410868D01*
X189146850Y-56423480D01*
X189124671Y-56433970D01*
X189101572Y-56442235D01*
X189077773Y-56448196D01*
X189053505Y-56451796D01*
X189029001Y-56453000D01*
X188378999Y-56453000D01*
X188354495Y-56451796D01*
X188330227Y-56448196D01*
X188306428Y-56442235D01*
X188283329Y-56433970D01*
X188261150Y-56423480D01*
X188240107Y-56410868D01*
X188220401Y-56396253D01*
X188202223Y-56379777D01*
X188185747Y-56361599D01*
X188171132Y-56341893D01*
X188158520Y-56320850D01*
X188148030Y-56298671D01*
X188139765Y-56275572D01*
X188133804Y-56251773D01*
X188130204Y-56227505D01*
X188129000Y-56203001D01*
X188129000Y-55302999D01*
X188130204Y-55278495D01*
X188133804Y-55254227D01*
X188139765Y-55230428D01*
X188148030Y-55207329D01*
X188158520Y-55185150D01*
X188171132Y-55164107D01*
X188185747Y-55144401D01*
X188202223Y-55126223D01*
X188220401Y-55109747D01*
X188240107Y-55095132D01*
X188261150Y-55082520D01*
X188283329Y-55072030D01*
X188306428Y-55063765D01*
X188330227Y-55057804D01*
X188354495Y-55054204D01*
X188378999Y-55053000D01*
X189029001Y-55053000D01*
X189053505Y-55054204D01*
X189053505Y-55054204D01*
G37*
D12*
X188704000Y-55753000D03*
G04 #@! TD*
D10*
G04 #@! TO.C,C9*
G36*
X189307505Y-50228204D02*
X189331773Y-50231804D01*
X189355572Y-50237765D01*
X189378671Y-50246030D01*
X189400850Y-50256520D01*
X189421893Y-50269132D01*
X189441599Y-50283747D01*
X189459777Y-50300223D01*
X189476253Y-50318401D01*
X189490868Y-50338107D01*
X189503480Y-50359150D01*
X189513970Y-50381329D01*
X189522235Y-50404428D01*
X189528196Y-50428227D01*
X189531796Y-50452495D01*
X189533000Y-50476999D01*
X189533000Y-51377001D01*
X189531796Y-51401505D01*
X189528196Y-51425773D01*
X189522235Y-51449572D01*
X189513970Y-51472671D01*
X189503480Y-51494850D01*
X189490868Y-51515893D01*
X189476253Y-51535599D01*
X189459777Y-51553777D01*
X189441599Y-51570253D01*
X189421893Y-51584868D01*
X189400850Y-51597480D01*
X189378671Y-51607970D01*
X189355572Y-51616235D01*
X189331773Y-51622196D01*
X189307505Y-51625796D01*
X189283001Y-51627000D01*
X188632999Y-51627000D01*
X188608495Y-51625796D01*
X188584227Y-51622196D01*
X188560428Y-51616235D01*
X188537329Y-51607970D01*
X188515150Y-51597480D01*
X188494107Y-51584868D01*
X188474401Y-51570253D01*
X188456223Y-51553777D01*
X188439747Y-51535599D01*
X188425132Y-51515893D01*
X188412520Y-51494850D01*
X188402030Y-51472671D01*
X188393765Y-51449572D01*
X188387804Y-51425773D01*
X188384204Y-51401505D01*
X188383000Y-51377001D01*
X188383000Y-50476999D01*
X188384204Y-50452495D01*
X188387804Y-50428227D01*
X188393765Y-50404428D01*
X188402030Y-50381329D01*
X188412520Y-50359150D01*
X188425132Y-50338107D01*
X188439747Y-50318401D01*
X188456223Y-50300223D01*
X188474401Y-50283747D01*
X188494107Y-50269132D01*
X188515150Y-50256520D01*
X188537329Y-50246030D01*
X188560428Y-50237765D01*
X188584227Y-50231804D01*
X188608495Y-50228204D01*
X188632999Y-50227000D01*
X189283001Y-50227000D01*
X189307505Y-50228204D01*
X189307505Y-50228204D01*
G37*
D12*
X188958000Y-50927000D03*
D10*
G36*
X191357505Y-50228204D02*
X191381773Y-50231804D01*
X191405572Y-50237765D01*
X191428671Y-50246030D01*
X191450850Y-50256520D01*
X191471893Y-50269132D01*
X191491599Y-50283747D01*
X191509777Y-50300223D01*
X191526253Y-50318401D01*
X191540868Y-50338107D01*
X191553480Y-50359150D01*
X191563970Y-50381329D01*
X191572235Y-50404428D01*
X191578196Y-50428227D01*
X191581796Y-50452495D01*
X191583000Y-50476999D01*
X191583000Y-51377001D01*
X191581796Y-51401505D01*
X191578196Y-51425773D01*
X191572235Y-51449572D01*
X191563970Y-51472671D01*
X191553480Y-51494850D01*
X191540868Y-51515893D01*
X191526253Y-51535599D01*
X191509777Y-51553777D01*
X191491599Y-51570253D01*
X191471893Y-51584868D01*
X191450850Y-51597480D01*
X191428671Y-51607970D01*
X191405572Y-51616235D01*
X191381773Y-51622196D01*
X191357505Y-51625796D01*
X191333001Y-51627000D01*
X190682999Y-51627000D01*
X190658495Y-51625796D01*
X190634227Y-51622196D01*
X190610428Y-51616235D01*
X190587329Y-51607970D01*
X190565150Y-51597480D01*
X190544107Y-51584868D01*
X190524401Y-51570253D01*
X190506223Y-51553777D01*
X190489747Y-51535599D01*
X190475132Y-51515893D01*
X190462520Y-51494850D01*
X190452030Y-51472671D01*
X190443765Y-51449572D01*
X190437804Y-51425773D01*
X190434204Y-51401505D01*
X190433000Y-51377001D01*
X190433000Y-50476999D01*
X190434204Y-50452495D01*
X190437804Y-50428227D01*
X190443765Y-50404428D01*
X190452030Y-50381329D01*
X190462520Y-50359150D01*
X190475132Y-50338107D01*
X190489747Y-50318401D01*
X190506223Y-50300223D01*
X190524401Y-50283747D01*
X190544107Y-50269132D01*
X190565150Y-50256520D01*
X190587329Y-50246030D01*
X190610428Y-50237765D01*
X190634227Y-50231804D01*
X190658495Y-50228204D01*
X190682999Y-50227000D01*
X191333001Y-50227000D01*
X191357505Y-50228204D01*
X191357505Y-50228204D01*
G37*
D12*
X191008000Y-50927000D03*
G04 #@! TD*
D10*
G04 #@! TO.C,C10*
G36*
X150334505Y-96055204D02*
X150358773Y-96058804D01*
X150382572Y-96064765D01*
X150405671Y-96073030D01*
X150427850Y-96083520D01*
X150448893Y-96096132D01*
X150468599Y-96110747D01*
X150486777Y-96127223D01*
X150503253Y-96145401D01*
X150517868Y-96165107D01*
X150530480Y-96186150D01*
X150540970Y-96208329D01*
X150549235Y-96231428D01*
X150555196Y-96255227D01*
X150558796Y-96279495D01*
X150560000Y-96303999D01*
X150560000Y-96954001D01*
X150558796Y-96978505D01*
X150555196Y-97002773D01*
X150549235Y-97026572D01*
X150540970Y-97049671D01*
X150530480Y-97071850D01*
X150517868Y-97092893D01*
X150503253Y-97112599D01*
X150486777Y-97130777D01*
X150468599Y-97147253D01*
X150448893Y-97161868D01*
X150427850Y-97174480D01*
X150405671Y-97184970D01*
X150382572Y-97193235D01*
X150358773Y-97199196D01*
X150334505Y-97202796D01*
X150310001Y-97204000D01*
X149409999Y-97204000D01*
X149385495Y-97202796D01*
X149361227Y-97199196D01*
X149337428Y-97193235D01*
X149314329Y-97184970D01*
X149292150Y-97174480D01*
X149271107Y-97161868D01*
X149251401Y-97147253D01*
X149233223Y-97130777D01*
X149216747Y-97112599D01*
X149202132Y-97092893D01*
X149189520Y-97071850D01*
X149179030Y-97049671D01*
X149170765Y-97026572D01*
X149164804Y-97002773D01*
X149161204Y-96978505D01*
X149160000Y-96954001D01*
X149160000Y-96303999D01*
X149161204Y-96279495D01*
X149164804Y-96255227D01*
X149170765Y-96231428D01*
X149179030Y-96208329D01*
X149189520Y-96186150D01*
X149202132Y-96165107D01*
X149216747Y-96145401D01*
X149233223Y-96127223D01*
X149251401Y-96110747D01*
X149271107Y-96096132D01*
X149292150Y-96083520D01*
X149314329Y-96073030D01*
X149337428Y-96064765D01*
X149361227Y-96058804D01*
X149385495Y-96055204D01*
X149409999Y-96054000D01*
X150310001Y-96054000D01*
X150334505Y-96055204D01*
X150334505Y-96055204D01*
G37*
D12*
X149860000Y-96629000D03*
D10*
G36*
X150334505Y-98105204D02*
X150358773Y-98108804D01*
X150382572Y-98114765D01*
X150405671Y-98123030D01*
X150427850Y-98133520D01*
X150448893Y-98146132D01*
X150468599Y-98160747D01*
X150486777Y-98177223D01*
X150503253Y-98195401D01*
X150517868Y-98215107D01*
X150530480Y-98236150D01*
X150540970Y-98258329D01*
X150549235Y-98281428D01*
X150555196Y-98305227D01*
X150558796Y-98329495D01*
X150560000Y-98353999D01*
X150560000Y-99004001D01*
X150558796Y-99028505D01*
X150555196Y-99052773D01*
X150549235Y-99076572D01*
X150540970Y-99099671D01*
X150530480Y-99121850D01*
X150517868Y-99142893D01*
X150503253Y-99162599D01*
X150486777Y-99180777D01*
X150468599Y-99197253D01*
X150448893Y-99211868D01*
X150427850Y-99224480D01*
X150405671Y-99234970D01*
X150382572Y-99243235D01*
X150358773Y-99249196D01*
X150334505Y-99252796D01*
X150310001Y-99254000D01*
X149409999Y-99254000D01*
X149385495Y-99252796D01*
X149361227Y-99249196D01*
X149337428Y-99243235D01*
X149314329Y-99234970D01*
X149292150Y-99224480D01*
X149271107Y-99211868D01*
X149251401Y-99197253D01*
X149233223Y-99180777D01*
X149216747Y-99162599D01*
X149202132Y-99142893D01*
X149189520Y-99121850D01*
X149179030Y-99099671D01*
X149170765Y-99076572D01*
X149164804Y-99052773D01*
X149161204Y-99028505D01*
X149160000Y-99004001D01*
X149160000Y-98353999D01*
X149161204Y-98329495D01*
X149164804Y-98305227D01*
X149170765Y-98281428D01*
X149179030Y-98258329D01*
X149189520Y-98236150D01*
X149202132Y-98215107D01*
X149216747Y-98195401D01*
X149233223Y-98177223D01*
X149251401Y-98160747D01*
X149271107Y-98146132D01*
X149292150Y-98133520D01*
X149314329Y-98123030D01*
X149337428Y-98114765D01*
X149361227Y-98108804D01*
X149385495Y-98105204D01*
X149409999Y-98104000D01*
X150310001Y-98104000D01*
X150334505Y-98105204D01*
X150334505Y-98105204D01*
G37*
D12*
X149860000Y-98679000D03*
G04 #@! TD*
M02*
